<svg width="193" height="191" viewBox="0 0 193 191" fill="none" xmlns="http://www.w3.org/2000/svg">
<path d="M165.031 190.791L102.893 190.626L95.7522 190.607L59.0292 190.51L17.5838 190.399L10.0154 186.12C6.71544 186.112 5.96437 187.665 4.88648 184.564C4.8805 184.546 2.51204 183.223 2.50606 183.205C1.54691 180.417 -0.000143545 179.372 4.54951e-05 176.272L0.00163249 169.408L0.0260017 27.4583C0.0276891 12.3158 12.5007 -0.039456 27.7433 0.000138826L120.989 0.248467L124.119 0.256581L174.716 0.391109C179.931 0.404541 184.822 1.86836 189 4.39328C191.251 8.35246 192.537 12.9148 192.536 17.7586L192.533 36.5034L192.512 163.568C192.509 178.581 180.142 190.831 165.031 190.791Z" fill="#FFD400"/>
</svg>
