<svg width="325" height="528" viewBox="0 0 325 528" fill="none" xmlns="http://www.w3.org/2000/svg">
<path d="M194.011 505.211H78.7935C72.7205 505.211 67.7974 510.295 67.7974 516.565C67.7974 522.835 72.7205 527.919 78.7935 527.919H194.011C200.084 527.919 205.008 522.835 205.008 516.565C205.008 510.295 200.084 505.211 194.011 505.211Z" fill="#E7DCB7"/>
<path d="M83.8843 505.211H159.586V398.298H103.7L83.8843 505.211Z" fill="#E7DCB7"/>
<path d="M224.248 398.298H203.777H168.248H147.777L136.876 505.211H168.248H203.777H241.913L224.248 398.298Z" fill="#FCF5D4"/>
<path d="M239.423 378.43H85.4269C79.8713 378.43 75.3677 382.938 75.3677 388.499V389.175C75.3677 394.736 79.8713 399.245 85.4269 399.245H239.423C244.979 399.245 249.483 394.736 249.483 389.175V388.499C249.483 382.938 244.979 378.43 239.423 378.43Z" fill="#E7DCB7"/>
<path d="M240.327 378.43H132.784C127.205 378.43 122.682 382.938 122.682 388.499V389.175C122.682 394.736 127.205 399.245 132.784 399.245H240.327C245.906 399.245 250.429 394.736 250.429 389.175V388.499C250.429 382.938 245.906 378.43 240.327 378.43Z" fill="#E7DCB7"/>
<path d="M192.332 341.53H73.8498C62.6681 341.53 53.6035 350.546 53.6035 361.668V363.023C53.6035 374.144 62.6681 383.16 73.8498 383.16H192.332C203.514 383.16 212.578 374.144 212.578 363.023V361.668C212.578 350.546 203.514 341.53 192.332 341.53Z" fill="#E7DCB7"/>
<path d="M253.831 341.53H127.797C116.61 341.53 107.542 350.546 107.542 361.668V363.023C107.542 374.144 116.61 383.16 127.797 383.16H253.831C265.017 383.16 274.086 374.144 274.086 363.023V361.668C274.086 350.546 265.017 341.53 253.831 341.53Z" fill="#FCF5D4"/>
<path d="M248.874 505.211H128.022C121.937 505.211 117.004 510.295 117.004 516.565C117.004 522.835 121.937 527.919 128.022 527.919H248.874C254.959 527.919 259.892 522.835 259.892 516.565C259.892 510.295 254.959 505.211 248.874 505.211Z" fill="#FCF5D4"/>
<path d="M211.463 496.696C209.416 496.696 207.708 495.455 207.525 493.835L199.346 421.591C199.138 419.753 200.961 418.167 203.284 418.167C205.331 418.167 207.039 419.408 207.222 421.028L215.4 493.272C215.609 495.11 213.785 496.696 211.463 496.696Z" fill="#E7DCB7"/>
<path d="M161.452 496.696C163.339 496.696 164.869 495.455 164.982 493.835L169.989 421.591C170.117 419.753 168.381 418.167 166.238 418.167C164.35 418.167 162.82 419.408 162.707 421.028L157.7 493.272C157.573 495.11 159.309 496.696 161.452 496.696Z" fill="#E7DCB7"/>
<path d="M245.995 98.0671C246.069 51.596 208.496 13.879 162.074 13.8229C141.451 13.7965 122.552 21.2079 107.906 33.526C89.5846 48.9386 77.9223 72.0342 77.8809 97.8617L77.6893 218.171L245.801 218.378L245.995 98.0671ZM115.234 185.53L115.373 99.0716C115.396 84.5825 121.268 71.4697 130.748 61.9648C136.091 60.1413 141.823 59.1554 147.783 59.1626C176.815 59.1982 200.31 82.7839 200.263 111.845L200.146 185.634L115.234 185.53Z" fill="#FFD400"/>
<path d="M220.04 185.785L199.78 185.769L199.928 111.664C199.987 82.4785 176.452 58.8014 147.359 58.7777C141.385 58.7729 135.641 59.7653 130.287 61.5989C131.376 60.5041 132.513 59.4549 133.696 58.459C142.876 50.7199 154.722 46.0594 167.646 46.0705C196.737 46.094 220.274 69.7713 220.215 98.9567L220.04 185.785Z" fill="#E9A802"/>
<path d="M119.362 341.026L105.769 341.02L95.6251 341.014L57.5344 340.996C42.4988 340.988 30.225 328.619 30.26 313.511L30.6 166.762C30.6353 151.652 42.9673 139.296 58.003 139.303L119.821 139.334C104.789 139.332 92.4619 151.686 92.4272 166.793L92.086 313.54C92.0732 318.845 93.5783 323.811 96.1869 328.023C98.0582 331.046 100.497 333.679 103.351 335.772C107.854 339.071 113.391 341.022 119.362 341.026Z" fill="#F6BD01"/>
<path d="M204.286 340.922L197.168 340.911L160.567 340.856L119.258 340.793C113.277 340.784 107.729 338.834 103.215 335.542C100.353 333.454 97.9083 330.828 96.0308 327.814C93.4136 323.615 91.9009 318.665 91.9084 313.38L92.1021 167.163C92.1217 152.11 104.457 139.814 119.515 139.831C119.518 139.831 119.521 139.831 119.524 139.831L204.553 139.96C212.1 139.972 218.955 143.074 223.914 148.061C224.527 148.677 225.11 149.322 225.662 149.994C229.565 154.732 231.909 160.793 231.901 167.373L231.781 258.231L231.707 313.59C231.687 328.645 219.348 340.944 204.286 340.922Z" fill="#F6BD01"/>
<path d="M266.736 341.08L204.648 340.97L197.512 340.958L160.819 340.892L119.406 340.82C113.41 340.809 107.847 338.855 103.321 335.559C100.452 333.467 98.0001 330.837 96.117 327.819C93.4921 323.615 91.9744 318.659 91.9806 313.367L92.1375 166.978C92.1533 151.908 104.517 139.6 119.612 139.621C119.615 139.622 119.618 139.621 119.621 139.621L230.027 139.815L266.951 139.88C277.18 139.898 286.142 145.573 290.855 153.917C293.101 157.89 294.381 162.47 294.377 167.333L294.357 186.152L294.22 313.723C294.203 328.796 281.835 341.106 266.736 341.08Z" fill="#FEE01F"/>
</svg>
