<svg width="102" height="94" viewBox="0 0 102 94" fill="none" xmlns="http://www.w3.org/2000/svg">
<path d="M80.0053 32.0515C75.8209 20.3276 62.3999 11.9898 50.0295 13.4271L19.4048 6.67554C7.03432 8.1136 -3.23437 29.5158 0.950037 41.2396L11.4258 75.2146C15.6102 86.9385 29.0311 95.2763 41.4015 93.839L76.7715 88.3479C89.1419 86.9098 104.977 68.4036 100.793 56.6797L80.0067 32.0515H80.0053Z" fill="#F26E25"/>
<path d="M88.5148 19.0002C84.2827 7.1428 70.7083 -1.29114 58.1962 0.163065L22.9547 4.2586C10.4426 5.71281 3.7306 16.5041 7.96272 28.3615L19.8832 61.7591C24.1153 73.6165 37.6897 82.0504 50.2018 80.5962L85.4433 76.5007C97.9554 75.0465 104.667 64.2551 100.435 52.3977L88.5148 18.9995V19.0002Z" fill="#FB923C"/>
<path d="M45.8932 19.8015C45.1136 19.9732 44.8207 20.5645 45.1554 21.3041L54.3743 41.6666C51.7132 41.0782 48.8928 41.255 46.479 41.9513C41.6538 43.3439 39.9154 46.7754 41.9401 51.2496C44.9837 57.9688 52.5853 59.0774 58.0875 57.4904C62.9113 56.0986 64.6511 52.6663 62.625 48.1922L55.51 32.4762C60.7831 30.9553 67.7967 32.791 71.2808 38.9387C71.8864 40.0063 73.2967 39.8603 73.3517 38.7399C73.4075 37.6291 73.4501 35.0581 71.8923 31.6141C67.1082 21.0495 54.7179 17.8579 45.8932 19.8008V19.8015Z" fill="white"/>
</svg>
