<svg width="88" height="76" viewBox="0 0 88 76" fill="none" xmlns="http://www.w3.org/2000/svg">
<path d="M72.3658 24.0181C68.115 18.173 57.0851 15.911 47.411 18.6949L19.5604 26.7085C18.7654 25.8205 15.9074 22.8545 11.0137 22.0921C5.39859 21.2163 1.17054 23.8756 0.277344 24.4654C1.2423 30.3699 2.54242 36.7246 4.29294 43.4322C6.42018 51.5854 7.69201 58.3327 10.4858 64.8166C12.2118 68.8225 14.1625 72.5386 21.0352 74.7751C29.2893 77.4608 37.329 74.994 39.4987 74.3005C47.9256 71.6063 66.7214 66.4218 74.8867 63.0293C77.6013 61.9016 81.9728 58.8224 84.778 53.6039C89.2279 45.3299 86.4114 36.7972 85.4323 33.8322C84.5476 31.1522 83.4212 29.0667 82.561 27.6691C79.162 26.4518 75.7629 25.2345 72.3639 24.0181H72.3658Z" fill="#2FBC5E"/>
<path d="M67.4896 6.70298C63.1662 0.671055 51.8898 -1.63716 42.0599 1.21366L14.35 9.24993C4.50308 12.1055 -1.77763 19.5151 0.448754 26.1661L7.57169 47.4486C10.4571 56.0709 22.8986 60.6477 35.1551 57.0778L69.6376 47.0344C81.8676 43.472 86.9218 33.8145 81.32 25.9981L67.4887 6.70203L67.4896 6.70298Z" fill="#4ADE80"/>
<mask id="mask0_8985_10319" style="mask-type:luminance" maskUnits="userSpaceOnUse" x="13" y="8" width="63" height="49">
<path d="M13.4883 20.9243L52.1243 8.71509L75.0047 36.0692L21.8811 56.9714L13.4883 20.9243Z" fill="white"/>
</mask>
<g mask="url(#mask0_8985_10319)">
<path d="M50.502 18.9096L51.0355 17.1978C51.1988 16.6731 50.8627 16.306 50.0951 16.1588L47.1379 15.5954C46.3929 15.4529 45.7452 15.6266 45.309 16.0871L43.8946 17.579C41.9892 17.5771 39.946 17.8451 37.7895 18.4019L36.9303 16.8411L38.9282 16.1956C39.6684 15.9569 39.9253 15.5115 39.5504 15.1264L38.9055 14.464C38.5364 14.0837 37.9293 14.0044 37.1937 14.2384L30.6279 16.324C29.8688 16.5646 29.4901 16.9619 29.5647 17.446L29.695 18.2906C29.7706 18.7822 30.372 18.9577 31.1387 18.7105L33.1847 18.0499L33.9741 19.6475C31.8978 20.4761 30.1378 21.4613 28.7074 22.5767L26.2233 22.3266C25.45 22.2492 24.7796 22.5069 24.3311 23.057L22.5306 25.2661C22.0575 25.8474 22.1444 26.3268 22.7864 26.6118L24.8636 27.5366C24.1225 29.5145 24.0545 31.7189 24.8155 34.0932C27.3308 41.9407 36.191 44.8161 47.1728 40.6432C57.6702 36.6543 60.6076 29.7155 55.847 23.241C54.3968 21.2688 52.5735 19.841 50.5011 18.9087L50.502 18.9096ZM42.1592 27.8216C42.3811 28.334 42.2886 28.7568 41.8401 29.255L36.7377 34.9095C36.2647 35.4351 35.5707 35.5606 35.0004 35.2228L33.4132 34.2838C32.8609 33.9564 32.8713 33.4402 33.4321 32.9853L39.066 28.4152L35.5348 22.6494C35.295 22.2568 35.5527 21.8661 36.1872 21.6547L38.0171 21.047C38.6459 20.8385 39.1699 20.9668 39.3474 21.3763L42.1582 27.8216H42.1592Z" fill="white"/>
</g>
</svg>
