<svg width="78" height="67" viewBox="0 0 78 67" fill="none" xmlns="http://www.w3.org/2000/svg">
<path d="M12.3005 22.6896C15.7985 17.2335 25.5549 14.6286 34.362 16.6124L59.7174 22.3232C60.383 21.4862 62.7852 18.6807 67.1257 17.7405C72.1064 16.6614 76.0311 18.8195 76.8626 19.301C76.3089 24.6378 75.479 30.3951 74.2656 36.4927C72.7897 43.9037 72.0065 50.0115 69.8464 55.9635C68.5119 59.6406 66.9606 63.0698 60.9258 65.4336C53.6775 68.272 46.3496 66.4855 44.3707 65.9786C36.6847 64.0101 19.5844 60.3558 12.0956 57.7475C9.60615 56.88 5.53068 54.353 2.74399 49.8295C-1.67525 42.6555 0.397619 34.8687 1.11737 32.1631C1.76852 29.7173 2.66694 27.7911 3.36382 26.4937C6.34273 25.2251 9.32248 23.9574 12.3014 22.6888L12.3005 22.6896Z" fill="#5825E5"/>
<path d="M15.7564 6.93167C19.3094 1.30464 29.2834 -1.35527 38.2337 0.680922L63.4646 6.41966C72.4301 8.45924 78.443 14.7616 76.8002 20.8338L71.5427 40.2614C69.4131 48.132 58.5153 52.8839 47.355 50.3315L15.9546 43.1524C4.81796 40.6058 -0.215177 32.225 4.38866 24.9333L15.7564 6.93167Z" fill="#7D40FF"/>
<mask id="mask0_8985_10310" style="mask-type:luminance" maskUnits="userSpaceOnUse" x="5" y="9" width="56" height="42">
<path d="M29.1117 9.06665L60.6222 16.729L60.9059 50.1586L5.10352 35.4314L29.1117 9.06665Z" fill="white"/>
</mask>
<g mask="url(#mask0_8985_10310)">
<path d="M59.1772 25.0574C58.6691 25.3697 46.469 32.8535 45.7187 33.3164C44.9516 33.7887 44.093 33.7481 43.3393 33.1455C43.1175 32.9686 42.888 32.7985 42.6475 32.6335C41.9583 32.1604 41.8109 31.5731 42.2682 31.0128L49.773 21.828C50.055 21.4877 49.9119 21.2068 49.3344 20.9546L47.8297 20.297C47.2632 20.049 46.8813 20.0973 46.6409 20.4493L39.9354 30.092C39.5552 30.6388 38.9192 30.8046 38.1478 30.5804C37.9438 30.5211 37.7372 30.4644 37.5246 30.4103C35.1596 29.806 32.9157 29.6638 30.8318 29.9439C29.7937 30.0836 29.085 29.7205 28.8225 28.9936C28.5651 28.2818 24.4049 16.8433 24.2339 16.371C24.0671 15.9081 24.5133 15.551 25.3406 15.4672C30.9131 14.9052 36.8269 15.3699 43.054 16.9017C49.331 18.4453 54.6317 20.754 58.9273 23.7905C59.5692 24.2441 59.6759 24.7494 59.178 25.0566L59.1772 25.0574Z" fill="white"/>
</g>
</svg>
