<svg width="64" height="68" viewBox="0 0 64 68" fill="none" xmlns="http://www.w3.org/2000/svg">
<path d="M9.40369 30.5735C9.76248 21.9029 16.9709 13.5755 25.505 11.9744L44.4966 1.14563C53.0307 -0.455486 64.2984 11.67 63.9396 20.3406L63.9995 45.1273C63.6407 53.7979 56.4322 62.1252 47.8981 63.7263L23.2126 67.3854C14.6785 68.9865 0.304055 59.9399 0.662841 51.2693L9.40318 30.5735H9.40369Z" fill="#24A0D8"/>
<path d="M1.03613 23.6446C1.39901 14.8748 8.68988 6.45229 17.3212 4.83275L41.6321 0.271354C50.2634 -1.34818 56.9667 4.44807 56.6038 13.2184L55.5822 37.9196C55.2194 46.6895 47.9285 55.112 39.2967 56.7315L14.9858 61.2929C6.35444 62.9119 -0.348341 57.1156 0.0140271 48.3458L1.03562 23.6446H1.03613Z" fill="#38BDF8"/>
<mask id="mask0_8985_10292" style="mask-type:luminance" maskUnits="userSpaceOnUse" x="12" y="11" width="33" height="39">
<path d="M13.3373 17.8355L44.5941 11.9702L43.2808 43.7291L12.0234 49.5939L13.3373 17.8355Z" fill="white"/>
</mask>
<g mask="url(#mask0_8985_10292)">
<path d="M22.3741 34.7746C22.2922 35.4238 21.8444 35.8775 21.2256 35.8939C20.6672 35.9087 20.1426 35.876 19.6487 35.8039L15.244 38.0899C14.379 38.5391 13.7402 37.9866 14.0606 37.0663L15.4748 33.0022C14.9783 32.02 14.7378 30.8082 14.7971 29.3779C14.9998 24.4789 18.492 20.8066 23.9167 19.7886C28.0594 19.011 30.9235 20.2372 31.9564 23.041C32.1826 23.6553 31.8141 24.2814 31.1185 24.5203C26.2522 26.192 22.9791 29.9938 22.3746 34.7736L22.3741 34.7746ZM41.9256 39.7161L40.8272 36.121C41.4128 34.9358 41.7593 33.6155 41.8186 32.1863C42.0213 27.2872 38.7805 24.8784 33.3562 25.8959C27.932 26.9138 24.4393 30.5862 24.2366 35.4852C24.0339 40.3842 27.2748 42.793 32.699 41.7756C34.0456 41.5229 35.272 41.106 36.3596 40.5479L40.6379 41.2032C41.4793 41.3321 42.1738 40.5295 41.9251 39.7161H41.9256Z" fill="white"/>
</g>
</svg>
