<svg width="79" height="67" viewBox="0 0 79 67" fill="none" xmlns="http://www.w3.org/2000/svg">
<path d="M17.3197 23.1704C20.8489 14.91 31.2985 8.33488 40.6591 8.48426L66.8521 1.39209C73.959 3.2478 80.9622 20.2226 77.4323 28.483L68.4592 52.3114C64.93 60.5718 54.4804 67.147 45.1199 66.9976L18.3986 65.6299C9.0381 65.4805 -2.74222 49.5877 0.786941 41.3273L17.3197 23.1704Z" fill="#F26E25"/>
<path d="M11.238 14.8562C14.8078 6.50152 25.3764 -0.149021 34.8437 0.00253984L61.509 0.428941C70.9762 0.580501 75.757 7.47615 72.1872 15.8308L62.1323 39.3634C58.5625 47.7181 47.9938 54.3686 38.5266 54.2178L11.8613 53.7914C2.39408 53.6398 -2.38669 46.7442 1.18311 38.3895L11.238 14.8569V14.8562Z" fill="#FB923C"/>
<mask id="mask0_8985_10301" style="mask-type:luminance" maskUnits="userSpaceOnUse" x="11" y="9" width="50" height="33">
<path d="M25.9528 9.22388L60.0777 10.7815L48.2263 41.1858L11.0352 41.1597L25.9528 9.22388Z" fill="white"/>
</mask>
<g mask="url(#mask0_8985_10301)">
<path d="M45.3912 26.5924C45.1046 26.1356 44.4988 26.1116 43.8342 26.5337C43.1659 26.9564 42.4636 27.401 41.7917 27.8274C41.1169 28.2545 40.8992 28.8035 41.2352 29.2349C41.3854 29.4278 42.2336 30.4365 43.126 31.4938C42.4128 31.5054 41.6488 31.5105 40.9341 31.5004C36.6082 31.4373 36.1047 28.459 35.9313 25.0522C38.9569 21.7693 41.8664 18.9919 46.0479 19.1282C46.7386 19.1507 47.4642 19.1899 48.1375 19.2334C46.4549 20.1804 44.8398 21.092 44.5401 21.2675C43.8697 21.662 43.6375 22.195 43.9459 22.6352L44.887 23.9774C45.1961 24.4184 45.807 24.4234 46.4542 23.9927C47.0992 23.5634 53.7447 18.9375 54.3208 18.5539C54.8947 18.1717 55.0783 17.7062 54.8185 17.2964C54.5573 16.8867 51.7762 12.0745 51.4969 11.6358C51.2175 11.197 50.6364 11.1622 50.0015 11.5466L48.0548 12.7257C47.4127 13.1151 47.2095 13.6293 47.5353 14.0448C47.6855 14.2362 48.5554 15.2638 49.4508 16.3167C48.6868 16.2312 47.8473 16.155 47.0731 16.126C42.0406 15.9397 38.6362 18.1884 35.6614 20.989C35.2159 17.7381 33.7785 14.9549 28.0502 14.7366C27.3268 14.709 26.7013 15.0288 26.4198 15.6416L25.4802 17.6859C25.2183 18.2558 25.42 18.6757 26.0926 18.6975C30.8538 18.8512 31.5242 21.6903 31.7774 24.9528C28.6517 28.1813 25.4084 31.0428 20.4818 30.9688C19.7852 30.9587 19.1852 31.3829 18.9073 31.9877L17.8987 34.1813C17.5926 34.847 17.922 35.219 18.6874 35.2263C24.751 35.2807 28.7844 32.4119 32.1424 29.0892C32.6423 32.1124 34.0898 34.6447 39.3864 34.6977C40.2012 34.7056 41.1234 34.6672 41.9753 34.6143C40.1512 35.6919 38.3583 36.7535 38.0347 36.9537C37.3302 37.388 37.0813 37.958 37.3991 38.4163C37.7162 38.8754 38.0499 39.3561 38.3677 39.8152C38.6855 40.2742 39.3233 40.2655 40.0039 39.7934C40.6816 39.3228 47.6623 34.2647 48.2667 33.8448C48.8696 33.4264 49.0655 32.9297 48.7985 32.5018C48.5315 32.0747 45.6778 27.05 45.3912 26.5924Z" fill="white"/>
</g>
</svg>
