<svg width="94" height="79" viewBox="0 0 94 79" fill="none" xmlns="http://www.w3.org/2000/svg">
<path d="M70.5177 24.5284C65.3301 15.4899 52.3987 9.33013 41.6347 10.7712L10.4941 6.15015C2.55751 9.25105 -3.20747 29.7578 1.98009 38.7963L15.5521 65.0337C20.7396 74.0723 33.6702 80.232 44.4351 78.7909L75.0369 73.5936C85.8009 72.1525 97.2172 52.2456 92.0297 43.2062L70.5177 24.5276V24.5284Z" fill="#E54A4A"/>
<path d="M76.3965 14.1259C71.15 4.98391 58.0712 -1.24567 47.1835 0.211407L16.5185 4.31678C5.63165 5.7747 1.05854 14.3674 6.30587 23.5094L21.0832 49.2589C26.3297 58.4009 39.4093 64.6305 50.2962 63.1734L80.9603 59.0681C91.8472 57.6102 96.4203 49.0175 91.173 39.8754L76.3956 14.1259H76.3965Z" fill="#F87171"/>
<mask id="mask0_8985_10328" style="mask-type:luminance" maskUnits="userSpaceOnUse" x="20" y="10" width="64" height="42">
<path d="M20.4902 17.8596L64.207 10.3857L83.2006 43.885L35.1228 51.6869L20.4902 17.8596Z" fill="white"/>
</mask>
<g mask="url(#mask0_8985_10328)">
<path d="M73.1289 31.0161L61.5341 32.9376C60.7884 33.0612 59.987 32.6112 59.9525 32.0526C59.8987 31.1886 59.6293 30.2632 59.1234 29.2991C56.8979 25.0524 52.9746 24.9254 51.3038 21.6722C49.8813 18.9019 51.1329 16.8433 54.557 16.2612C57.9871 15.6782 61.0459 17.009 62.5585 19.7726C63.5703 21.6209 63.3784 23.1747 62.12 24.1918C68.5996 24.1548 69.9236 25.1895 73.6702 29.9385C74.107 30.4912 73.8999 30.8883 73.1272 31.0161H73.1289ZM55.7321 34.3947C57.0267 33.3397 57.2464 31.7169 56.2472 29.7778C54.754 26.8805 51.6666 25.4705 48.1743 26.056C44.6862 26.6415 43.3823 28.7843 44.7821 31.6883C45.7189 33.6316 47.3948 34.9356 49.4554 35.4336C43.9117 37.4426 43.7947 38.7659 45.224 44.1096C45.3907 44.7321 45.9521 45.0165 46.7307 44.8895L66.816 41.6068C67.603 41.4781 67.8202 41.0642 67.385 40.4821C63.6469 35.49 62.3178 34.3989 55.7313 34.3938L55.7321 34.3947ZM43.7493 34.7413C43.0035 33.9951 42.384 33.1328 41.9261 32.1645C39.9068 27.9026 43.0843 26.586 41.5061 23.3253C40.1619 20.5491 37.2268 19.2056 33.8321 19.7827C30.4408 20.359 29.1083 22.4226 30.3633 25.2063C31.2034 27.0681 32.7783 28.3131 34.7521 28.7826C29.3297 30.7326 29.1714 32.0038 30.3726 37.1229C30.5123 37.7185 31.0443 37.9894 31.801 37.864L43.2325 35.9695C43.9724 35.8467 44.2324 35.2233 43.7493 34.7413Z" fill="white"/>
</g>
</svg>
