<svg width="346" height="294" viewBox="0 0 346 294" fill="none" xmlns="http://www.w3.org/2000/svg">
<style>
  .wiz-hat {
    transform-origin: 226px 129px;
    animation: wizHatBob 3.4s ease-in-out infinite;
  }

  .wiz-arm-left {
    transform-origin: 89px 124px;
    animation: wizArmLeft 4.2s ease-in-out infinite;
  }

  .wiz-arm-right {
    transform-origin: 232px 181px;
    animation: wizArmRight 3.8s ease-in-out infinite;
  }

  @keyframes wizHatBob {
    0%, 100% { transform: rotate(-1deg) translateY(0px); }
    50% { transform: rotate(2deg) translateY(-2px); }
  }

  @keyframes wizArmLeft {
    0%, 100% { transform: rotate(0deg); }
    50% { transform: rotate(2.2deg); }
  }

  @keyframes wizArmRight {
    0%, 100% { transform: rotate(0deg); }
    50% { transform: rotate(-2.4deg); }
  }
</style>
<g class="wiz-arm-left">
<path d="M78.9958 111.006C78.9958 111.006 69.9519 96.6433 69.49 94.9299C69.0281 93.2313 70.6223 84.694 66.8081 84.2768C62.9938 83.8596 59.4627 90.9368 59.4627 90.9368C59.4627 90.9368 50.0015 84.3215 44.4739 87.1673C41.941 89.3426 47.0515 95.0193 47.0515 95.0193C47.0515 95.0193 38.678 91.8159 34.6402 95.6897C33.4483 98.7441 40.8384 103.601 40.8384 103.601C40.8384 103.601 31.6454 103.855 30.8707 108.771C30.6174 112.079 36.9198 111.155 41.8814 115.133C46.8429 119.112 52.4301 131.21 52.7132 131.21C52.9963 131.21 78.9958 111.006 78.9958 111.006Z" fill="#96DE0D"/>
<path d="M47.2148 106.328C47.2148 106.328 53.264 102.99 58.2255 107.683" stroke="#62B700" stroke-width="1.37075" stroke-linecap="round" stroke-linejoin="round"/>
<path d="M41.4043 105.866C41.4043 105.866 44.3544 96.7177 52.7279 93.7676" stroke="#62B700" stroke-width="1.37075" stroke-linecap="round" stroke-linejoin="round"/>
<path d="M89.2032 124.326C89.2032 124.326 84.8973 107.609 83.1093 107.281C81.3214 106.954 59.6576 110.857 42.2998 128.007C24.942 145.156 23.0498 159.668 24.1076 163.348C25.1655 167.028 27.6835 168.816 57.5568 173.241C73.7525 170.723 75.749 138.108 89.2181 124.341L89.2032 124.326Z" fill="#7D40FF"/>
</g>
<g class="wiz-hat">
<path d="M226.049 128.899C226.049 128.899 251.468 66.5893 252.258 65.7997C252.839 65.2186 265.876 58.4543 272.789 54.8784C274.234 54.1334 273.951 52.0028 272.357 51.6452C263.879 49.7828 246.089 46.1175 237.999 46.2367C227.167 46.4006 154.994 67.8558 154.994 67.8558L226.035 128.914L226.049 128.899Z" fill="#B070F7"/>
</g>
<path d="M250.154 191.867C276.121 156.073 257.967 98.6139 209.605 63.5283C161.242 28.4426 100.986 29.0166 75.0184 64.8104C49.0509 100.604 67.2054 158.063 115.568 193.149C163.93 228.235 224.186 227.661 250.154 191.867Z" fill="#6820B9"/>
<path d="M43.0333 266C19.4333 257.2 13.9995 245.833 14.4995 241L19.533 238C37.1998 251 66.6333 274.8 43.0333 266Z" fill="#3B1465"/>
<path d="M244.386 156.509C236.206 181.912 215.004 188.304 198.019 178.47C197.557 166.268 205.722 157 217.224 153.916C228.726 150.832 244.386 156.524 244.386 156.524V156.509Z" fill="#132431"/>
<path d="M196.474 251.911L183.909 293.055H150.453L154.165 260.222C154.165 260.222 185.941 249.116 196.474 251.911Z" fill="#96DE0D"/>
<path d="M159.678 280.635C159.678 280.635 156.817 284.152 157.25 288.115C157.637 291.676 159.484 293.464 165.251 293.464H192.695C192.695 293.464 196.107 293.464 196.092 289.769C196.092 286.282 190.788 283.809 185.976 281.485C181.163 279.16 165.161 274.72 159.678 280.635Z" fill="#96DE0D"/>
<path d="M191.786 266.727L151.338 291.284L153.336 267.689L194.704 257.654L191.786 266.727Z" fill="#62B700"/>
<path d="M26.3707 293.294H47.395L63.432 269.727L29.4206 249.929L13.8711 287.165L26.3707 293.294Z" fill="#96DE0D"/>
<path d="M35.565 278.49C35.565 278.49 39.2898 284.166 38.8577 288.13C38.4704 291.691 36.6228 293.479 30.8568 293.479H3.39712C3.39712 293.479 -0.0148508 293.479 4.86556e-05 289.783C4.86556e-05 286.297 7.24117 281.753 12.0537 279.443C16.8662 277.119 28.8006 270.608 34.2985 276.523L35.565 278.49Z" fill="#96DE0D"/>
<path d="M25 260.81C25 260.81 35.677 278.942 50.7242 289L62 273.613L30.5 246.5L25.0127 260.81H25Z" fill="#62B700"/>
<path d="M195.318 203.204L185.544 231.856C185.544 231.856 196.585 230.872 199.848 238.128C203.111 245.384 203.632 258.958 203.319 260.746C203.007 262.534 197.747 263.159 189.746 264.53C181.76 265.901 171.867 269.998 146.106 280.517C120.345 291.036 94.2557 292.407 69.1204 284.406C51.1253 278.689 34.5772 256.069 24.5 245C20.5015 240.608 14.4881 241.826 14.4246 240.87C14.2011 237.503 64.278 185.131 64.278 185.131C64.278 185.131 83.6324 211.533 129.269 210.892C174.921 210.266 195.318 203.219 195.318 203.219V203.204Z" fill="#7D40FF"/>
<g class="wiz-arm-right">
<path d="M231.529 180.398C231.529 180.398 242.406 176.375 246.98 200.11C251.554 223.86 251.435 242.499 248.991 251.722C246.548 260.944 242.868 262.494 242.868 262.494C242.868 262.494 234.718 265.697 225.957 249.516C217.196 233.351 216.57 221.118 218.537 203.447C220.504 185.777 228.028 181.307 231.529 180.383V180.398Z" fill="#3B1465"/>
<path d="M234.393 183.274C234.393 183.274 237.701 178.074 242.483 177.12C247.266 176.167 249.352 177.195 251.825 175.898C254.313 174.602 256.802 172.471 259.484 175.034C262.165 177.597 259.856 181.426 253.896 184.659C247.936 187.892 254.567 200.393 254.567 200.393C254.567 200.393 257.204 201.108 258.828 202.881C260.452 204.654 258.947 208.603 255.476 208.915C252.004 209.228 245.106 207.381 245.106 207.381L221.475 218.66C221.475 218.66 214.845 212.819 218.078 200.482C221.311 188.131 227.39 184.078 227.39 184.078L234.408 183.288L234.393 183.274Z" fill="#96DE0D"/>
<path d="M228.979 184.283C228.979 184.283 228.592 200.062 231.378 214.261L219.488 220.25C219.488 220.25 218.028 200.419 220.159 192.88C222.289 185.341 225.805 184 225.805 184L228.979 184.268V184.283Z" fill="#62B700"/>
<path d="M312.958 150.137C312.958 150.137 243.78 198.963 242.365 198.963C240.949 198.963 237.478 195.327 238.506 193.36C239.534 191.394 310.202 147.381 310.202 147.381L312.958 150.137Z" fill="#132431"/>
<path d="M324.639 127.028C324.639 127.028 342.787 122.529 345.066 127.505C347.346 132.482 336.782 145.101 336.782 145.101C336.782 145.101 341.907 156.306 339.226 159.464C336.544 162.623 324.639 157.885 324.639 157.885C324.639 157.885 316.429 171.92 311.066 169.79C305.702 167.659 306.968 151.568 306.968 151.568C306.968 151.568 292.143 141.868 293.32 137.205C294.498 132.556 307.594 131.915 307.594 131.915C307.594 131.915 307.982 119.34 313.032 118.119C318.426 116.793 324.624 127.028 324.624 127.028H324.639Z" fill="#FFD433"/>
<path d="M254.908 182.35C254.908 182.35 260.436 182.842 261.434 185.687C262.432 188.533 260.317 192.616 257.396 192.78C259.736 195.059 257.635 200.81 254.074 200.065C250.513 199.32 246.862 199.082 246.788 195.029C246.714 190.977 251.332 190.634 251.332 190.634C251.332 190.634 248.65 188.34 250.17 185.315C251.69 182.29 254.908 182.35 254.908 182.35Z" fill="#96DE0D"/>
<path d="M255.341 182.365C255.341 182.365 250.886 182.007 250.022 185.881C249.157 189.74 252.271 192.198 257.903 192.75" stroke="#62B700" stroke-width="1.38565" stroke-linecap="round" stroke-linejoin="round"/>
<path d="M252.031 190.932C252.031 190.932 248.247 190.336 247.249 193.763C246.25 197.19 247.8 199.44 254.907 200.155" stroke="#62B700" stroke-width="1.38565" stroke-linecap="round" stroke-linejoin="round"/>
<path d="M231.534 180.398C231.534 180.398 224.695 182.499 225.753 209.213C226.811 235.928 231.638 262.851 243.945 261.689C238.268 266.636 229.224 262.345 216.813 252.079C204.402 241.813 178 214.994 178 214.994C178 214.994 181.889 199.603 195.462 191.2C209.036 182.811 231.534 180.383 231.534 180.383V180.398Z" fill="#7D40FF"/>
</g>
<path d="M56.4844 194.339C56.4844 194.339 58.4958 227.281 93.3009 238.962C128.106 250.643 165.027 233.286 183.964 211.145C200.368 191.955 212.377 181.838 212.377 181.838C212.377 181.838 178.6 212.575 124.649 212.784C70.6984 212.993 56.4844 194.353 56.4844 194.353V194.339Z" fill="#5825E5"/>
<path d="M85.3313 131.135C85.3313 131.135 77.1217 148.567 87.6258 170.023C98.115 191.478 129.121 196.365 149.697 192.267C170.288 188.17 190.477 176.28 205.942 172.973C221.408 169.665 227.084 171.825 227.084 171.825C227.084 171.825 209.801 181.451 192.13 198.972C174.46 216.494 136.734 242.747 96.8634 232.764C56.9926 222.782 45.52 179.335 59.5255 151.145C74.1716 121.674 89.1902 124.326 89.1902 124.326L85.3313 131.135Z" fill="#B070F7"/>
<path d="M86.774 128.006C86.774 128.006 71.5318 147.093 74.5862 176.653C77.4767 204.619 101.286 220.979 126.436 213.618" stroke="#5825E5" stroke-width="2.23491" stroke-linecap="round" stroke-linejoin="round"/>
<path d="M53.832 234.12C53.832 234.12 60.805 262.206 89.2033 267.361C117.602 272.516 144.629 254.637 144.629 254.637" stroke="#5825E5" stroke-width="2.23491" stroke-linecap="round" stroke-linejoin="round"/>
<path d="M168.662 239.231C168.662 239.231 178.66 231.498 187.331 231.87" stroke="#5825E5" stroke-width="2.23491" stroke-linecap="round" stroke-linejoin="round"/>
<path d="M96.1786 103.528C96.1786 103.528 79.4317 131.002 75.0215 150.163C70.6261 169.323 77.6289 205.469 141.652 192.909C205.66 180.364 214.659 154.394 214.659 154.394C214.659 154.394 202.412 113.793 161.185 98.1637C119.958 82.5491 96.1935 103.528 96.1935 103.528H96.1786Z" fill="#96DE0D"/>
<path d="M96.177 103.528C96.177 103.528 122.758 88.3302 159.44 107.953C202.514 130.987 211.23 172.735 211.23 172.735C211.23 172.735 217.965 162.961 218.904 157.598C219.857 152.234 207.118 112.899 168.32 92.8149C132.442 74.2353 109.631 85.246 109.631 85.246C109.631 85.246 101.749 92.3977 96.1621 103.542L96.177 103.528Z" fill="#132431"/>
<path d="M127.303 126.145C127.303 126.145 141.547 119.321 161.646 123.254C181.73 127.188 186.737 140.136 186.737 140.136C186.737 140.136 200.667 141.76 207.193 153.709C213.719 165.643 212.617 172.616 212.617 172.616C212.617 172.616 199.788 173.138 193.739 179.023C187.69 184.908 180.807 203.577 148.266 202.624C135.855 215.974 113.744 222.649 90.6203 214.648C67.4964 206.661 65.5297 186.83 67.3772 173.361C55.1746 159.222 59.4358 129.453 83.0514 124.297C91.7825 110.62 115.175 111.365 127.333 126.145H127.303Z" fill="white"/>
<path d="M87.9682 183.269C87.9682 183.269 84.9734 186.234 85.3608 190.018" stroke="#BFDADD" stroke-width="2.6074" stroke-linecap="round" stroke-linejoin="round"/>
<path d="M91.3651 188.678C91.3651 188.678 90.3371 191.643 91.3651 194.548" stroke="#BFDADD" stroke-width="2.6074" stroke-linecap="round" stroke-linejoin="round"/>
<path d="M152.139 187.844C152.139 187.844 152.497 192.03 151.305 194.191" stroke="#BFDADD" stroke-width="2.6074" stroke-linecap="round" stroke-linejoin="round"/>
<path d="M194.768 155.989C194.768 155.989 197.092 159.698 195.557 165.018" stroke="#BFDADD" stroke-width="2.6074" stroke-linecap="round" stroke-linejoin="round"/>
<path d="M191.22 162.365C191.22 162.365 191.101 164.541 189.521 167.014" stroke="#BFDADD" stroke-width="2.6074" stroke-linecap="round" stroke-linejoin="round"/>
<path d="M75.6155 138.973C75.6155 138.973 74.1106 141.268 74.4831 144.858" stroke="#BFDADD" stroke-width="2.6074" stroke-linecap="round" stroke-linejoin="round"/>
<path d="M195.259 142.772C195.259 142.772 199.132 143.696 201.874 143.398C204.615 143.1 205.509 141.521 206.463 141.7C207.417 141.878 208.251 142.996 206.627 145.097C204.988 147.183 201.993 147.957 198.015 146.721C194.037 145.484 195.274 142.787 195.274 142.787L195.259 142.772Z" fill="white"/>
<path d="M188.182 184.699C188.182 184.699 186.662 188.38 186.513 191.121C186.364 193.877 187.78 194.995 187.452 195.934C187.124 196.872 185.887 197.498 184.085 195.546C182.282 193.594 181.999 190.51 183.861 186.785C185.723 183.06 188.182 184.699 188.182 184.699Z" fill="white"/>
<path d="M185.379 188.037C185.379 188.037 182.638 190.928 181.52 193.446C180.403 195.964 181.327 197.528 180.686 198.273C180.045 199.018 178.66 199.167 177.676 196.709C176.693 194.25 177.527 191.27 180.597 188.44C183.666 185.624 185.379 188.037 185.379 188.037Z" fill="white"/>
<path d="M148.835 202.192C148.835 202.192 146.51 205.425 145.736 208.062C144.961 210.699 146.078 212.129 145.542 212.949C145.005 213.768 143.65 214.111 142.353 211.802C141.042 209.492 141.474 206.423 144.156 203.22C146.838 200.016 148.835 202.192 148.835 202.192Z" fill="white"/>
<path d="M62.6252 150.297C62.6252 150.297 59.7794 153.068 57.2763 154.23C54.7732 155.392 53.1939 154.484 52.4638 155.139C51.7338 155.795 51.5997 157.18 54.073 158.134C56.5463 159.088 59.5113 158.208 62.2975 155.094C65.0836 151.981 62.6252 150.312 62.6252 150.312V150.297Z" fill="white"/>
<path d="M80.2344 208.926C80.2344 208.926 82.0223 212.487 82.365 215.214C82.7077 217.94 81.3816 219.177 81.769 220.071C82.1564 220.965 83.4527 221.516 85.1065 219.445C86.7603 217.374 86.8199 214.275 84.7042 210.684C82.5736 207.094 80.2493 208.911 80.2493 208.911L80.2344 208.926Z" fill="white"/>
<path d="M84.0957 211.816C84.0957 211.816 87.0756 214.454 88.4165 216.867C89.7575 219.281 88.9678 220.92 89.6681 221.605C90.3684 222.291 91.7689 222.321 92.5288 219.788C93.2886 217.255 92.201 214.349 88.8933 211.816C85.5856 209.269 84.0957 211.831 84.0957 211.831V211.816Z" fill="white"/>
<path d="M61.2979 152.681C61.2979 152.681 60.6871 156.614 59.361 159.028C58.0499 161.457 56.247 161.68 56.0533 162.634C55.8597 163.587 56.5748 164.794 59.1375 164.064C61.7002 163.334 63.5478 160.861 63.9053 156.704C64.2629 152.547 61.2979 152.666 61.2979 152.666V152.681Z" fill="white"/>
<path d="M197.614 145.112C197.614 145.112 201.026 147.168 203.723 147.719C206.419 148.27 207.745 147.049 208.61 147.511C209.474 147.973 209.921 149.299 207.73 150.789C205.54 152.278 202.441 152.1 199.029 149.701C195.617 147.302 197.614 145.112 197.614 145.112Z" fill="white"/>
<path d="M154.749 112.944C154.749 112.944 163.272 114.077 166.311 114.732C169.351 115.388 170.721 114.911 170.885 113.466C171.049 112.02 164.896 105.48 158.787 104.526C152.678 103.572 150.086 108.787 150.011 110.709C149.937 112.631 152.797 112.676 154.749 112.944Z" fill="white"/>
<path d="M111.391 101.754C111.391 101.754 115.191 100.011 121.806 99.7429C128.422 99.4747 129.569 99.1022 129.897 96.912C130.224 94.7218 124.667 89.7453 120.018 90.3711C115.37 90.9969 109.484 96.912 108.441 98.9383C107.205 101.337 109.44 102.365 111.391 101.754Z" fill="white"/>
<path d="M161.839 120.453C162.45 118.531 161.556 116.535 159.842 115.983C158.129 115.432 156.237 116.549 155.626 118.471C155.015 120.394 155.909 122.39 157.622 122.941C159.336 123.493 161.228 122.375 161.839 120.453Z" fill="#132431"/>
<path d="M119.2 112.557C119.811 110.635 118.917 108.638 117.204 108.087C115.49 107.536 113.598 108.653 112.987 110.575C112.376 112.497 113.27 114.494 114.984 115.045C116.697 115.596 118.589 114.479 119.2 112.557Z" fill="#132431"/>
<path d="M103.48 125.191C103.48 125.191 111.317 132.969 131.357 132.716C151.396 132.462 156.805 128.514 163.748 130.138C170.691 131.762 172.792 141.342 167.056 150.804C161.319 160.265 140.505 178.785 116.308 176.937C92.1115 175.09 97.3992 158.186 99.5 149.5C101.601 140.814 94.406 132.492 94.7189 127.844C95.0318 123.195 99.3824 121.645 103.48 125.191Z" fill="#132431"/>
<mask id="mask0_8985_10352" style="mask-type:luminance" maskUnits="userSpaceOnUse" x="94" y="123" width="77" height="55">
<path d="M103.48 125.191C103.48 125.191 111.317 132.969 131.357 132.716C151.396 132.462 156.805 128.514 163.748 130.138C170.691 131.762 172.792 141.342 167.056 150.804C161.319 160.265 140.505 178.785 116.308 176.937C92.1115 175.09 97.3992 159.186 99.5 150.5C101.601 141.814 94.406 132.492 94.7189 127.844C95.0318 123.195 99.3824 121.645 103.48 125.191Z" fill="white"/>
</mask>
<g mask="url(#mask0_8985_10352)">
<path d="M106.013 154.101C108.5 153.5 115.513 153.101 115.474 157.394C108.264 169.388 106.803 170.729 106.609 170.967C106.415 171.206 102.631 169.701 100.769 166.9C98.9063 164.099 101.014 160.101 101.014 160.101C101.014 160.101 103.527 154.702 106.013 154.101Z" fill="#BFDADD"/>
<path d="M98.0133 159.368C100.5 158.767 107.513 158.368 107.474 162.661C100.264 174.655 98.8029 175.996 98.6092 176.234C98.4155 176.473 94.6309 174.968 92.7686 172.167C90.9063 169.366 93.0137 165.368 93.0137 165.368C93.0137 165.368 95.5265 159.969 98.0133 159.368Z" fill="#BFDADD"/>
<path d="M103.229 167.416C103.229 167.416 106.223 156.003 125.473 154.275C144.723 152.547 151.458 163.796 151.458 163.796C151.458 163.796 127.053 176.311 103.243 167.431L103.229 167.416Z" fill="#F3898A"/>
<path d="M94.3899 169.517C94.3899 169.517 100.171 163.423 100.797 164.258C101.422 165.092 110.973 169.89 128.033 167.729C144.601 165.628 150.382 162.097 151.172 162.261C151.961 162.425 153.228 164.675 153.913 168.996C154.598 173.302 140.667 183.24 119.525 181.034C98.3829 178.829 94.3899 169.517 94.3899 169.517C94.3899 169.517 87.762 171.518 92.5 169L94.3899 169.517Z" fill="white"/>
<path d="M98.5 165.5C98.5 165.5 101.484 174.374 116.443 175.492C136.453 176.996 152.544 164.034 152.544 164.034C152.544 164.034 154.809 167.193 154.377 170.411C153.945 173.629 149.49 185.251 122.001 183.165C94.5111 181.079 93.0957 169.398 93.0957 169.398L98.5 165.5Z" fill="#BFDADD"/>
<path d="M103.031 120.722C103.031 120.722 102.48 127.873 103.374 131.822C104.268 135.77 110.362 144.233 133.605 142.713C156.848 141.193 162.838 131.032 164.059 128.887C165.281 126.741 103.031 120.737 103.031 120.737V120.722Z" fill="white"/>
<path d="M102.853 126.19C102.853 126.19 108.172 132.909 125.083 134.34C141.994 135.77 153.973 132.06 156.759 131.658C159.545 131.255 162.406 131.3 162.406 131.3C162.406 131.3 163.896 129.617 164.089 128.305C164.283 126.994 102.436 119.843 102.436 119.843L102.853 126.205V126.19Z" fill="#BFDADD"/>
</g>
</svg>
