<svg width="193" height="202" viewBox="0 0 193 202" fill="none" xmlns="http://www.w3.org/2000/svg">
<path d="M191.983 46.2954C171.312 70.3177 150.642 94.3388 129.971 118.361C106.24 145.94 82.5081 173.517 58.7757 201.096L17.4934 201.048C11.5157 201.04 5.97198 199.09 1.46226 195.797C0.511034 192.999 -0.00486015 190.004 -6.30517e-05 186.892L0.0117182 180.002C40.266 123.338 80.5206 66.6721 120.774 10.0062C121.231 9.36206 121.688 8.71943 122.145 8.07531C124.057 5.38295 125.97 2.69236 127.882 -6.64105e-06L164.69 0.0438077C174.886 0.0565888 183.817 5.7251 188.511 14.066C190.747 18.0372 192.021 22.6153 192.013 27.4779L191.983 46.2954Z" fill="#FEE01F"/>
</svg>
