<svg width="18" height="18" viewBox="0 0 18 18" fill="none" xmlns="http://www.w3.org/2000/svg">
<path d="M9.72459 0.428913L12.3831 5.28891C12.459 5.42829 12.5738 5.54102 12.7111 5.61686L17.5711 8.27541C18.143 8.58903 18.143 9.41097 17.5711 9.72459L12.7111 12.3831C12.5717 12.459 12.459 12.5738 12.3831 12.7111L9.72459 17.5711C9.41097 18.143 8.58902 18.143 8.27541 17.5711L5.61686 12.7111C5.54102 12.5717 5.42624 12.459 5.2889 12.3831L0.428913 9.72459C-0.142971 9.41097 -0.142971 8.58903 0.428913 8.27541L5.2889 5.61686C5.42828 5.54102 5.54102 5.42624 5.61686 5.28891L8.27541 0.428913C8.58902 -0.142971 9.41097 -0.142971 9.72459 0.428913Z" fill="#BFDADD"/>
</svg>
