<svg width="61" height="74" viewBox="0 0 61 74" fill="none" xmlns="http://www.w3.org/2000/svg">
<path d="M42.756 26.5996C35.8978 15.479 36.4945 4.44548 36.9305 0.469325L37.0157 0.00541314C36.9975 0.0794121 36.9761 0.162113 36.9565 0.243595C36.9656 0.160185 36.9765 0.075558 36.9858 -9.33514e-05L36.9005 0.463819C35.8949 4.33533 32.5309 14.8605 22.168 22.8173C13.1549 29.7366 3.77755 30.9284 0.00023977 31.2029C3.43185 32.8018 11.7748 37.249 17.7401 46.92C24.5983 58.0406 24.0016 69.0741 23.5656 73.0502L23.4804 73.5141C23.4986 73.4401 23.52 73.3574 23.5396 73.2759C23.5305 73.3594 23.5196 73.444 23.5103 73.5196L23.5956 73.0557C24.6012 69.1842 27.9652 58.6591 38.3281 50.7022C47.3412 43.783 56.7185 42.5911 60.4959 42.3166C57.0643 40.7178 48.7213 36.2705 42.756 26.5996Z" fill="white"/>
</svg>
