<svg width="62" height="75" viewBox="0 0 62 75" fill="none" xmlns="http://www.w3.org/2000/svg">
<path d="M41.2202 25.1192C32.4656 15.4209 31.0588 4.46117 30.7692 0.471676V0C30.7647 0.0760773 30.7586 0.161282 30.754 0.244967C30.7479 0.161282 30.7433 0.0760773 30.7387 0V0.471676C30.4492 4.46117 29.0424 15.4209 20.2877 25.1192C12.6732 33.5532 3.66554 36.4197 0 37.3722C3.66402 38.3247 12.6732 41.1913 20.2877 49.6252C29.0424 59.3236 30.4492 70.2833 30.7387 74.2728V74.7445C30.7433 74.6684 30.7494 74.5832 30.754 74.4995C30.7601 74.5832 30.7647 74.6684 30.7692 74.7445V74.2728C31.0588 70.2833 32.4656 59.3236 41.2202 49.6252C48.8348 41.1913 57.8425 38.3247 61.508 37.3722C57.844 36.4197 48.8348 33.5532 41.2202 25.1192Z" fill="#E7DCB7"/>
</svg>
