<svg width="326" height="323" viewBox="0 0 326 323" fill="none" xmlns="http://www.w3.org/2000/svg">
<path d="M250.385 244.945C250.385 244.945 259.896 251.42 263.628 252.919C266.687 254.146 267.684 243.201 260.517 233.689C260.517 233.689 244.567 235.453 250.385 244.945Z" fill="url(#paint0_linear_9010_10026)"/>
<path d="M259.367 239.571C259.367 239.571 269.549 244.933 273.425 246.001C276.602 246.875 276.358 235.888 268.164 227.244C268.164 227.244 252.513 230.795 259.367 239.571Z" fill="url(#paint1_linear_9010_10026)"/>
<path d="M265.494 231.117C265.494 231.117 276.101 232.317 280.091 231.792C280.233 231.773 281.36 231.522 281.542 231.318C282.797 229.925 277.95 222.541 271.883 217.865C269.117 215.735 266.47 214.451 264.572 213.679C261.086 217.993 260.04 223.297 262.047 227.301C262.948 229.103 264.307 230.321 265.497 231.117L265.494 231.117Z" fill="url(#paint2_linear_9010_10026)"/>
<path d="M246.649 212.142C246.793 212.076 247.018 211.974 247.311 211.842C247.405 211.798 247.508 211.753 247.617 211.703C251.237 210.078 262.305 205.233 266.308 205.057C266.505 205.048 266.873 205.065 267.205 205.29C268.589 206.23 267.801 210.096 265.598 214.04C265.586 214.061 265.577 214.081 265.565 214.102C264.521 215.957 263.163 217.83 261.574 219.418C261.554 219.437 261.537 219.456 261.516 219.473C259.048 221.921 256.36 223.355 254.442 224.186C250.077 223.325 246.769 220.446 246.075 216.898C245.943 216.218 245.917 215.57 245.958 214.967C246.035 213.808 246.362 212.825 246.649 212.142Z" fill="url(#paint3_linear_9010_10026)"/>
<path d="M189.502 212.953L219.489 212.377L247.309 211.842L247.551 211.837L261.397 211.571L265.596 214.041L266.216 214.404L270.1 216.687L268.675 227.803L268.523 228.993L266.704 231.245L262.418 236.558L261.428 237.783L259.585 239.688L253.713 245.762L252.441 246.32L217.418 261.693L204.105 267.538L188.792 274.259L189.502 212.953Z" fill="url(#paint4_linear_9010_10026)"/>
<path d="M204.997 213.01L228.996 212.008C230.998 216.512 224.361 237.837 223.498 239.512C211.311 263.284 211.286 259.326 205 267.515L187.774 274.317L204.997 213.01Z" fill="#C60C35"/>
<path d="M45.9517 312.277C52.9996 305.522 60.0194 307.568 65.4257 313.21C70.8319 318.852 72.582 325.951 65.5341 332.706C58.4862 339.462 40.0855 342.417 37.7336 339.753C31.552 332.754 38.9047 319.03 45.9517 312.277Z" fill="#C60C35"/>
<path d="M121.721 323.108C121.721 323.108 102.13 368.019 85.1825 366.994C63.5602 365.686 49.8602 313.285 49.8602 313.285L121.721 323.108Z" fill="#DD3A51"/>
<path d="M185.05 151.159C185.059 143.687 189.605 135.279 195.647 133.445C196.476 133.194 199.306 133.115 204.966 132.956C210.816 132.792 212.352 132.944 214.737 132.139C218.107 131.004 220.07 128.912 221.81 127.185C229.796 119.256 235.551 113.541 239.268 114.205C245.493 115.314 251.152 135.213 244.524 151.451C243.712 153.439 238.366 165.974 224.681 171.672C221.535 172.983 212.525 176.649 202.54 172.965C194.486 169.993 185.034 161.947 185.048 151.158L185.05 151.159Z" fill="#904EE9"/>
<path d="M201.364 174.358C203.895 160.313 215.55 150.657 227.398 152.792C239.245 154.927 246.798 168.043 244.267 182.089C241.736 196.134 230.081 205.79 218.233 203.655C206.386 201.52 198.833 188.404 201.364 174.358Z" fill="#F97600"/>
<path d="M-101.385 305.349C-88.6089 284.097 -68.873 263.908 -57.455 251.972C-43.6448 237.536 -30.9541 227.388 -19.302 218.746C-16.3998 216.592 -13.5616 214.534 -10.788 212.522C-10.234 212.122 -9.68162 211.726 -9.12927 211.331L-29.5019 201.662C-32.9775 202.609 -38.7987 203.968 -42.1967 203.475C-42.399 203.445 -42.7631 203.384 -43.0538 203.125C-44.4584 201.859 -42.6048 197.268 -39.1361 193.277L-41.0503 190.336L-40.9804 190.23C-41.3413 189.61 -41.6933 188.951 -42.0332 188.251C-45.379 181.359 -46.422 172.588 -44.6781 171.901C-44.4236 171.801 -43.3016 172.081 -43.1687 172.126C-41.3283 172.758 -38.2837 174.443 -35.6299 176.014C-36.5125 167.159 -32.9144 160.544 -30.867 162.38C-29.3736 163.718 -26.9539 166.713 -24.9034 169.378C-23.791 162.846 -20.5355 158.847 -19.0143 160.56C-17.0709 162.744 -13.5721 168.639 -11.8051 171.7L48.5988 174.646L53.0028 168.607L64.4175 152.956L69.6512 145.778C72.4312 129.506 75.2121 113.232 77.9921 96.9599C72.4272 90.6991 66.8599 84.4375 61.295 78.1768C64.482 76.1193 73.2313 71.0724 85.2379 71.5908C87.3207 71.6808 89.2802 71.9289 91.0961 72.28C92.8331 72.6135 94.4417 73.0447 95.9114 73.5218L95.9184 73.5243L103.906 77.0962C98.6225 65.4754 86.2874 50.1236 87.625 47.1408C89.7893 42.3158 120.488 40.7801 150.211 56.8298C168.384 66.6435 179.721 79.6123 185.814 87.8583L185.807 87.8343C185.703 87.5012 184.801 84.6279 183.798 80.9354C181.766 73.434 179.324 62.5591 182.316 62.7493C186.794 63.0309 197.246 71.7524 205.721 81.0271C235.727 113.855 236.263 170.65 221.133 217.626C219.952 221.292 219.008 223.84 218.716 224.617C207.294 255.176 182.62 291.481 150.468 312.749C132.12 324.89 111.335 332.133 89.1857 330.61C47.6945 327.756 19.1882 295.368 9.08553 282.531L9.05452 282.536L-54.4858 291.535C-54.3021 293.924 -54.2333 298.65 -57.9301 303.351C-59.4006 305.22 -60.7813 306.595 -70.9393 306.937C-75.7496 307.099 -90.9123 312.386 -98.7472 311.096C-101.411 310.659 -102.781 307.663 -101.39 305.349L-101.385 305.349Z" fill="url(#paint5_linear_9010_10026)"/>
<path d="M183.803 80.9345C184.805 84.627 185.708 87.5003 185.812 87.8334L185.819 87.8574L185.822 87.8638L192.755 96.7469C192.755 96.7469 191.022 88.2048 183.803 80.9345Z" fill="#E85503"/>
<path d="M95.9243 73.5233L103.912 77.0951C102.138 76.0637 99.424 74.6602 95.9243 73.5233Z" fill="#F97600"/>
<path d="M91.1016 72.2791L109.241 87.4459L103.912 77.0953L95.924 73.5234L95.9169 73.5209C94.4473 73.0437 92.8386 72.6125 91.1016 72.2791Z" fill="#E85503"/>
<path d="M-19.2994 218.743L13.452 220.69L-9.01247 211.291C-10.8809 212.599 -16.3972 216.588 -19.2994 218.743Z" fill="#C60C35"/>
<path d="M53.0077 168.606C56.4651 167.828 60.5791 166.602 65.0189 164.624C70.0828 162.369 74.1267 159.781 77.1572 157.528L64.4224 152.955L53.0077 168.606Z" fill="#E85503"/>
<path d="M100.511 113.289C96.0322 123.106 84.0882 126.486 75.528 125.836C70.3395 125.441 66.0944 123.546 62.8412 121.419C59.4387 119.195 57.1173 116.721 55.935 115.444C45.8649 104.563 46.2231 90.9401 46.3137 88.7962C46.3202 88.6148 46.3299 88.4318 46.3412 88.252C47.3281 70.95 60.5426 55.5537 66.6003 57.1191C70.2543 58.0637 73.1089 65.6554 77.0679 76.1877C77.4519 77.2101 77.8476 78.3192 78.3996 79.4524C79.0819 80.8536 80.0028 82.2872 81.4365 83.6359C83.2731 85.361 84.7311 85.8633 89.9834 88.4474C90.6335 88.7661 91.2396 89.0664 91.8073 89.3475C95.6825 91.256 97.6861 92.2712 98.2495 92.7719C102.98 96.9563 103.613 106.491 100.511 113.289Z" fill="#9344EF"/>
<path d="M80.4165 111.158C77.8946 113.603 71.0014 120.292 62.842 121.419C59.4396 119.195 57.1182 116.721 55.9359 115.443C45.8658 104.563 46.2239 90.94 46.3146 88.7961C46.3211 88.6147 46.3308 88.4317 46.3421 88.2519C47.7473 89.0789 49.3126 89.7796 51.0485 90.2644C60.0709 92.78 70.8815 88.6546 78.4005 79.4524C79.0828 80.8535 80.0037 82.2871 81.4374 83.6358C83.274 85.3609 84.732 85.8632 89.9843 88.4474C90.6344 88.7661 91.2405 89.0663 91.8082 89.3474C90.855 94.5088 88.2143 103.59 80.4165 111.158Z" fill="#A972F7"/>
<path d="M83.1003 154.335C82.2263 154.958 72.9578 161.34 61.5761 158.718C48.9024 155.799 39.0753 142.973 38.3007 127.023C36.7036 127.086 35.029 126.972 33.3346 126.58C41.4218 112.992 48.8515 108.081 48.8515 108.081L48.8443 108.116C50.8593 106.503 53.09 105.165 55.4704 104.144C54.3869 102.948 53.3764 101.616 52.5707 100.165C64.4806 97.0654 76.5906 103.394 77.6418 103.96C80.1539 105.281 83.8053 107.575 87.3413 111.37C90.8084 115.09 92.8227 118.813 93.9674 121.382C97.1793 134.395 92.7683 147.449 83.1003 154.335Z" fill="#FFA52E"/>
<path d="M67.2527 145.087C58.987 143.565 53.5193 135.632 55.0412 127.366C56.563 119.1 64.4956 113.635 72.7622 115.155C81.0279 116.676 86.4932 124.609 84.9713 132.875C83.4494 141.14 75.5169 146.606 67.2535 145.085L67.2527 145.087Z" fill="#DD3A51"/>
<path d="M176.036 213.241C177.842 215.97 180.121 218.363 182.642 220.445C183.636 220.28 184.603 220.02 185.55 219.697C187.168 219.154 188.586 218.158 189.779 216.956C190.379 216.354 190.909 215.686 191.337 214.947L191.205 214.796C188.987 215.699 186.86 216.768 184.765 217.899C184.11 218.263 183.418 218.601 182.707 218.825L183.336 218.963C181.415 217.69 179.583 216.278 177.872 214.729C177.3 214.209 176.732 213.677 176.194 213.119L176.036 213.241Z" fill="black"/>
<path d="M179.238 142.859C178.683 144.447 178.28 146.148 178.056 147.93C177.862 149.47 177.817 150.985 177.901 152.448C178.137 156.51 179.389 160.196 181.371 163.015C183.489 166.033 186.444 168.055 189.889 168.485C197.721 169.463 205.121 161.848 206.417 151.474C206.442 151.286 206.461 151.098 206.479 150.913C207.522 140.77 202.273 131.879 194.583 130.918C188.099 130.111 181.91 135.195 179.238 142.859Z" fill="#D3D7EA"/>
<path d="M179.146 146.822C178.592 148.411 178.188 150.112 177.964 151.894C177.94 152.079 177.919 152.264 177.901 152.449C178.136 156.511 179.388 160.197 181.37 163.016C183.489 166.033 186.444 168.056 189.888 168.486C197.721 169.463 205.12 161.848 206.416 151.474C206.441 151.286 206.461 151.099 206.479 150.913C205.991 142.509 201.159 135.715 194.492 134.882C188.008 134.074 181.818 139.159 179.146 146.822Z" fill="white"/>
<path d="M179.238 142.859C178.683 144.448 178.28 146.149 178.056 147.931C177.329 153.738 178.672 159.181 181.371 163.016C182.37 163.572 183.467 163.966 184.64 164.171C190.812 165.248 196.77 160.624 197.952 153.845C198.005 153.55 198.044 153.255 198.078 152.96C198.453 149.52 197.497 146.241 195.625 143.776C193.995 141.63 191.667 140.101 188.919 139.623C185.317 138.995 181.789 140.31 179.238 142.859Z" fill="black"/>
<path d="M195.549 152.77C193.073 151.88 191.787 149.152 192.676 146.676C193.565 144.2 196.293 142.914 198.769 143.803C201.245 144.692 202.532 147.42 201.643 149.896C200.753 152.372 198.025 153.659 195.549 152.77Z" fill="white"/>
<path d="M121.63 134.412C121.586 134.569 121.545 134.728 121.506 134.889C118.774 145.962 125.528 157.152 136.591 159.881C146.415 162.309 156.335 157.246 160.345 148.326C160.855 147.204 161.264 146.019 161.571 144.778C162.28 141.906 162.35 139.027 161.871 136.287C160.51 128.47 154.681 121.808 146.486 119.786C145.443 119.529 144.4 119.357 143.363 119.262C133.55 118.383 124.281 124.655 121.63 134.412Z" fill="#D3D7EA"/>
<path d="M121.63 134.412C121.587 134.57 121.546 134.728 121.507 134.89C118.774 145.963 125.529 157.153 136.592 159.882C146.416 162.31 156.335 157.246 160.346 148.326C160.389 148.169 160.431 148.008 160.47 147.846C161.18 144.974 161.249 142.095 160.771 139.355C159.409 131.538 153.58 124.876 145.385 122.854C144.342 122.597 143.299 122.425 142.262 122.33C133.521 121.545 125.213 126.439 121.63 134.412Z" fill="white"/>
<path d="M117.777 144.584C137.737 150.594 151.36 168.992 151.36 168.992L126.021 163.888L117.777 144.584Z" fill="#FFA52E"/>
<path d="M130.672 137.796C132.321 131.115 138.587 126.915 144.668 128.416C150.748 129.916 154.34 136.549 152.691 143.231C151.042 149.912 144.776 154.112 138.696 152.611C132.615 151.11 129.023 144.477 130.672 137.796Z" fill="black"/>
<path d="M150.661 142.112C148.185 141.223 146.899 138.495 147.788 136.019C148.677 133.542 151.405 132.256 153.881 133.145C156.357 134.034 157.644 136.763 156.754 139.239C155.865 141.715 153.137 143.001 150.661 142.112Z" fill="white"/>
<path d="M196.382 119.838C198.307 116.45 202.178 114.431 206.088 114.516C210.992 114.346 211.91 107.619 207.312 106.093C200.301 103.82 192.285 105.654 186.655 110.404C183.169 112.828 182.274 117.448 185.007 120.801C188 124.521 194.067 123.991 196.384 119.838L196.382 119.838Z" fill="#F97600"/>
<path d="M196.571 117.665C198.834 114.492 202.891 112.883 206.771 113.368C211.665 113.7 213.273 107.104 208.854 105.114C202.113 102.134 193.951 103.135 187.863 107.284C184.146 109.335 182.783 113.843 185.156 117.455C187.75 121.463 193.841 121.557 196.571 117.665Z" fill="#DB5800"/>
<path d="M208.99 178.783C209.144 176.642 210.613 175.004 212.27 175.123C213.927 175.242 215.146 177.074 214.992 179.215C214.838 181.355 213.37 182.994 211.712 182.875C210.055 182.756 208.836 180.924 208.99 178.783Z" fill="#DD3A51"/>
<path d="M102.067 141.464C100.134 140.595 99.2807 138.304 100.16 136.347C101.04 134.389 103.32 133.506 105.252 134.374C107.184 135.242 108.038 137.533 107.158 139.491C106.279 141.449 103.999 142.332 102.067 141.464Z" fill="#DD3A51"/>
<path d="M103.341 127.473C102.246 126.981 101.762 125.683 102.261 124.574C102.759 123.465 104.05 122.965 105.145 123.457C106.24 123.949 106.724 125.247 106.226 126.356C105.728 127.464 104.436 127.965 103.341 127.473Z" fill="#DD3A51"/>
<path d="M216.85 167.61C216.949 166.237 217.89 165.186 218.952 165.262C220.014 165.339 220.795 166.514 220.696 167.886C220.597 169.259 219.656 170.31 218.594 170.234C217.532 170.157 216.751 168.983 216.85 167.61Z" fill="#DD3A51"/>
<path d="M217.847 187.423C217.946 186.05 218.887 184.999 219.949 185.076C221.011 185.152 221.792 186.327 221.693 187.7C221.595 189.073 220.654 190.124 219.592 190.047C218.53 189.971 217.749 188.796 217.847 187.423Z" fill="#DD3A51"/>
<path d="M119.337 216.627C119.315 216.613 119.292 216.6 119.268 216.586C119.312 216.612 119.337 216.627 119.337 216.627Z" fill="black"/>
<path d="M105.773 174.137C104.695 181.858 105.703 189.533 108.219 196.372C108.358 196.754 108.5 197.131 108.649 197.504C109.839 200.51 111.329 203.347 113.057 205.938C114.05 207.424 115.117 208.839 116.252 210.176C121.802 216.745 128.938 221.588 136.617 224.986C143.721 228.131 151.413 230.123 159.392 230.101C162.989 230.093 166.648 229.665 170.257 228.776C170.259 228.777 170.259 228.777 170.261 228.778C174.712 227.686 179.088 225.895 183.183 223.338C183.488 223.147 183.794 222.953 184.096 222.75C184.933 222.195 185.759 221.602 186.566 220.972C191.373 217.219 195.496 212.181 197.456 206.159C198.301 203.561 198.648 200.793 198.502 198.135C198.502 198.135 198.501 198.124 198.501 198.119C198.409 196.484 198.13 194.895 197.665 193.412C197.289 192.206 196.786 191.069 196.16 190.04C195.239 188.521 194.046 187.241 192.588 186.307C187.647 183.147 181.684 184.897 176.13 184.717C173.347 184.626 170.403 184.378 167.696 183.561C165.584 182.925 163.619 181.945 161.988 180.424C156.911 175.689 152.205 170.523 146.994 166.062C146.324 165.489 145.644 164.927 144.953 164.381C140.683 160.999 136.017 158.172 130.939 156.684C129.414 156.238 127.85 155.911 126.248 155.727C125.323 155.618 124.375 155.568 123.419 155.587C122.55 155.6 121.677 155.667 120.805 155.797C117.513 156.282 114.287 157.643 111.71 160.253C108.212 163.803 106.478 169.086 105.773 174.139L105.773 174.137Z" fill="white"/>
<path d="M119.539 156.519C118.91 162.774 118.603 169.878 117.973 176.134C118.63 174.182 120.422 169.629 124.353 166.97C125.329 166.311 127.99 164.717 132.327 165.038C144.678 165.958 151.118 180.983 166.685 186.701C178.458 191.025 186.949 186.903 191.171 194.695C193.122 198.297 193.116 202.517 192.836 205.416C194.445 201.415 196.057 197.411 197.666 193.41C197.289 192.204 196.787 191.067 196.161 190.038C195.24 188.519 194.047 187.238 192.589 186.304C187.648 183.144 181.685 184.895 176.13 184.714C173.348 184.624 170.403 184.376 167.697 183.558C165.584 182.922 163.62 181.943 161.988 180.422C156.911 175.687 152.206 170.52 146.995 166.06C146.325 165.486 145.644 164.925 144.954 164.378C144.954 164.378 138.118 158.477 129.364 156.261C120.611 154.046 119.539 156.519 119.539 156.519Z" fill="#D3D7EA"/>
<path d="M105.773 174.136C104.636 182.287 105.821 190.382 108.649 197.503C114.978 189.973 122.089 187.324 122.163 187.295L122.647 187.12L122.483 186.608C115.419 171.487 123.365 155.991 123.41 155.797C123.428 155.723 123.432 155.65 123.42 155.585C119.265 155.648 114.968 156.95 111.712 160.254C108.214 163.803 106.48 169.084 105.773 174.139L105.773 174.136Z" fill="black"/>
<path d="M183.874 211.614C184.774 215.805 184.345 220.697 184.096 222.747C189.933 218.873 195.167 213.187 197.456 206.156C199.244 200.663 198.81 194.388 196.161 190.038C194.131 202.951 184.179 210.858 184.086 210.945C183.908 211.115 183.825 211.381 183.874 211.614Z" fill="black"/>
<path d="M9.05683 282.514C9.05683 282.514 9.05514 282.519 9.06118 282.532L9.0922 282.527C19.1949 295.364 47.7011 327.752 89.1924 330.606C111.342 332.13 132.127 324.886 150.475 312.746C138.036 318.937 119.208 325.537 96.361 324.256C71.9273 322.885 54.1841 313.127 46.2825 308.67C30.6839 299.868 20.0114 289.418 13.5386 282.051C12.0441 282.207 10.5505 282.361 9.05683 282.514Z" fill="#C60C35"/>
<path d="M159.411 101.517C155.798 95.8669 150.277 91.4767 143.903 89.114C138.33 86.83 140.703 78.7022 146.598 79.7294C155.53 81.5032 163.892 86.2808 170.048 93.1211C172.696 95.8846 172.548 100.314 169.702 102.879C166.645 105.7 161.629 105.025 159.412 101.513L159.411 101.517Z" fill="#DB5800"/>
<defs>
<linearGradient id="paint0_linear_9010_10026" x1="155.89" y1="258.197" x2="295.999" y2="238.654" gradientUnits="userSpaceOnUse">
<stop offset="0.29" stop-color="#FFA52E"/>
<stop offset="0.37" stop-color="#FD9F2F"/>
<stop offset="0.47" stop-color="#F89134"/>
<stop offset="0.57" stop-color="#F1793C"/>
<stop offset="0.68" stop-color="#E65847"/>
<stop offset="0.76" stop-color="#DD3A51"/>
</linearGradient>
<linearGradient id="paint1_linear_9010_10026" x1="155.139" y1="252.811" x2="295.246" y2="233.266" gradientUnits="userSpaceOnUse">
<stop offset="0.29" stop-color="#FFA52E"/>
<stop offset="0.37" stop-color="#FD9F2F"/>
<stop offset="0.47" stop-color="#F89134"/>
<stop offset="0.57" stop-color="#F1793C"/>
<stop offset="0.68" stop-color="#E65847"/>
<stop offset="0.76" stop-color="#DD3A51"/>
</linearGradient>
<linearGradient id="paint2_linear_9010_10026" x1="153.259" y1="239.344" x2="293.368" y2="219.802" gradientUnits="userSpaceOnUse">
<stop offset="0.29" stop-color="#FFA52E"/>
<stop offset="0.37" stop-color="#FD9F2F"/>
<stop offset="0.47" stop-color="#F89134"/>
<stop offset="0.57" stop-color="#F1793C"/>
<stop offset="0.68" stop-color="#E65847"/>
<stop offset="0.76" stop-color="#DD3A51"/>
</linearGradient>
<linearGradient id="paint3_linear_9010_10026" x1="151.921" y1="229.737" x2="292.028" y2="210.192" gradientUnits="userSpaceOnUse">
<stop offset="0.29" stop-color="#FFA52E"/>
<stop offset="0.37" stop-color="#FD9F2F"/>
<stop offset="0.47" stop-color="#F89134"/>
<stop offset="0.57" stop-color="#F1793C"/>
<stop offset="0.68" stop-color="#E65847"/>
<stop offset="0.76" stop-color="#DD3A51"/>
</linearGradient>
<linearGradient id="paint4_linear_9010_10026" x1="154.528" y1="248.436" x2="294.636" y2="228.891" gradientUnits="userSpaceOnUse">
<stop offset="0.29" stop-color="#FFA52E"/>
<stop offset="0.37" stop-color="#FD9F2F"/>
<stop offset="0.47" stop-color="#F89134"/>
<stop offset="0.57" stop-color="#F1793C"/>
<stop offset="0.68" stop-color="#E65847"/>
<stop offset="0.76" stop-color="#DD3A51"/>
</linearGradient>
<linearGradient id="paint5_linear_9010_10026" x1="186.275" y1="57.5271" x2="-27.5044" y2="370.436" gradientUnits="userSpaceOnUse">
<stop offset="0.29" stop-color="#FFA52E"/>
<stop offset="0.37" stop-color="#FD9F2F"/>
<stop offset="0.47" stop-color="#F89134"/>
<stop offset="0.57" stop-color="#F1793C"/>
<stop offset="0.68" stop-color="#E65847"/>
<stop offset="0.76" stop-color="#DD3A51"/>
</linearGradient>
</defs>
</svg>
