<svg width="272" height="303" viewBox="0 0 272 303" fill="none" xmlns="http://www.w3.org/2000/svg">
<path fill-rule="evenodd" clip-rule="evenodd" d="M199.699 234.423C199.699 234.423 237.779 227.023 263.819 187.583C263.819 187.583 274.059 183.083 270.619 174.743C267.159 166.403 258.839 165.303 258.839 165.303C258.839 165.303 265.639 150.883 260.259 149.103C254.879 147.323 244.539 163.663 241.439 174.283L200.739 197.623L199.699 234.403V234.423Z" fill="#3A7FE7"/>
<path fill-rule="evenodd" clip-rule="evenodd" d="M156.237 258.786C156.237 258.786 174.637 275.646 179.897 305.666L189.517 311.666C194.437 314.746 193.217 322.226 187.577 323.586L150.897 332.386C147.757 333.146 144.577 331.306 143.637 328.206L131.617 270.646L156.237 258.766V258.786Z" fill="#3A7FE7"/>
<path fill-rule="evenodd" clip-rule="evenodd" d="M101.179 255.551C101.179 255.551 79.5787 273.311 75.7187 310.851L67.7787 318.931C63.6987 323.071 66.6387 330.071 72.4587 330.071H110.179C113.419 330.071 116.079 327.551 116.259 324.311L123.259 259.731L101.179 255.531V255.551Z" fill="#3A7FE7"/>
<path d="M121.018 281.772C246.038 276.992 234.938 166.512 224.318 118.972C222.378 110.272 211.058 107.972 205.878 115.232L180.138 151.332C180.138 151.332 190.298 71.672 113.518 28.292C103.178 22.452 90.0783 26.612 84.9383 37.312C75.1183 57.772 62.2383 94.212 66.2583 138.852L28.4583 110.592C20.8983 104.932 10.0183 108.772 7.69826 117.932C-4.30174 165.552 -21.2217 287.192 121.038 281.772H121.018Z" fill="url(#paint0_linear_1_4812)"/>
<path d="M121.457 268.815C193.457 266.075 203.457 210.876 203.117 178.656C203.017 169.176 191.757 164.275 184.737 170.635L164.177 189.315C164.177 189.315 164.017 115.615 125.497 86.4355C118.217 80.9155 107.657 85.0355 105.777 93.9755C101.737 113.176 96.0774 146.556 97.6974 177.156L46.1574 158.976C39.3774 156.576 32.1374 161.236 31.5574 168.416C29.0574 199.656 32.6974 272.195 121.477 268.815H121.457Z" fill="#80DDFF"/>
<path d="M110.159 207.849C113.263 207.849 115.779 205.333 115.779 202.229C115.779 199.126 113.263 196.609 110.159 196.609C107.055 196.609 104.539 199.126 104.539 202.229C104.539 205.333 107.055 207.849 110.159 207.849Z" fill="#2C2A50"/>
<path d="M132.479 206.584C135.583 206.584 138.099 204.068 138.099 200.964C138.099 197.86 135.583 195.344 132.479 195.344C129.376 195.344 126.859 197.86 126.859 200.964C126.859 204.068 129.376 206.584 132.479 206.584Z" fill="#2C2A50"/>
<path d="M147.977 27.2289L170.277 57.3489C172.457 60.2889 177.177 58.5889 176.917 54.9489C176.237 45.0289 171.657 30.3889 152.477 21.6889C149.017 20.1289 145.717 24.1889 147.977 27.2289Z" fill="url(#paint1_linear_1_4812)"/>
<path d="M82.6789 4.41029L69.2589 40.9103C68.0989 44.0903 63.4589 43.6302 62.9389 40.2902C61.3389 29.9102 62.0589 13.6302 77.4789 0.790238C80.0789 -1.36976 83.8589 1.25029 82.6989 4.41029H82.6789Z" fill="url(#paint2_linear_1_4812)"/>
<path fill-rule="evenodd" clip-rule="evenodd" d="M126.239 248.655C151.319 247.235 159.979 226.834 153.699 219.194C147.419 211.534 135.039 220.855 124.699 221.455C114.359 222.035 97.8786 213.135 92.7386 224.335C87.5986 235.535 101.019 250.094 126.239 248.674V248.655Z" fill="#2C2A50"/>
<path d="M100.418 218.789C103.638 234.529 116.078 234.869 119.838 221.169C113.498 220.329 106.098 217.989 100.418 218.789Z" fill="white"/>
<path d="M127.699 221.047C133.039 233.887 145.199 232.047 146.599 216.188C141.039 216.328 134.119 219.847 127.699 221.047Z" fill="white"/>
<path d="M103 244.409C108.8 247.409 116.68 249.189 126.24 248.649C133.98 248.209 140.14 245.969 144.8 242.849C133.18 230.049 113.72 232.849 103 244.409Z" fill="#F9513E"/>
<defs>
<linearGradient id="paint0_linear_1_4812" x1="187.308" y1="-93.4794" x2="97.0259" y2="239.841" gradientUnits="userSpaceOnUse">
<stop stop-color="white"/>
<stop offset="1" stop-color="#CCF4FF"/>
</linearGradient>
<linearGradient id="paint1_linear_1_4812" x1="208.594" y1="-87.0733" x2="88.87" y2="236.84" gradientUnits="userSpaceOnUse">
<stop stop-color="white"/>
<stop offset="1" stop-color="#CCF4FF"/>
</linearGradient>
<linearGradient id="paint2_linear_1_4812" x1="116.432" y1="-105.414" x2="-3.2938" y2="218.519" gradientUnits="userSpaceOnUse">
<stop stop-color="white"/>
<stop offset="1" stop-color="#CCF4FF"/>
</linearGradient>
</defs>
</svg>
