<svg width="259" height="111" viewBox="0 0 259 111" fill="none" xmlns="http://www.w3.org/2000/svg">
<mask id="path-1-outside-1_1_5022" maskUnits="userSpaceOnUse" x="69.7373" y="-0.308594" width="92" height="28" fill="black">
<rect fill="white" x="69.7373" y="-0.308594" width="92" height="28"/>
<path d="M71.234 25.6914V1.65106H79.0934C86.9835 1.65106 92.1923 6.45913 92.1923 13.6712C92.1923 20.8833 86.9835 25.6914 79.0934 25.6914H71.234ZM79.1858 20.0204C83.3775 20.0204 85.7507 17.7396 85.7507 13.6712C85.7507 9.66451 83.4083 7.32212 79.1858 7.32212H77.3982V20.0204H79.1858ZM106.568 26.1229C99.4795 26.1229 93.7776 20.7601 93.7776 13.6712C93.7776 6.58242 99.4795 1.21957 106.568 1.21957C113.657 1.21957 119.359 6.58242 119.359 13.6712C119.359 20.7601 113.657 26.1229 106.568 26.1229ZM106.568 20.1436C110.267 20.1436 112.887 17.4622 112.887 13.6712C112.887 9.88026 110.267 7.19883 106.568 7.19883C102.87 7.19883 100.25 9.88026 100.25 13.6712C100.25 17.4622 102.87 20.1436 106.568 20.1436ZM124.919 26.0921C123.255 26.0921 121.529 25.7222 119.803 24.9517L119.495 19.0957C120.882 19.743 122.238 20.1436 123.532 20.1436C125.042 20.1436 126.244 19.4348 126.244 17.3697V1.65106H132.409V18.3868C132.409 23.4723 129.296 26.0921 124.919 26.0921ZM147.578 26.1229C140.489 26.1229 134.788 20.7601 134.788 13.6712C134.788 6.58242 140.489 1.21957 147.578 1.21957C154.667 1.21957 160.369 6.58242 160.369 13.6712C160.369 20.7601 154.667 26.1229 147.578 26.1229ZM147.578 20.1436C151.277 20.1436 153.897 17.4622 153.897 13.6712C153.897 9.88026 151.277 7.19883 147.578 7.19883C143.88 7.19883 141.26 9.88026 141.26 13.6712C141.26 17.4622 143.88 20.1436 147.578 20.1436Z"/>
</mask>
<path d="M71.234 25.6914V1.65106H79.0934C86.9835 1.65106 92.1923 6.45913 92.1923 13.6712C92.1923 20.8833 86.9835 25.6914 79.0934 25.6914H71.234ZM79.1858 20.0204C83.3775 20.0204 85.7507 17.7396 85.7507 13.6712C85.7507 9.66451 83.4083 7.32212 79.1858 7.32212H77.3982V20.0204H79.1858ZM106.568 26.1229C99.4795 26.1229 93.7776 20.7601 93.7776 13.6712C93.7776 6.58242 99.4795 1.21957 106.568 1.21957C113.657 1.21957 119.359 6.58242 119.359 13.6712C119.359 20.7601 113.657 26.1229 106.568 26.1229ZM106.568 20.1436C110.267 20.1436 112.887 17.4622 112.887 13.6712C112.887 9.88026 110.267 7.19883 106.568 7.19883C102.87 7.19883 100.25 9.88026 100.25 13.6712C100.25 17.4622 102.87 20.1436 106.568 20.1436ZM124.919 26.0921C123.255 26.0921 121.529 25.7222 119.803 24.9517L119.495 19.0957C120.882 19.743 122.238 20.1436 123.532 20.1436C125.042 20.1436 126.244 19.4348 126.244 17.3697V1.65106H132.409V18.3868C132.409 23.4723 129.296 26.0921 124.919 26.0921ZM147.578 26.1229C140.489 26.1229 134.788 20.7601 134.788 13.6712C134.788 6.58242 140.489 1.21957 147.578 1.21957C154.667 1.21957 160.369 6.58242 160.369 13.6712C160.369 20.7601 154.667 26.1229 147.578 26.1229ZM147.578 20.1436C151.277 20.1436 153.897 17.4622 153.897 13.6712C153.897 9.88026 151.277 7.19883 147.578 7.19883C143.88 7.19883 141.26 9.88026 141.26 13.6712C141.26 17.4622 143.88 20.1436 147.578 20.1436Z" fill="black"/>
<path d="M71.234 25.6914H70.014V26.9114H71.234V25.6914ZM71.234 1.65106V0.431038H70.014V1.65106H71.234ZM77.3982 7.32212V6.10209H76.1782V7.32212H77.3982ZM77.3982 20.0204H76.1782V21.2404H77.3982V20.0204ZM71.234 25.6914H72.4541V1.65106H71.234H70.014V25.6914H71.234ZM71.234 1.65106V2.87109H79.0934V1.65106V0.431038H71.234V1.65106ZM79.0934 1.65106V2.87109C82.792 2.87109 85.7529 3.99521 87.776 5.85483C89.7897 7.70584 90.9723 10.3735 90.9723 13.6712H92.1923H93.4123C93.4123 9.75688 91.9904 6.41444 89.4273 4.05839C86.8735 1.71095 83.2849 0.431038 79.0934 0.431038V1.65106ZM92.1923 13.6712H90.9723C90.9723 16.969 89.7897 19.6366 87.776 21.4876C85.7529 23.3473 82.792 24.4714 79.0934 24.4714V25.6914V26.9114C83.2849 26.9114 86.8735 25.6315 89.4273 23.2841C91.9904 20.928 93.4123 17.5856 93.4123 13.6712H92.1923ZM79.0934 25.6914V24.4714H71.234V25.6914V26.9114H79.0934V25.6914ZM79.1858 20.0204V21.2404C81.4954 21.2404 83.4785 20.6096 84.8876 19.2491C86.303 17.8825 86.9707 15.9424 86.9707 13.6712H85.7507H84.5307C84.5307 15.4684 84.0118 16.7029 83.1927 17.4937C82.3673 18.2907 81.068 18.8003 79.1858 18.8003V20.0204ZM85.7507 13.6712H86.9707C86.9707 11.4308 86.3109 9.494 84.9037 8.12096C83.5006 6.75182 81.5171 6.10209 79.1858 6.10209V7.32212V8.54214C81.077 8.54214 82.376 9.06361 83.1996 9.86735C84.0193 10.6672 84.5307 11.9049 84.5307 13.6712H85.7507ZM79.1858 7.32212V6.10209H77.3982V7.32212V8.54214H79.1858V7.32212ZM77.3982 7.32212H76.1782V20.0204H77.3982H78.6182V7.32212H77.3982ZM77.3982 20.0204V21.2404H79.1858V20.0204V18.8003H77.3982V20.0204ZM106.568 26.1229V24.9029C100.11 24.9029 94.9977 20.0437 94.9977 13.6712H93.7776H92.5576C92.5576 21.4764 98.8491 27.3429 106.568 27.3429V26.1229ZM93.7776 13.6712H94.9977C94.9977 7.29877 100.11 2.4396 106.568 2.4396V1.21957V-0.000455856C98.8491 -0.000455856 92.5576 5.86606 92.5576 13.6712H93.7776ZM106.568 1.21957V2.4396C113.027 2.4396 118.139 7.29877 118.139 13.6712H119.359H120.579C120.579 5.86606 114.288 -0.000455856 106.568 -0.000455856V1.21957ZM119.359 13.6712H118.139C118.139 20.0437 113.027 24.9029 106.568 24.9029V26.1229V27.3429C114.288 27.3429 120.579 21.4764 120.579 13.6712H119.359ZM106.568 20.1436V21.3637C108.722 21.3637 110.624 20.5773 111.987 19.1814C113.348 17.7875 114.107 15.8535 114.107 13.6712H112.887H111.667C111.667 15.28 111.115 16.5822 110.242 17.4767C109.37 18.3693 108.113 18.9236 106.568 18.9236V20.1436ZM112.887 13.6712H114.107C114.107 11.489 113.348 9.55499 111.987 8.16108C110.624 6.76522 108.722 5.97881 106.568 5.97881V7.19884V8.41886C108.113 8.41886 109.37 8.97316 110.242 9.86576C111.115 10.7603 111.667 12.0625 111.667 13.6712H112.887ZM106.568 7.19884V5.97881C104.414 5.97881 102.512 6.76522 101.149 8.16108C99.7883 9.55499 99.03 11.489 99.03 13.6712H100.25H101.47C101.47 12.0625 102.022 10.7603 102.895 9.86576C103.767 8.97316 105.024 8.41886 106.568 8.41886V7.19884ZM100.25 13.6712H99.03C99.03 15.8535 99.7883 17.7875 101.149 19.1814C102.512 20.5773 104.414 21.3637 106.568 21.3637V20.1436V18.9236C105.024 18.9236 103.767 18.3693 102.895 17.4767C102.022 16.5822 101.47 15.28 101.47 13.6712H100.25ZM119.803 24.9517L118.584 25.0158L118.624 25.7614L119.305 26.0658L119.803 24.9517ZM119.495 19.0957L120.011 17.9902L118.169 17.131L118.276 19.1598L119.495 19.0957ZM126.244 1.65106V0.431038H125.024V1.65106H126.244ZM132.409 1.65106H133.629V0.431038H132.409V1.65106ZM124.919 26.0921V24.8721C123.438 24.8721 121.881 24.5433 120.3 23.8377L119.803 24.9517L119.305 26.0658C121.177 26.9011 123.071 27.3121 124.919 27.3121V26.0921ZM119.803 24.9517L121.021 24.8876L120.713 19.0316L119.495 19.0957L118.276 19.1598L118.584 25.0158L119.803 24.9517ZM119.495 19.0957L118.979 20.2013C120.454 20.8898 121.993 21.3637 123.532 21.3637V20.1436V18.9236C122.482 18.9236 121.309 18.5961 120.011 17.9902L119.495 19.0957ZM123.532 20.1436V21.3637C124.456 21.3637 125.472 21.1489 126.266 20.4425C127.086 19.7124 127.464 18.6425 127.464 17.3697H126.244H125.024C125.024 18.162 124.802 18.479 124.644 18.6196C124.459 18.7839 124.119 18.9236 123.532 18.9236V20.1436ZM126.244 17.3697H127.464V1.65106H126.244H125.024V17.3697H126.244ZM126.244 1.65106V2.87109H132.409V1.65106V0.431038H126.244V1.65106ZM132.409 1.65106H131.189V18.3868H132.409H133.629V1.65106H132.409ZM132.409 18.3868H131.189C131.189 20.6755 130.494 22.2591 129.454 23.2725C128.406 24.2924 126.867 24.8721 124.919 24.8721V26.0921V27.3121C127.348 27.3121 129.553 26.5818 131.156 25.0206C132.766 23.4527 133.629 21.1836 133.629 18.3868H132.409ZM147.578 26.1229V24.9029C141.12 24.9029 136.008 20.0437 136.008 13.6712H134.788H133.568C133.568 21.4764 139.859 27.3429 147.578 27.3429V26.1229ZM134.788 13.6712H136.008C136.008 7.29877 141.12 2.4396 147.578 2.4396V1.21957V-0.000455856C139.859 -0.000455856 133.568 5.86606 133.568 13.6712H134.788ZM147.578 1.21957V2.4396C154.037 2.4396 159.149 7.29877 159.149 13.6712H160.369H161.589C161.589 5.86606 155.297 -0.000455856 147.578 -0.000455856V1.21957ZM160.369 13.6712H159.149C159.149 20.0437 154.037 24.9029 147.578 24.9029V26.1229V27.3429C155.297 27.3429 161.589 21.4764 161.589 13.6712H160.369ZM147.578 20.1436V21.3637C149.732 21.3637 151.634 20.5773 152.997 19.1814C154.358 17.7875 155.117 15.8535 155.117 13.6712H153.897H152.676C152.676 15.28 152.125 16.5822 151.251 17.4767C150.38 18.3693 149.123 18.9236 147.578 18.9236V20.1436ZM153.897 13.6712H155.117C155.117 11.489 154.358 9.55499 152.997 8.16108C151.634 6.76522 149.732 5.97881 147.578 5.97881V7.19884V8.41886C149.123 8.41886 150.38 8.97316 151.251 9.86576C152.125 10.7603 152.676 12.0625 152.676 13.6712H153.897ZM147.578 7.19884V5.97881C145.424 5.97881 143.522 6.76522 142.159 8.16108C140.798 9.55499 140.04 11.489 140.04 13.6712H141.26H142.48C142.48 12.0625 143.032 10.7603 143.905 9.86576C144.777 8.97316 146.034 8.41886 147.578 8.41886V7.19884ZM141.26 13.6712H140.04C140.04 15.8535 140.798 17.7875 142.159 19.1814C143.522 20.5773 145.424 21.3637 147.578 21.3637V20.1436V18.9236C146.034 18.9236 144.777 18.3693 143.905 17.4767C143.032 16.5822 142.48 15.28 142.48 13.6712H141.26Z" fill="black" mask="url(#path-1-outside-1_1_5022)"/>
<path d="M258.517 66.3748C258.517 66.0221 258.5 65.675 258.477 65.3337C258.477 65.2483 258.471 65.1516 258.471 65.0777C258.471 65.0549 258.465 65.0378 258.46 65.0208C258.009 58.9559 256.217 57.6303 252.888 55.5424C254.954 54.5885 257.214 52.0446 257.724 48.1463C258.373 43.1922 257.155 40.4658 251.633 36.7677C247.768 34.492 244.931 33.5135 241.614 33.1267L241.107 33.0698C239.514 32.882 237.933 32.7853 236.42 32.7853C229.484 32.7853 224 34.6855 220.313 38.2015C220.279 36.745 219.966 35.2943 219.369 33.9175C218.157 31.1297 215.932 28.9792 213.105 27.8698C211.768 27.3407 210.363 27.0733 208.935 27.0733C204.23 27.0733 200.071 29.9008 198.347 34.2816C198.102 34.9074 197.829 35.4877 197.539 36.0282V29.6619C197.539 22.5787 192.874 17.6348 186.195 17.6348H184.914C178.235 17.6348 173.57 22.5787 173.57 29.6619V33.7582C172.057 33.2405 170.39 32.9617 168.637 32.9617C166.601 32.9617 164.609 33.5306 162.914 34.5661C161.184 33.5135 159.142 32.9674 156.889 32.9674H155.609C151.08 32.9674 147.485 35.2488 145.63 38.9184C143.753 35.3682 140.208 33.1665 135.759 33.1665H134.479C131.686 33.1665 129.108 34.1792 127.089 36.0168C124.358 34.219 120.745 33.1665 117.019 33.1665C109.759 33.1665 103.051 37.0466 98.7503 43.6234C94.5459 37.0921 87.8042 33.1665 80.3569 33.1665C76.363 33.1665 72.6593 34.3499 69.9455 36.3923C68.4663 34.7481 66.2134 33.1665 62.8966 33.1665H61.6165C58.2769 33.1665 55.4436 34.4011 53.441 36.5175C52.0357 29.1157 44.4007 19.9844 29.7224 19.9844C21.8712 19.9844 15.1408 22.5219 10.2537 27.3236C5.85585 31.6418 3.32979 37.6212 3.32979 43.7144C3.32979 50.1547 6.26549 55.1669 6.85149 56.1057C6.88562 56.1569 6.91972 56.2081 6.95386 56.2593C8.23394 58.04 9.9009 59.6103 11.7215 60.9757C4.81469 61.8917 0.70704 66.2326 0.138113 73.2475C0.138113 73.2475 0.138107 73.2475 0.132418 73.2475C0.132418 73.2873 0.132412 73.3271 0.126723 73.3726C0.109655 73.5661 0.109697 73.7709 0.0983182 73.97C-0.100806 78.4076 0.0641492 79.847 0.0641492 87.4706C0.0641492 92.7901 2.56174 98.5249 6.74336 102.798C10.3959 106.535 17.1092 110.984 28.3455 110.984C39.5818 110.984 45.7377 105.984 49.3333 101.791C49.6917 101.37 50.0388 100.931 50.3745 100.488C51.0629 106.649 55.4834 110.825 61.6165 110.825H62.8966C69.5758 110.825 74.2409 105.881 74.2409 98.798V97.2733C76.1582 97.8991 78.2462 98.2348 80.3569 98.2348C87.6506 98.2348 94.3468 94.3148 98.6138 87.7836C102.835 94.3604 109.594 98.2348 117.019 98.2348C120.95 98.2348 124.523 97.0628 127.174 94.9862C129.182 97.1026 131.686 98.2348 134.479 98.2348H135.759C140.293 98.2348 143.895 95.9534 145.744 92.2781C147.627 95.8282 151.166 98.0243 155.609 98.0243H156.889C163.568 98.0243 168.233 93.0803 168.233 85.9971V68.4343C168.364 68.4343 168.501 68.4343 168.637 68.4343C170.395 68.4343 172.057 68.1612 173.57 67.6606V86.6742C173.57 93.7573 178.235 98.7013 184.914 98.7013H186.195C192.202 98.7013 196.583 94.7017 197.402 88.745L200.594 93.2453C200.623 93.2851 200.657 93.3306 200.685 93.3704C203.535 96.9604 206.642 98.7013 210.175 98.7013C213.173 98.7013 216.917 97.4269 219.528 94.6334C219.665 94.7188 219.795 94.8041 219.949 94.8724C223.499 96.3971 227.419 97.4212 231.612 97.9105C233.228 98.0982 234.821 98.1949 236.351 98.1949C248.896 98.1949 257.993 91.9879 258.522 81.3433C258.858 74.4991 258.63 69.1398 258.511 66.3521L258.517 66.3748Z" fill="black"/>
<path d="M178.566 44.3119C178.566 48.5049 176.04 50.4392 176.034 50.4449C174.236 52.0948 171.636 52.9539 168.695 52.9539C167.483 52.9539 166.396 52.8515 165.446 52.6068V73.3556C165.446 78.9653 162.027 82.5381 156.946 82.5381H155.666C150.586 82.5381 147.166 78.9596 147.166 73.3556V44.8637C147.166 39.2598 150.586 35.6812 155.666 35.6812H156.946C159.415 35.6812 161.486 36.5289 162.971 38.0366C164.439 36.5403 166.521 35.6699 168.695 35.6699C171.761 35.6699 174.299 36.6313 176.04 38.2642C176.057 38.2812 178.571 40.4716 178.571 44.3119H178.566ZM216.405 66.4147L207.53 54.5696C211.25 51.5543 214.619 47.3101 216.928 41.4445C218.658 37.058 216.502 32.1027 212.115 30.3788C207.729 28.6493 202.773 30.8055 201.05 35.192C199.661 38.7079 197.636 41.1543 194.877 42.6335L194.757 42.5197V29.5311C194.757 23.9272 191.338 20.3486 186.257 20.3486H184.977C179.897 20.3486 176.478 23.9272 176.478 29.5311V35.0554C179.55 36.8362 181.416 40.5001 181.416 44.3119C181.416 48.1237 179.573 51.8672 176.478 53.6195V74.0383C176.478 79.6423 179.897 83.2208 184.977 83.2208H186.257C191.338 83.2208 194.757 79.6423 194.757 74.0383V67.3819L197.34 71.023L202.973 78.9653C205.226 81.7985 207.53 83.2208 210.238 83.2208C212.946 83.2208 216.843 81.7189 218.715 78.4248C218.738 78.385 218.76 78.3394 218.783 78.2939C218.851 78.1688 218.914 78.0436 218.977 77.9127C218.999 77.8615 219.028 77.8103 219.05 77.7534C219.113 77.6226 219.17 77.486 219.221 77.3495C219.238 77.304 219.261 77.2585 219.278 77.2073C219.346 77.0195 219.415 76.8318 219.471 76.6383C219.471 76.6383 219.471 76.6327 219.471 76.627C219.528 76.4392 219.574 76.2458 219.619 76.0467C219.631 75.9841 219.642 75.9215 219.659 75.8646C219.688 75.7224 219.716 75.5745 219.739 75.4265C219.75 75.3526 219.762 75.2843 219.767 75.2103C219.784 75.0624 219.801 74.9088 219.813 74.7552C219.819 74.6869 219.824 74.6187 219.83 74.5504C219.847 74.3285 219.853 74.1009 219.853 73.8734C219.853 71.2677 219.068 70.0615 217.873 68.3775L216.399 66.409L216.405 66.4147ZM100.423 59.3202C100.423 59.3202 100.423 65.6182 98.1305 70.2436C94.7909 77.6795 88.1402 82.7543 80.4141 82.7543C76.7275 82.7543 73.5585 81.6108 71.4535 80.069V86.1622C71.4535 91.7661 68.0343 95.3447 62.9538 95.3447H61.6737C56.5932 95.3447 53.1739 91.7661 53.1739 86.1622V83.1412C55.057 79.4261 56.0925 75.2843 56.0925 71.188C56.0925 66.4545 54.966 62.7224 53.1739 59.7241V45.0742C53.1739 39.4703 56.5932 35.8917 61.6737 35.8917H62.9538C66.2763 35.8917 68.1992 38.1106 69.6102 40.7333C71.5218 37.8659 75.5839 35.8917 80.4141 35.8917C88.4701 35.8917 94.9901 40.9609 98.2216 48.4025C98.3923 48.7893 100.423 53.1587 100.423 59.3202C100.423 59.3202 100.423 59.3202 100.423 59.3259V59.3202ZM82.5249 59.5307C82.5249 56.2081 80.306 53.9154 76.9892 53.9154C73.6723 53.9154 71.4535 56.2138 71.4535 59.5307C71.4535 62.8475 73.6666 65.1517 76.9892 65.1517C80.3117 65.1517 82.5249 62.8532 82.5249 59.5307ZM144.316 45.0629V73.5661C144.316 79.1701 140.897 82.7486 135.811 82.7486H134.531C131.208 82.7486 128.938 80.5355 127.533 77.9071C125.621 80.7744 121.9 82.7543 117.07 82.7543C109.742 82.7543 103.689 78.5613 100.219 72.2064C102.204 68.3548 103.262 63.9285 103.262 59.3145C103.262 54.7005 102.244 50.2629 100.332 46.4397C103.899 40.079 110.033 35.8804 117.064 35.8804C121.735 35.8804 125.576 37.7464 127.476 39.8742C128.938 37.5587 131.418 35.8804 134.525 35.8804H135.805C140.885 35.8804 144.31 39.4589 144.31 45.0629H144.316ZM126.031 59.104C126.031 55.7815 123.818 53.483 120.495 53.483C117.173 53.483 114.959 55.7815 114.959 59.104C114.959 62.4265 117.173 64.7193 120.495 64.7193C123.818 64.7193 126.031 62.4208 126.031 59.104ZM26.4684 43.9421C26.4684 42.0703 27.5778 41.3705 29.04 41.3705C32.647 41.3705 36.1174 49.7224 41.4995 49.7224C47.2115 49.7224 50.8981 44.0103 50.8981 38.8388C50.8981 33.2348 44.9813 22.704 29.7796 22.704C14.5778 22.704 6.23162 33.1324 6.23162 43.5893C6.23162 48.5276 8.22859 52.7263 9.32093 54.4729C14.4982 61.6642 27.2933 65.1858 27.2933 65.1858C30.5874 66.1701 32.9428 68.1386 32.9428 71.8707C32.9428 74.9429 30.9971 76.223 28.5677 76.223C25.8824 76.223 24.352 74.1408 23.8912 70.3688C23.6124 68.1158 21.4903 63.5132 14.6518 63.5132C7.44916 63.5132 2.97168 66.8869 2.97168 74.8292C2.97168 82.7714 10.1402 95.4983 28.4085 95.4983C45.4877 95.4983 53.2478 81.7473 53.2478 71.1823C53.2478 48.96 26.4741 50.4904 26.4741 43.9421H26.4684Z" fill="white"/>
<path d="M243.034 53.4683C239.154 52.3304 237.39 51.3974 237.811 50.1969C238.261 48.9112 240.894 49.8727 247.152 53.0018C251.922 55.3865 253.98 51.5795 254.833 48.4504C254.833 48.4504 256.153 41.9191 249.428 38.4942C246.885 37.197 244.144 36.0079 240.787 35.6096C229.92 34.3295 219.384 37.5269 218.013 49.1501C216.989 57.8263 223.042 61.0521 230.643 63.2254C233.613 64.0901 234.99 64.568 234.671 65.7116C234.529 66.2293 233.988 66.8039 231.752 66.2862C229.653 65.8026 227.776 64.7103 225.54 64.1129C222.763 63.3733 220.544 63.8797 218.786 65.137L220.34 67.2136L220.351 67.2306L220.362 67.2477C221.745 69.1991 222.655 70.7011 222.655 73.7278C222.655 76.14 221.984 78.0232 221.079 79.474C224.151 80.7939 227.724 81.8066 231.951 82.3015C245.008 83.8376 254.322 78.7002 255.562 68.1751C256.626 59.1632 250.635 55.6416 243.034 53.4626V53.4683Z" fill="white"/>
</svg>
