<svg width="130" height="133" viewBox="0 0 130 133" fill="none" xmlns="http://www.w3.org/2000/svg">
<path d="M53.7285 15.753C28.0891 24.4044 11.4018 51.4632 21.7736 82.1527C31.2433 110.286 56.9044 121.422 84.2974 112.193C95.5976 108.369 105.15 101.745 109.916 94.5205C110.281 93.9965 109.933 93.2602 109.292 93.1766C106.82 92.8355 105.349 91.7366 104.434 90.6551C103.768 89.9301 104.394 88.884 105.336 89.0207C107.08 89.3203 108.786 89.2612 110.359 88.9495C111.802 88.7046 112.893 87.5088 112.993 86.0947C113.143 84.3825 112.953 82.6346 112.424 80.968C110.513 75.371 104.95 72.7469 99.7095 74.5167C97.1148 75.39 95.2732 77.1307 93.4525 79.2077C94.0104 76.993 94.1262 74.8704 94.0835 73.1776C94.0547 71.7255 92.153 71.2363 91.4717 72.4796C88.6944 77.3816 89.5542 83.3709 89.6048 83.6956C89.6048 83.6956 89.6048 83.6956 89.6013 83.6975L88.1527 79.3526C87.7161 77.9559 85.7362 78.11 85.465 79.5089C84.8027 83.3206 86.7348 85.9023 87.0022 86.2352C84.7939 88.1397 82.0426 89.8934 78.2714 91.16C64.5873 95.7969 50.9186 88.9947 45.5182 73.0083C39.7532 55.8567 46.9579 40.9389 61.048 36.2431C70.5111 33.0415 76.576 37.6775 83.3345 35.4046C89.501 33.3462 92.501 27.5775 90.6136 22.0223C87.1709 11.8192 70.3332 10.1779 53.732 15.7511L53.7285 15.753Z" fill="#FFBCE0"/>
<path d="M69.1821 12.6534C71.9347 14.9095 75.8834 19.5572 76.8887 27.9826C78.0708 37.7342 79.733 22.624 80.5687 13.6821C77.2867 12.749 73.339 12.4003 69.1821 12.6534Z" fill="#FF8ECF"/>
<path d="M98.5084 91.1684C100.548 90.0559 101.3 87.5008 100.189 85.4646C99.0783 83.4284 96.5231 82.6768 94.4835 83.7894C92.4438 84.9019 91.6939 87.4517 92.8064 89.4914C93.919 91.5311 96.4722 92.2791 98.5084 91.1684Z" fill="white"/>
<path d="M105.494 84.4184C107.53 83.3078 108.283 80.7561 107.171 78.7164C106.058 76.6768 103.505 75.9287 101.469 77.0394C99.4326 78.15 98.6811 80.7052 99.7918 82.7414C100.902 84.7776 103.454 85.531 105.494 84.4184Z" fill="white"/>
<path d="M96.4185 89.5314C97.3687 89.0131 97.7183 87.8242 97.2 86.874C96.6817 85.9238 95.4929 85.5741 94.5427 86.0925C93.5925 86.6108 93.2447 87.803 93.7611 88.7498C94.2775 89.6965 95.4717 90.0478 96.4185 89.5314Z" fill="#231F20"/>
<path d="M103.206 83.1105C104.152 82.5941 104.505 81.4034 103.987 80.4532C103.469 79.5029 102.277 79.1552 101.33 79.6716C100.383 80.188 100.03 81.3787 100.548 82.3289C101.067 83.2792 102.255 83.6288 103.206 83.1105Z" fill="#231F20"/>
<path d="M44.9963 62.0835C45.6697 58.2342 47.5549 49.9167 51.7298 43.6109C52.5456 42.4072 52.014 40.7371 50.6492 40.2305L30.1132 32.6037C29.1377 32.2145 28.0388 32.5927 27.4069 33.4296C22.2567 40.6467 18.7998 49.1712 17.6565 58.4434C17.5296 59.7094 18.384 60.8783 19.6481 61.0017C25.8358 61.8718 36.4459 63.2654 42.4779 63.9495C43.7002 64.0957 44.7821 63.2888 44.9963 62.0835Z" fill="#FF8ECF"/>
<path d="M46.6107 55.2735L35.1045 54.4229" stroke="#F76DBF" stroke-width="2.59551" stroke-linecap="round" stroke-linejoin="round"/>
<path d="M34.8896 44.8526L48.4709 49.905" stroke="#F76DBF" stroke-width="2.59551" stroke-linecap="round" stroke-linejoin="round"/>
<path d="M61.2338 36.1965C62.7141 35.7142 64.094 35.4538 65.4113 35.2772L58.3607 14.3694C57.0681 14.6906 55.7584 15.0798 54.468 15.5127C56.1523 20.7947 59.333 30.8157 61.2338 36.1965Z" fill="#FF8ECF"/>
<path d="M57.4174 89.0443L44.6015 110.342C46.8032 111.481 49.0584 112.428 51.4158 113.156C54.3927 106.144 58.5366 96.4864 60.8361 90.8243C59.6422 90.3328 58.5091 89.7541 57.4174 89.0443Z" fill="#FF8ECF"/>
<path d="M22.4876 84.1571C23.0514 85.5883 23.6137 87.0249 24.2611 88.4105L46.5306 75.6674C46.1793 74.8248 45.8281 73.9821 45.5376 73.0521C45.511 72.904 45.4654 72.8205 45.4389 72.6724L22.4876 84.1571Z" fill="#FF8ECF"/>
<path d="M75.9447 91.8871C75.1818 92.0865 74.3942 92.2406 73.631 92.3318L80.2168 113.389C81.1278 113.163 82.016 112.896 82.9459 112.605L75.9447 91.8871Z" fill="#FF8ECF"/>
<path d="M45.5816 88.6995C46.9739 87.9401 47.483 86.1991 46.7255 84.8103C45.9679 83.4215 44.2286 82.907 42.8363 83.6664C41.444 84.4259 40.9384 86.1649 41.6959 87.5537C42.4534 88.9425 44.1928 89.457 45.5816 88.6995Z" fill="#86EFC3"/>
<path d="M66.0626 100.705C67.4514 99.9479 67.964 98.205 67.2065 96.8162C66.449 95.4274 64.7061 94.9148 63.3173 95.6723C61.9285 96.4299 61.4159 98.1727 62.1734 99.5615C62.931 100.95 64.6738 101.463 66.0626 100.705Z" fill="#86EFC3"/>
<path d="M37.3784 89.4166C38.4923 88.809 38.9039 87.4193 38.2964 86.3055C37.6889 85.1917 36.2975 84.7854 35.1837 85.3929C34.0699 86.0005 33.6636 87.3918 34.2692 88.5022C34.8749 89.6125 36.2681 90.0222 37.3784 89.4166Z" fill="#86EFC3"/>
<path d="M61.1675 105.498C62.2813 104.891 62.691 103.497 62.0835 102.384C61.476 101.27 60.0846 100.864 58.9708 101.471C57.857 102.079 57.4507 103.47 58.0564 104.58C58.662 105.691 60.0571 106.104 61.1675 105.498Z" fill="#86EFC3"/>
<path d="M55.5581 34.6666C56.6685 34.061 57.0783 32.6678 56.4726 31.5574C55.867 30.4471 54.4737 30.0373 53.3634 30.6429C52.2531 31.2486 51.8433 32.6418 52.4489 33.7522C53.0546 34.8625 54.4443 35.2742 55.5581 34.6666Z" fill="#86EFC3"/>
<path d="M53.8067 27.0423C55.2692 25.6665 55.5888 23.636 54.5227 22.5013C53.4532 21.3685 51.4056 21.564 49.9466 22.938C48.4875 24.3119 48.168 26.3423 49.234 27.477C50.3 28.6117 52.3476 28.4162 53.8067 27.0423Z" fill="#86EFC3"/>
<path d="M78.9949 13.2895L76.8885 27.9827C76.8885 27.9827 67.6814 28.764 68.9123 35.707C69.0737 36.599 69.9262 37.1682 70.8182 37.0069L76.8309 35.9582C78.7978 38.9681 81.9794 44.1967 85.7319 42.8047C92.0842 40.4825 94.5688 28.0805 92.2655 21.0676C89.924 14.0755 78.9949 13.2895 78.9949 13.2895Z" fill="#86EFC3"/>
<path d="M87.8502 15.9645C84.1993 22.0386 89.1709 25.4734 89.1709 25.4734L87.5894 35.6395C87.5894 35.6395 81.7682 37.1302 79.5348 39.9246C81.2793 42.0215 83.3484 43.7201 85.6697 42.892C92.0219 40.5698 94.5065 28.1678 92.2033 21.1548C91.4568 18.7845 89.794 17.1353 87.8502 15.9645Z" fill="#FFD533"/>
<path d="M74.8985 36.3075L78.2564 38.1747L79.9375 34.3763C80.2505 33.5507 79.96 32.6208 79.1569 32.2414C78.3295 31.8256 77.314 32.1582 76.8948 32.9875L74.8985 36.3075Z" fill="#FFD533"/>
</svg>
