<svg width="239" height="139" viewBox="0 0 239 139" fill="none" xmlns="http://www.w3.org/2000/svg">
<path fill-rule="evenodd" clip-rule="evenodd" d="M127.491 40.7075C123.713 34.9031 116.968 31.404 109.857 31.404C104.319 31.404 99.0015 33.5272 95.1357 37.2093C92.4022 23.2674 79.2557 14.7079 65.32 16.6996L51.276 18.7069C48.0189 19.1724 45.7559 22.19 46.2215 25.447L51.8725 64.9819C51.9576 65.5766 52.1277 66.1383 52.3689 66.6562C52.3716 66.6643 52.3743 66.6722 52.3771 66.68L54.0306 71.0744C54.0072 71.0774 53.9838 71.0804 53.9604 71.0835C50.7217 71.5066 47.8381 72.6804 45.4957 74.3837C45.4834 74.3773 45.471 74.3709 45.4587 74.3645C45.4483 74.3592 45.4378 74.3539 45.4274 74.3486L45.1262 72.0364C44.7012 68.774 41.7118 66.4737 38.4491 66.8987L16.9757 69.6958C13.713 70.1208 11.4127 73.1101 11.8377 76.3725L12.6541 82.6396C12.7986 83.749 13.2397 84.7471 13.8872 85.5647L17.7472 91.5328C18.5322 92.7464 19.7122 93.6081 21.0468 94.0064L22.2055 102.9L21.3164 103.016C18.0537 103.441 15.7534 106.431 16.1784 109.693L16.9948 115.96C17.1615 117.239 17.7224 118.371 18.5395 119.248L22.1618 123.809C23.4616 125.445 25.5241 126.281 27.5966 126.011L48.4265 123.298C51.5642 122.889 53.8119 120.109 53.6014 116.994C56.3395 117.83 59.256 118.029 61.9783 117.673C64.3288 117.366 66.6995 116.601 68.8407 115.401L69.1063 116.398C69.746 118.799 71.8091 120.551 74.2825 120.793L82.4313 121.591C85.7059 121.912 88.6204 119.517 88.941 116.243L89.3047 112.529C91.9814 115.378 95.5586 117.359 99.6919 117.994C102.032 118.353 104.18 118.208 106.076 117.754C106.765 118.228 107.568 118.558 108.449 118.694L116.482 119.926C119.222 120.347 121.813 118.829 122.859 116.394C123.781 118.709 126.104 120.283 128.728 120.136L136.599 119.696C138.574 119.585 140.269 118.525 141.268 116.984C142.433 118.404 144.237 119.268 146.211 119.157L154.082 118.716C157.367 118.532 159.881 115.72 159.697 112.435L159.661 111.793C162.247 113.943 165.441 115.382 169.014 115.81C171.365 116.091 173.507 115.875 175.387 115.359C176.09 115.81 176.904 116.114 177.79 116.22L185.859 117.186C186.642 117.28 187.408 117.217 188.126 117.023C191.152 121.919 196.934 124.333 201.71 124.71L201.796 124.717L201.882 124.721C210.362 125.096 219.572 119.77 222.704 109.731C223 108.783 223.166 107.784 223.147 106.769C223.166 106.603 223.183 106.435 223.196 106.265C223.47 102.793 222.715 99.8153 221.053 97.4157C223.003 96.1013 224.216 93.6581 223.439 90.9434C221.491 84.133 215.538 80.2673 208.878 79.741C204.943 79.43 201.291 80.3418 198.358 82.1432L200.521 64.0891C200.912 60.8225 198.581 57.8571 195.314 57.4658L187.017 56.4719C185.53 56.2938 184.105 56.68 182.957 57.4619C183.6 55.1745 183.836 52.6935 183.573 50.0731C182.379 38.1725 171.666 31.1355 160.921 32.2137C156.266 32.6808 151.92 34.6391 148.586 37.6764L148.781 35.8036C148.917 34.5005 148.623 33.2518 148.012 32.1991C149.421 30.8616 150.491 29.1483 151.046 27.1732C151.133 26.8622 151.208 26.5447 151.269 26.2211C151.327 25.9149 151.372 25.6032 151.406 25.2865C152.062 19.0043 147.436 13.6317 141.391 13C135.346 12.3682 129.708 16.6682 129.052 22.9504C129.007 23.3835 128.986 23.8122 128.99 24.2354C129.007 26.189 129.532 28.0237 130.441 29.6161C129.235 30.5767 128.401 32.0016 128.228 33.6556L127.491 40.7075ZM139.126 99.3322C139.126 99.3322 139.128 99.3364 139.129 99.3458C139.127 99.3371 139.126 99.3322 139.126 99.3322ZM141.424 99.2173C141.425 99.2077 141.426 99.2034 141.426 99.2034C141.426 99.2034 141.426 99.2083 141.424 99.2173Z" fill="#1A192D"/>
<path d="M185.45 62.2685C185.515 61.7241 186.01 61.3356 186.554 61.4008L194.851 62.3946C195.396 62.4598 195.784 62.9541 195.719 63.4985L190.625 106.022C190.56 106.567 190.065 106.955 189.521 106.89L181.224 105.896C180.679 105.831 180.291 105.337 180.356 104.792L180.569 103.018C178.825 104.489 175.797 105.918 171.822 105.442C164.204 104.53 158.56 97.4139 159.592 88.8018C160.623 80.1898 167.788 74.6083 175.407 75.5208C179.382 75.997 181.986 78.1008 183.333 79.9421L185.45 62.2685ZM169.805 90.0252C169.382 93.5583 171.646 96.6294 175.234 97.0593C178.823 97.4891 181.748 95.0396 182.172 91.5065C182.595 87.9733 180.331 84.9023 176.742 84.4724C173.154 84.0426 170.228 86.4921 169.805 90.0252Z" fill="#FFB800"/>
<path fill-rule="evenodd" clip-rule="evenodd" d="M181.533 101.231L181.096 104.881C181.079 105.017 181.176 105.141 181.312 105.157L189.61 106.151C189.746 106.167 189.869 106.07 189.885 105.934L194.98 63.4099C194.996 63.2738 194.899 63.1503 194.763 63.134L186.466 62.1402C186.329 62.1238 186.206 62.221 186.19 62.3571L183.848 81.9064L182.732 80.3818C181.49 78.6841 179.061 76.7086 175.318 76.2602C168.137 75.4 161.317 80.6569 160.331 88.8904C159.345 97.1239 164.73 103.843 171.911 104.703C175.654 105.151 178.48 103.805 180.089 102.449L181.533 101.231ZM182.679 79.1429C181.214 77.5333 178.814 75.929 175.407 75.5208C167.788 74.6083 160.623 80.1898 159.592 88.8018C158.56 97.4139 164.204 104.53 171.822 105.442C175.23 105.85 177.941 104.858 179.744 103.64C180.045 103.437 180.32 103.228 180.569 103.018L180.356 104.792C180.291 105.337 180.679 105.831 181.224 105.896L189.521 106.89C190.065 106.955 190.56 106.567 190.625 106.022L195.719 63.4985C195.784 62.9541 195.396 62.4598 194.851 62.3946L186.554 61.4008C186.01 61.3356 185.515 61.7241 185.45 62.2685L183.333 79.9421C183.141 79.6792 182.923 79.411 182.679 79.1429ZM175.146 97.7986C171.128 97.3173 168.596 93.8564 169.066 89.9366C169.535 86.0169 172.813 83.2518 176.831 83.7331C180.849 84.2144 183.381 87.6753 182.911 91.595C182.442 95.5148 179.164 98.2799 175.146 97.7986ZM175.234 97.0593C171.646 96.6294 169.382 93.5583 169.805 90.0252C170.228 86.4921 173.154 84.0426 176.742 84.4724C180.331 84.9023 182.595 87.9733 182.172 91.5065C181.748 95.0396 178.823 97.4891 175.234 97.0593Z" fill="url(#paint0_linear_1_4924)"/>
<path d="M145.116 93.1106C144.983 90.7236 143.483 88.8029 140.873 88.949C138.264 89.0952 136.988 91.1714 137.122 93.5584L137.953 108.388C137.983 108.936 137.564 109.404 137.017 109.435L128.674 109.902C128.126 109.933 127.658 109.514 127.627 108.967L126.127 82.1936C126.096 81.6461 126.515 81.1774 127.063 81.1468L135.406 80.6794C135.954 80.6488 136.422 81.0677 136.453 81.6152L136.553 83.3995C138.116 81.4743 140.69 79.7152 144.243 79.5162C150.517 79.1648 154.91 83.0395 155.277 89.5901L156.273 107.362C156.304 107.91 155.885 108.378 155.337 108.409L146.994 108.876C146.446 108.907 145.978 108.488 145.947 107.941L145.116 93.1106Z" fill="#FFB800"/>
<path fill-rule="evenodd" clip-rule="evenodd" d="M135.917 85.3643L135.709 81.6568C135.702 81.52 135.585 81.4152 135.448 81.4229L127.105 81.8902C126.968 81.8979 126.863 82.0151 126.871 82.1519L128.37 108.925C128.378 109.062 128.495 109.167 128.632 109.159L136.975 108.692C137.112 108.684 137.217 108.567 137.209 108.43L136.379 93.6001C136.304 92.2693 136.619 90.9698 137.374 89.9659C138.141 88.9456 139.32 88.2902 140.832 88.2055C142.344 88.1208 143.588 88.6405 144.465 89.5687C145.327 90.4821 145.785 91.7382 145.86 93.069L146.691 107.899C146.698 108.036 146.815 108.14 146.952 108.133L155.296 107.665C155.432 107.658 155.537 107.541 155.53 107.404L154.534 89.6317C154.359 86.5164 153.234 84.1071 151.476 82.5172C149.718 80.9278 147.256 80.0932 144.285 80.2597C140.973 80.4452 138.583 82.0802 137.131 83.8688L135.917 85.3643ZM136.453 81.6152C136.422 81.0677 135.954 80.6488 135.406 80.6794L127.063 81.1468C126.515 81.1774 126.096 81.6461 126.127 82.1936L127.627 108.967C127.658 109.514 128.126 109.933 128.674 109.902L137.017 109.435C137.564 109.404 137.983 108.936 137.953 108.388L137.122 93.5584C136.988 91.1714 138.264 89.0952 140.873 88.949C143.483 88.8029 144.983 90.7236 145.116 93.1106L145.947 107.941C145.978 108.488 146.446 108.907 146.994 108.876L155.337 108.409C155.885 108.378 156.304 107.91 156.273 107.362L155.277 89.5901C154.91 83.0395 150.517 79.1648 144.243 79.5162C141.179 79.6878 138.842 81.02 137.255 82.6183C137.002 82.8732 136.768 83.1348 136.553 83.3995L136.453 81.6152Z" fill="url(#paint1_linear_1_4924)"/>
<path d="M112.017 80.9535C112.101 80.4115 112.607 80.0396 113.149 80.1228L121.409 81.3904C121.951 81.4736 122.323 81.9804 122.24 82.5224L118.172 109.027C118.088 109.569 117.582 109.941 117.039 109.858L108.78 108.59C108.238 108.507 107.866 108 107.949 107.458L108.22 105.692C106.428 107.104 103.355 108.433 99.3984 107.825C91.814 106.661 86.4088 99.3629 87.7247 90.7897C89.0407 82.2165 96.386 76.8749 103.97 78.039C107.927 78.6463 110.46 80.8351 111.746 82.72L112.017 80.9535ZM97.8922 92.3502C97.3523 95.8674 99.5137 99.0116 103.086 99.5599C106.658 100.108 109.663 97.7568 110.203 94.2396C110.743 90.7224 108.582 87.5781 105.009 87.0298C101.437 86.4816 98.4321 88.8329 97.8922 92.3502Z" fill="#FFB800"/>
<path fill-rule="evenodd" clip-rule="evenodd" d="M109.243 103.937L108.685 107.571C108.664 107.707 108.757 107.833 108.893 107.854L117.152 109.122C117.288 109.143 117.415 109.05 117.435 108.914L121.504 82.4094C121.525 82.2739 121.432 82.1472 121.296 82.1264L113.036 80.8588C112.901 80.838 112.774 80.931 112.753 81.0665L112.196 84.7002L111.131 83.1396C109.946 81.4016 107.584 79.3469 103.857 78.775C96.7086 77.6778 89.7189 82.7063 88.4608 90.9027C87.2027 99.099 92.3626 105.992 99.5114 107.089C103.238 107.661 106.107 106.409 107.759 105.107L109.243 103.937ZM111.119 81.8996C109.708 80.2424 107.363 78.5596 103.97 78.039C96.386 76.8749 89.0407 82.2165 87.7247 90.7897C86.4088 99.3629 91.814 106.661 99.3984 107.825C102.791 108.346 105.533 107.444 107.376 106.286C107.682 106.093 107.964 105.893 108.22 105.692L107.949 107.458C107.866 108 108.238 108.507 108.78 108.59L117.039 109.858C117.582 109.941 118.088 109.569 118.172 109.027L122.24 82.5224C122.323 81.9804 121.951 81.4736 121.409 81.3904L113.149 80.1228C112.607 80.0396 112.101 80.4115 112.017 80.9535L111.746 82.72C111.563 82.4509 111.354 82.1756 111.119 81.8996ZM102.973 100.296C98.9728 99.682 96.5572 96.1392 97.1561 92.2372C97.7551 88.3351 101.122 85.6799 105.122 86.2938C109.122 86.9078 111.538 90.4505 110.939 94.3526C110.34 98.2546 106.973 100.91 102.973 100.296ZM103.086 99.5599C99.5137 99.0116 97.3523 95.8674 97.8922 92.3502C98.4321 88.8329 101.437 86.4816 105.009 87.0298C108.582 87.5781 110.743 90.7224 110.203 94.2396C109.663 97.7568 106.658 100.108 103.086 99.5599Z" fill="url(#paint2_linear_1_4924)"/>
<path d="M76.0419 67.0409C76.0954 66.4951 76.5811 66.0961 77.1269 66.1495L85.4434 66.9638C85.9892 67.0172 86.3883 67.5029 86.3348 68.0486L82.1611 110.673C82.1076 111.218 81.6219 111.618 81.0761 111.564L72.7596 110.75C72.2138 110.696 71.8147 110.211 71.8681 109.665L76.0419 67.0409Z" fill="#FFB800"/>
<path fill-rule="evenodd" clip-rule="evenodd" d="M85.3708 67.7049L77.0543 66.8906C76.9178 66.8772 76.7964 66.977 76.7831 67.1134L72.6093 109.737C72.5959 109.874 72.6957 109.995 72.8321 110.009L81.1487 110.823C81.2851 110.836 81.4066 110.737 81.4199 110.6L85.5937 67.9761C85.6071 67.8397 85.5073 67.7182 85.3708 67.7049ZM77.1269 66.1495C76.5811 66.0961 76.0954 66.4951 76.0419 67.0409L71.8681 109.665C71.8147 110.211 72.2138 110.696 72.7596 110.75L81.0761 111.564C81.6219 111.618 82.1076 111.218 82.1611 110.673L86.3348 68.0486C86.3883 67.5029 85.9892 67.0172 85.4434 66.9638L77.1269 66.1495Z" fill="url(#paint3_linear_1_4924)"/>
<path d="M58.4154 107.354C55.7966 107.696 52.9848 107.38 50.5496 106.365C48.1679 105.373 46.1463 103.71 45.0179 101.339C44.7892 100.858 45.042 100.302 45.5351 100.102L52.4912 97.2808C52.9986 97.0749 53.5666 97.3276 53.8625 97.7884C54.7861 99.2268 56.1843 99.717 57.4547 99.551C58.7828 99.3775 59.674 98.5564 59.5155 97.3439C59.0327 93.6485 45.785 98.7852 44.3291 87.6412C43.6351 82.3291 47.6284 76.9331 54.7309 76.0053C59.9645 75.3216 64.5761 77.334 66.837 81.6456C67.1001 82.1473 66.8323 82.7488 66.2995 82.9413L59.3199 85.4618C58.7944 85.6516 58.2334 85.3569 57.9386 84.8822C57.4121 84.0344 56.6369 83.6256 55.6263 83.7577C54.5291 83.901 53.8765 84.7497 54.0048 85.7313C54.465 89.2534 67.8357 84.1594 69.3294 95.592C70.1743 102.059 64.363 106.577 58.4154 107.354Z" fill="#FFB800"/>
<path fill-rule="evenodd" clip-rule="evenodd" d="M52.7711 97.9708L45.815 100.792C45.7508 100.818 45.7093 100.865 45.6901 100.909C45.6726 100.95 45.6741 100.985 45.6903 101.019C46.7242 103.192 48.5869 104.74 50.8361 105.678C53.1401 106.638 55.8186 106.942 58.3189 106.615C61.1514 106.245 63.9371 104.984 65.9002 103.073C67.8503 101.175 68.9783 98.6533 68.591 95.6885C68.2389 92.994 67.2043 91.3525 65.9022 90.3032C64.5769 89.2353 62.8987 88.719 61.1575 88.4298C60.2904 88.2858 59.4255 88.2006 58.5956 88.1263C58.4777 88.1158 58.3602 88.1054 58.2432 88.0951C57.5479 88.0339 56.8724 87.9744 56.2755 87.887C55.5879 87.7863 54.9151 87.6379 54.3836 87.3543C53.8164 87.0516 53.3626 86.5646 53.2664 85.8277C53.0808 84.4071 54.0569 83.2117 55.5298 83.0193C56.1619 82.9367 56.7602 83.0199 57.2952 83.2856C57.8275 83.5499 58.2493 83.9711 58.5712 84.4894C58.6463 84.6103 58.7503 84.698 58.8484 84.7422C58.9405 84.7836 59.011 84.7817 59.067 84.7615L66.0465 82.2409C66.1154 82.216 66.1604 82.1676 66.1813 82.1185C66.2005 82.0731 66.1987 82.0319 66.1775 81.9914C64.0884 78.0074 59.8133 76.0923 54.8274 76.7437C48.0669 77.6268 44.4349 82.7032 45.0675 87.5448C45.4096 90.1632 46.4265 91.7456 47.7086 92.7536C49.0162 93.7816 50.6764 94.2729 52.4053 94.5505C53.2661 94.6888 54.1243 94.7714 54.9499 94.8467C55.0148 94.8526 55.0796 94.8585 55.1443 94.8644C55.8909 94.9322 56.6194 94.9984 57.2608 95.1006C57.9481 95.21 58.6211 95.3723 59.1535 95.6765C59.7225 96.0015 60.1573 96.5079 60.254 97.2474C60.362 98.0746 60.1075 98.8115 59.5758 99.3569C59.0612 99.8849 58.3351 100.187 57.5512 100.289C56.008 100.491 54.3221 99.8824 53.2359 98.1907C53.1694 98.0871 53.0753 98.0135 52.9844 97.9778C52.8982 97.9441 52.828 97.9477 52.7711 97.9708ZM50.5496 106.365C52.9848 107.38 55.7966 107.696 58.4154 107.354C64.363 106.577 70.1743 102.059 69.3294 95.592C68.3688 88.2401 62.4967 87.7225 58.3048 87.353C55.9781 87.1479 54.169 86.9884 54.0048 85.7313C53.8765 84.7497 54.5291 83.901 55.6263 83.7577C56.6369 83.6256 57.4121 84.0344 57.9386 84.8822C58.2334 85.3569 58.7944 85.6516 59.3199 85.4618L66.2995 82.9413C66.8323 82.7488 67.1001 82.1473 66.837 81.6456C64.5761 77.334 59.9645 75.3216 54.7309 76.0053C47.6284 76.9331 43.6351 82.3291 44.3291 87.6412C45.253 94.7129 50.9253 95.2286 55.0709 95.6055C57.4581 95.8225 59.3391 95.9935 59.5155 97.3439C59.674 98.5564 58.7828 99.3775 57.4547 99.551C56.1843 99.717 54.7861 99.2268 53.8625 97.7884C53.5666 97.3276 52.9986 97.0749 52.4912 97.2808L45.5351 100.102C45.042 100.302 44.7892 100.858 45.0179 101.339C46.1463 103.71 48.1679 105.373 50.5496 106.365Z" fill="url(#paint4_linear_1_4924)"/>
<path d="M205.852 114.7C200.893 114.309 195.74 111.379 194.538 106.473C194.411 105.956 194.774 105.464 195.298 105.371L202.267 104.127C202.806 104.031 203.309 104.397 203.508 104.907C204.092 106.405 205.29 107.127 206.498 107.222C207.773 107.323 208.768 106.732 208.86 105.568C209.141 102.021 195.75 104.198 196.595 93.5001C196.998 88.4008 201.796 84.1508 208.614 84.6896C213.621 85.0853 217.521 87.86 218.793 92.3082C218.949 92.8529 218.562 93.3862 218.001 93.464L211.075 94.4245C210.521 94.5012 210.035 94.0957 209.837 93.5731C209.509 92.7028 208.871 92.1835 207.916 92.1081C206.863 92.0248 206.085 92.6885 206.011 93.6307C205.744 97.0118 219.241 94.8994 218.374 105.874C217.883 112.082 211.561 115.152 205.852 114.7Z" fill="#FFB800"/>
<path fill-rule="evenodd" clip-rule="evenodd" d="M195.261 106.296C196.357 110.77 201.129 113.58 205.91 113.958C208.623 114.172 211.467 113.547 213.672 112.155C215.862 110.772 217.407 108.649 217.631 105.815C217.835 103.236 217.196 101.507 216.193 100.277C215.172 99.0236 213.713 98.2119 212.146 97.5981C211.366 97.2925 210.576 97.0421 209.815 96.8085C209.707 96.7754 209.6 96.7424 209.492 96.7097C208.855 96.5149 208.235 96.3253 207.694 96.1252C207.071 95.8949 206.467 95.6214 206.022 95.2474C205.546 94.8474 205.212 94.2929 205.269 93.572C205.378 92.1884 206.544 91.2527 207.975 91.3657C208.577 91.4134 209.118 91.6058 209.568 91.954C210.015 92.3008 210.33 92.7704 210.534 93.3098C210.586 93.4473 210.673 93.5572 210.761 93.622C210.845 93.6827 210.914 93.695 210.972 93.6869L217.898 92.7264C217.971 92.7164 218.025 92.6783 218.055 92.635C218.083 92.5952 218.089 92.5557 218.077 92.513C216.906 88.4191 213.314 85.808 208.555 85.4319C202.081 84.9203 197.703 88.9326 197.337 93.5588C197.139 96.0646 197.774 97.735 198.766 98.9226C199.778 100.135 201.226 100.92 202.784 101.521C203.559 101.82 204.343 102.066 205.1 102.3C205.159 102.319 205.219 102.337 205.278 102.355C205.962 102.566 206.63 102.773 207.21 102.995C207.831 103.234 208.433 103.52 208.874 103.914C209.348 104.336 209.66 104.904 209.603 105.627C209.539 106.431 209.15 107.078 208.537 107.488C207.944 107.885 207.198 108.024 206.44 107.964C204.96 107.848 203.507 106.954 202.814 105.177C202.768 105.06 202.689 104.967 202.606 104.912C202.528 104.86 202.458 104.85 202.398 104.86L195.429 106.104C195.36 106.116 195.31 106.153 195.283 106.192C195.258 106.228 195.252 106.261 195.261 106.296ZM194.538 106.473C195.74 111.379 200.893 114.309 205.852 114.7C211.561 115.152 217.883 112.082 218.374 105.874C218.932 98.8166 213.549 97.1711 209.707 95.9965C207.574 95.3445 205.916 94.8375 206.011 93.6307C206.085 92.6885 206.863 92.0248 207.916 92.1081C208.871 92.1835 209.509 92.7028 209.837 93.5731C210.035 94.0957 210.521 94.5012 211.075 94.4245L218.001 93.464C218.562 93.3862 218.949 92.8529 218.793 92.3082C217.521 87.86 213.621 85.0853 208.614 84.6896C201.796 84.1508 196.998 88.4008 196.595 93.5001C196.058 100.288 201.255 101.893 205.053 103.065C207.239 103.74 208.963 104.272 208.86 105.568C208.768 106.732 207.773 107.323 206.498 107.222C205.29 107.127 204.092 106.405 203.508 104.907C203.309 104.397 202.806 104.031 202.267 104.127L195.298 105.371C194.774 105.464 194.411 105.956 194.538 106.473Z" fill="url(#paint5_linear_1_4924)"/>
<path d="M23.158 116.175C22.6142 116.245 22.116 115.862 22.0451 115.318L21.2287 109.051C21.1579 108.507 21.5413 108.009 22.0851 107.938L27.8971 107.181L24.6293 82.0969L18.8173 82.854C18.2735 82.9248 17.7753 82.5415 17.7044 81.9977L16.888 75.7306C16.8172 75.1869 17.2006 74.6887 17.7444 74.6178L39.2178 71.8208C39.7616 71.7499 40.2598 72.1333 40.3306 72.6771L41.1471 78.9441C41.2179 79.4879 40.8345 79.9861 40.2907 80.0569L34.4211 80.8215L37.6889 105.906L43.5585 105.141C44.1023 105.07 44.6005 105.454 44.6713 105.998L45.4878 112.265C45.5586 112.808 45.1752 113.307 44.6314 113.377L23.158 116.175Z" fill="#FFB800"/>
<path fill-rule="evenodd" clip-rule="evenodd" d="M28.7317 107.823L22.1813 108.677C22.0453 108.694 21.9495 108.819 21.9672 108.955L22.7836 115.222C22.8013 115.358 22.9259 115.454 23.0618 115.436L44.5352 112.639C44.6712 112.621 44.767 112.497 44.7493 112.361L43.9329 106.094C43.9152 105.958 43.7906 105.862 43.6547 105.88L37.0466 106.74L33.5864 80.1793L40.1945 79.3185C40.3305 79.3008 40.4263 79.1763 40.4086 79.0403L39.5922 72.7732C39.5745 72.6373 39.4499 72.5415 39.314 72.5592L17.8405 75.3562C17.7046 75.374 17.6088 75.4985 17.6265 75.6344L18.4429 81.9015C18.4606 82.0375 18.5852 82.1333 18.7211 82.1156L25.2716 81.2623L28.7317 107.823ZM37.6889 105.906L34.4211 80.8215L40.2907 80.0569C40.8345 79.9861 41.2179 79.4879 41.1471 78.9441L40.3306 72.6771C40.2598 72.1333 39.7616 71.7499 39.2178 71.8208L17.7444 74.6178C17.2006 74.6887 16.8172 75.1869 16.888 75.7306L17.7044 81.9977C17.7753 82.5415 18.2735 82.9248 18.8173 82.854L24.6293 82.0969L27.8971 107.181L22.0851 107.938C21.5413 108.009 21.1579 108.507 21.2287 109.051L22.0451 115.318C22.116 115.862 22.6142 116.245 23.158 116.175L44.6314 113.377C45.1752 113.307 45.5586 112.808 45.4878 112.265L44.6713 105.998C44.6005 105.454 44.1023 105.07 43.5585 105.141L37.6889 105.906Z" fill="url(#paint6_linear_1_4924)"/>
<ellipse cx="104.538" cy="93.3226" rx="8.42167" ry="8.42123" fill="url(#paint7_linear_1_4924)"/>
<path d="M104.538 84.9443C109.165 84.9444 112.916 88.6956 112.916 93.3223C112.916 97.9491 109.165 101.7 104.538 101.7C99.9109 101.7 96.1592 97.9492 96.1592 93.3223C96.1594 88.6955 99.911 84.9443 104.538 84.9443Z" stroke="#FFA933" stroke-opacity="0.96" stroke-width="0.086875"/>
<path d="M104.538 88.4473C105.063 88.4473 105.569 88.5318 106.043 88.6855C105.66 89.0837 105.425 89.624 105.425 90.2197C105.425 91.4436 106.417 92.4365 107.641 92.4365C108.237 92.4365 108.776 92.1993 109.175 91.8164C109.329 92.2909 109.413 92.7974 109.413 93.3232C109.413 96.0155 107.231 98.198 104.538 98.1982C101.845 98.1982 99.6624 96.0157 99.6621 93.3232C99.6621 90.6306 101.845 88.4473 104.538 88.4473Z" fill="#1A192D"/>
<path d="M124.984 67.3869C125.041 66.8415 125.53 66.4487 126.077 66.4865C126.809 66.537 127.411 66.543 127.884 66.5045C128.551 66.491 129.048 66.3142 129.375 65.974C129.738 65.6792 129.973 65.2254 130.079 64.6125C130.225 64.0039 130.353 63.1853 130.46 62.1567L133.387 34.1523C133.444 33.6069 133.932 33.211 134.478 33.268L143.18 34.1775C143.726 34.2345 144.122 34.7228 144.065 35.2682L141.125 63.396C140.845 66.0705 140.385 68.2892 139.743 70.0523C139.101 71.8154 138.167 73.1943 136.939 74.1891C135.754 75.1882 134.211 75.8173 132.312 76.0764C130.45 76.381 128.141 76.3892 125.384 76.1011L125.075 76.0688C124.53 76.0118 124.134 75.5235 124.191 74.9781L124.984 67.3869Z" fill="url(#paint8_linear_1_4924)"/>
<path fill-rule="evenodd" clip-rule="evenodd" d="M136.939 74.1891C138.167 73.1943 139.101 71.8154 139.743 70.0523C140.385 68.2892 140.845 66.0705 141.125 63.396L144.065 35.2682C144.122 34.7228 143.726 34.2345 143.18 34.1775L134.478 33.268C133.932 33.211 133.444 33.6069 133.387 34.1523L130.46 62.1567C130.353 63.1853 130.225 64.0039 130.079 64.6125C129.973 65.2254 129.738 65.6792 129.375 65.974C129.048 66.3142 128.551 66.491 127.884 66.5045C127.411 66.543 126.809 66.537 126.077 66.4865C125.53 66.4487 125.041 66.8415 124.984 67.3869L124.191 74.9781C124.134 75.5235 124.53 76.0118 125.075 76.0688L125.384 76.1011C128.141 76.3892 130.45 76.381 132.312 76.0764C134.211 75.8173 135.754 75.1882 136.939 74.1891ZM127.91 67.0005C127.405 67.0404 126.78 67.0326 126.042 66.9817C125.75 66.9615 125.506 67.171 125.478 67.4385L124.685 75.0297C124.656 75.3024 124.854 75.5466 125.127 75.5751L125.435 75.6073C128.167 75.8928 130.429 75.8814 132.232 75.5865L132.239 75.5854L132.245 75.5845C134.073 75.3352 135.521 74.7351 136.62 73.8095L136.623 73.8065L136.627 73.8035C137.772 72.8752 138.659 71.577 139.276 69.8825C139.9 68.17 140.354 65.9943 140.631 63.3444L143.571 35.2166C143.599 34.9439 143.401 34.6997 143.129 34.6712L134.426 33.7618C134.153 33.7333 133.909 33.9312 133.881 34.2039L130.954 62.2083C130.846 63.2382 130.718 64.076 130.565 64.7133C130.446 65.3865 130.177 65.9513 129.711 66.3401C129.265 66.7897 128.635 66.9833 127.91 67.0005Z" fill="url(#paint9_linear_1_4924)" fill-opacity="0.96"/>
<path d="M134.117 23.4663C133.754 26.9323 136.301 29.9432 139.71 30.2994C143.118 30.6556 146.233 28.2364 146.595 24.7703C146.957 21.3043 144.41 18.2934 141.002 17.9372C137.593 17.581 134.479 20.0002 134.117 23.4663Z" fill="url(#paint10_linear_1_4924)"/>
<path fill-rule="evenodd" clip-rule="evenodd" d="M134.61 23.5179C134.278 26.7023 136.617 29.477 139.761 29.8057C142.906 30.1343 145.769 27.9032 146.101 24.7187C146.434 21.5343 144.095 18.7596 140.95 18.4309C137.806 18.1023 134.943 20.3335 134.61 23.5179ZM139.71 30.2994C136.301 29.9432 133.754 26.9323 134.117 23.4663C134.479 20.0002 137.593 17.581 141.002 17.9372C144.41 18.2934 146.957 21.3043 146.595 24.7703C146.233 28.2364 143.118 30.6556 139.71 30.2994Z" fill="url(#paint11_linear_1_4924)" fill-opacity="0.96"/>
<path d="M94.1934 51.4358C94.1934 42.5954 101.533 36.3682 109.985 36.3682C118.436 36.3682 125.776 42.5954 125.776 51.4358C125.776 60.2762 118.436 66.5034 109.985 66.5034C101.533 66.5034 94.1934 60.2762 94.1934 51.4358ZM103.757 51.4358C103.757 54.9942 106.37 57.7742 109.985 57.7742C113.599 57.7742 116.212 54.9942 116.212 51.4358C116.212 47.8774 113.599 45.0974 109.985 45.0974C106.37 45.0974 103.757 47.8774 103.757 51.4358Z" fill="url(#paint12_linear_1_4924)"/>
<path fill-rule="evenodd" clip-rule="evenodd" d="M109.985 36.8646C101.768 36.8646 94.6898 42.9074 94.6898 51.4358C94.6898 59.9642 101.768 66.0069 109.985 66.0069C118.201 66.0069 125.279 59.9642 125.279 51.4358C125.279 42.9074 118.201 36.8646 109.985 36.8646ZM109.985 58.2706C106.082 58.2706 103.261 55.2537 103.261 51.4358C103.261 47.6178 106.082 44.6009 109.985 44.6009C113.887 44.6009 116.709 47.6178 116.709 51.4358C116.709 55.2537 113.887 58.2706 109.985 58.2706ZM109.985 36.3682C101.533 36.3682 94.1934 42.5954 94.1934 51.4358C94.1934 60.2762 101.533 66.5034 109.985 66.5034C118.436 66.5034 125.776 60.2762 125.776 51.4358C125.776 42.5954 118.436 36.3682 109.985 36.3682ZM109.985 57.7742C106.37 57.7742 103.757 54.9942 103.757 51.4358C103.757 47.8774 106.37 45.0974 109.985 45.0974C113.599 45.0974 116.212 47.8774 116.212 51.4358C116.212 54.9942 113.599 57.7742 109.985 57.7742Z" fill="url(#paint13_linear_1_4924)" fill-opacity="0.96"/>
<path d="M147.336 53.7218C146.453 44.9256 153.134 37.9967 161.543 37.1528C169.953 36.3089 177.877 41.7721 178.76 50.5684C179.643 59.3646 172.962 66.2935 164.553 67.1374C156.143 67.9812 148.218 62.518 147.336 53.7218ZM156.852 52.7669C157.207 56.3075 160.085 58.8127 163.681 58.4518C167.277 58.0909 169.6 55.0639 169.244 51.5233C168.889 47.9826 166.011 45.4775 162.415 45.8383C158.819 46.1992 156.496 49.2263 156.852 52.7669Z" fill="url(#paint14_linear_1_4924)"/>
<path fill-rule="evenodd" clip-rule="evenodd" d="M161.593 37.6467C153.417 38.4672 146.978 45.1864 147.83 53.6722C148.681 62.158 156.327 67.4639 164.503 66.6434C172.679 65.823 179.118 59.1037 178.266 50.6179C177.415 42.1321 169.769 36.8263 161.593 37.6467ZM163.73 58.9457C159.847 59.3354 156.739 56.6153 156.358 52.8164C155.976 49.0176 158.482 45.7341 162.365 45.3444C166.249 44.9547 169.357 47.6748 169.738 51.4737C170.12 55.2726 167.614 58.5561 163.73 58.9457ZM161.543 37.1528C153.134 37.9967 146.453 44.9256 147.336 53.7218C148.218 62.518 156.143 67.9812 164.553 67.1374C172.962 66.2935 179.643 59.3646 178.76 50.5684C177.877 41.7721 169.953 36.3089 161.543 37.1528ZM163.681 58.4518C160.085 58.8127 157.207 56.3075 156.852 52.7669C156.496 49.2263 158.819 46.1992 162.415 45.8383C166.011 45.4775 168.889 47.9826 169.244 51.5233C169.6 55.0639 167.277 58.0909 163.681 58.4518Z" fill="url(#paint15_linear_1_4924)" fill-opacity="0.96"/>
<path d="M51.2635 24.7446C51.1859 24.2018 51.5631 23.6988 52.106 23.6212L66.1499 21.614C78.0393 19.9147 88.8914 27.4624 90.5829 39.2962C92.2744 51.1299 83.9714 61.4154 72.082 63.1146L58.038 65.1219C57.4952 65.1994 56.9922 64.8223 56.9146 64.2795L51.2635 24.7446ZM79.7944 40.8381C78.8818 34.4534 73.5815 29.5944 66.701 30.5778L64.1612 30.9408C63.6183 31.0184 63.2411 31.5214 63.3187 32.0642L66.4365 53.876C66.5141 54.4188 67.017 54.796 67.5599 54.7184L69.9897 54.3711C76.9802 53.372 80.707 47.2228 79.7944 40.8381Z" fill="url(#paint16_linear_1_4924)"/>
<path fill-rule="evenodd" clip-rule="evenodd" d="M66.2202 22.1054L52.1762 24.1127C51.9048 24.1515 51.7162 24.4029 51.755 24.6743L57.4061 64.2092C57.4449 64.4806 57.6964 64.6692 57.9678 64.6304L72.0117 62.6232C83.6509 60.9597 91.7412 50.908 90.0915 39.3664C88.4417 27.8249 77.8594 20.4419 66.2202 22.1054ZM66.6308 30.0864C73.823 29.0584 79.3405 34.154 80.2859 40.7679C81.2317 47.3851 77.3592 53.8193 70.0599 54.8625L67.6301 55.2098C66.8159 55.3262 66.0614 54.7605 65.945 53.9462L62.8273 32.1344C62.7109 31.3202 63.2766 30.5658 64.0909 30.4494L66.6308 30.0864ZM52.106 23.6212C51.5631 23.6988 51.1859 24.2018 51.2635 24.7446L56.9146 64.2795C56.9922 64.8223 57.4952 65.1994 58.038 65.1219L72.082 63.1146C83.9714 61.4154 92.2744 51.1299 90.5829 39.2962C88.8914 27.4624 78.0393 19.9147 66.1499 21.614L52.106 23.6212ZM66.701 30.5778C73.5815 29.5944 78.8818 34.4534 79.7944 40.8381C80.707 47.2228 76.9802 53.372 69.9897 54.3711L67.5599 54.7184C67.017 54.796 66.5141 54.4188 66.4365 53.876L63.3187 32.0642C63.2411 31.5214 63.6183 31.0184 64.1612 30.9408L66.701 30.5778Z" fill="url(#paint17_linear_1_4924)" fill-opacity="0.96"/>
<defs>
<linearGradient id="paint0_linear_1_4924" x1="171.051" y1="70.1145" x2="174.508" y2="99.7017" gradientUnits="userSpaceOnUse">
<stop offset="0.286928" stop-color="#FFC93F"/>
<stop offset="1" stop-color="#FFA932"/>
</linearGradient>
<linearGradient id="paint1_linear_1_4924" x1="133.128" y1="80.3903" x2="141.567" y2="91.8086" gradientUnits="userSpaceOnUse">
<stop offset="0.286928" stop-color="#FFC93F"/>
<stop offset="1" stop-color="#FFA932"/>
</linearGradient>
<linearGradient id="paint2_linear_1_4924" x1="98.0055" y1="84.1592" x2="101.789" y2="104.681" gradientUnits="userSpaceOnUse">
<stop offset="0.286928" stop-color="#FFC93F"/>
<stop offset="1" stop-color="#FFA932"/>
</linearGradient>
<linearGradient id="paint3_linear_1_4924" x1="77.9986" y1="76.6259" x2="76.4383" y2="106.889" gradientUnits="userSpaceOnUse">
<stop offset="0.286928" stop-color="#FFC93F"/>
<stop offset="1" stop-color="#FFA932"/>
</linearGradient>
<linearGradient id="paint4_linear_1_4924" x1="58.4119" y1="78.9005" x2="53.9476" y2="105.583" gradientUnits="userSpaceOnUse">
<stop offset="0.286928" stop-color="#FFC93F"/>
<stop offset="1" stop-color="#FFA932"/>
</linearGradient>
<linearGradient id="paint5_linear_1_4924" x1="204.369" y1="86.5956" x2="211.249" y2="93.3764" gradientUnits="userSpaceOnUse">
<stop offset="0.286928" stop-color="#FFC93F"/>
<stop offset="1" stop-color="#FFA932"/>
</linearGradient>
<linearGradient id="paint6_linear_1_4924" x1="33.5893" y1="78.4041" x2="28.8322" y2="111.703" gradientUnits="userSpaceOnUse">
<stop offset="0.286928" stop-color="#FFC93F"/>
<stop offset="1" stop-color="#FFA932"/>
</linearGradient>
<linearGradient id="paint7_linear_1_4924" x1="97.4205" y1="87.287" x2="95.0633" y2="100.086" gradientUnits="userSpaceOnUse">
<stop stop-color="#F8FAFC"/>
<stop offset="1" stop-color="#F5F6F8"/>
</linearGradient>
<linearGradient id="paint8_linear_1_4924" x1="129.177" y1="38.9158" x2="112.544" y2="64.4139" gradientUnits="userSpaceOnUse">
<stop stop-color="#F8FAFC"/>
<stop offset="1" stop-color="#F5F6F8"/>
</linearGradient>
<linearGradient id="paint9_linear_1_4924" x1="134.014" y1="37.1848" x2="129.911" y2="76.4467" gradientUnits="userSpaceOnUse">
<stop offset="0.620268" stop-color="white"/>
<stop offset="1" stop-color="#B4D5E9"/>
</linearGradient>
<linearGradient id="paint10_linear_1_4924" x1="135.546" y1="19.1372" x2="132.848" y2="28.3579" gradientUnits="userSpaceOnUse">
<stop stop-color="#F8FAFC"/>
<stop offset="1" stop-color="#F5F6F8"/>
</linearGradient>
<linearGradient id="paint11_linear_1_4924" x1="139.307" y1="18.8918" x2="138.135" y2="30.0985" gradientUnits="userSpaceOnUse">
<stop offset="0.620268" stop-color="white"/>
<stop offset="1" stop-color="#B4D5E9"/>
</linearGradient>
<linearGradient id="paint12_linear_1_4924" x1="96.6389" y1="40.6367" x2="92.6026" y2="63.6042" gradientUnits="userSpaceOnUse">
<stop stop-color="#F8FAFC"/>
<stop offset="1" stop-color="#F5F6F8"/>
</linearGradient>
<linearGradient id="paint13_linear_1_4924" x1="105.99" y1="39.0974" x2="105.99" y2="66.4156" gradientUnits="userSpaceOnUse">
<stop offset="0.620268" stop-color="white"/>
<stop offset="1" stop-color="#B4D5E9"/>
</linearGradient>
<linearGradient id="paint14_linear_1_4924" x1="148.691" y1="42.7325" x2="146.968" y2="65.9883" gradientUnits="userSpaceOnUse">
<stop stop-color="#F8FAFC"/>
<stop offset="1" stop-color="#F5F6F8"/>
</linearGradient>
<linearGradient id="paint15_linear_1_4924" x1="157.841" y1="40.2672" x2="160.569" y2="67.449" gradientUnits="userSpaceOnUse">
<stop offset="0.620268" stop-color="white"/>
<stop offset="1" stop-color="#B4D5E9"/>
</linearGradient>
<linearGradient id="paint16_linear_1_4924" x1="54.7892" y1="29.2362" x2="52.7112" y2="61.4076" gradientUnits="userSpaceOnUse">
<stop stop-color="#F8FAFC"/>
<stop offset="1" stop-color="#F5F6F8"/>
</linearGradient>
<linearGradient id="paint17_linear_1_4924" x1="65.2912" y1="25.572" x2="70.6682" y2="63.1934" gradientUnits="userSpaceOnUse">
<stop offset="0.620268" stop-color="white"/>
<stop offset="1" stop-color="#B4D5E9"/>
</linearGradient>
</defs>
</svg>
