<svg width="148" height="143" viewBox="0 0 148 143" fill="none" xmlns="http://www.w3.org/2000/svg">
<path d="M45.0768 77.0385C45.0768 77.0385 54.6767 79.1077 58.2981 74.3802C61.9195 69.6527 50.1566 63.4362 50.1566 63.4362" fill="#FFEDE5"/>
<path d="M53.5871 57.0105C53.5871 57.0105 60.8694 63.6021 66.3692 61.3171C71.869 59.0322 64.7876 47.7694 64.7876 47.7694" fill="#FFEDE5"/>
<path d="M99.0449 101.933C109.401 97.1473 114.122 85.3056 109.586 75.4881C105.049 65.6707 92.9708 61.5922 82.6144 66.378C72.2579 71.1639 67.5369 83.0055 72.0737 92.823C76.6105 102.64 88.6843 106.721 99.0449 101.933Z" fill="#3A7FE7"/>
<path d="M72.5728 107.903C71.8938 106.989 69.8618 96.0592 74.39 92.412C78.9182 88.7648 86.308 95.4475 86.308 95.4475C86.308 95.4475 81.7721 88.0598 85.0599 84.211C88.3478 80.3621 96.4285 83.5207 96.4285 83.5207C96.4285 83.5207 88.1094 74.7618 94.0893 70.6199C100.069 66.4779 112.871 70.7401 112.871 70.7401L97.9906 99.6283" fill="#FFEDE5"/>
<path d="M122.047 61.8006C120.086 57.3284 118.036 52.7615 115.959 48.2674C110.775 37.0486 105.182 25.8173 101.564 19.2834C97.706 12.6542 90.7393 11.8737 85.6233 14.2379C81.1665 16.2975 78.1747 21.0811 80.8436 26.8563L85.7233 37.4159C85.7233 37.4159 85.7093 37.4073 85.6971 37.4028C70.1142 20.1219 53.8843 21.4739 50.1015 24.9376C46.3293 28.3914 53.6973 37.5093 53.7526 37.5743C46.5627 32.2934 36.5477 32.6248 33.1527 37.1672C30.6847 40.4711 35.0613 44.8031 41.7005 45.931C40.6678 46.9516 39.6929 48.021 38.7798 49.1372C35.6376 47.8574 31.9932 47.8208 28.6723 49.3554C22.3084 52.2963 19.5343 59.8371 22.4751 66.201C16.1112 69.1419 13.3371 76.6827 16.2779 83.0467C18.9084 88.739 25.2221 91.5468 31.0802 89.9718C31.7418 92.1766 32.5694 94.3702 33.5752 96.5468C44.3252 119.809 67.5291 126.701 89.4691 116.562C101.347 111.073 108.524 102.348 110.628 92.1685L113.525 98.437C116.421 104.706 122.637 106.039 127.426 103.826C132.214 101.614 135.892 95.7128 132.956 88.0637C136.907 89.6239 139.473 88.5238 140.177 86.4877C141.505 82.6644 136.366 76.194 129.428 73.9063C132.12 74.4633 136.117 74.8601 136.447 72.3936C136.872 69.2086 129.856 61.9755 122.056 61.7967L122.047 61.8006ZM85.9916 97.3547C73.782 102.997 60.3778 99.9791 53.975 86.1235C47.5721 72.268 52.6279 58.5158 65.6584 52.4942C78.6889 46.4726 91.894 50.78 98.5267 65.133C104.397 77.836 99.5155 91.1052 85.9875 97.3566L85.9916 97.3547Z" fill="#F9513E"/>
<path d="M30.9371 84.5342C34.6933 82.7984 36.3365 78.3411 34.5988 74.5808C32.8611 70.8205 28.4016 69.1833 24.6454 70.9191C20.8893 72.6549 19.2461 77.1122 20.9838 80.8725C22.7215 84.6328 27.1768 86.2719 30.9371 84.5342Z" fill="white"/>
<path d="M37.1383 67.6865C40.8986 65.9488 42.5377 61.4934 40.8 57.7331C39.0623 53.9728 34.6069 52.3338 30.8466 54.0714C27.0863 55.8091 25.4472 60.2645 27.1849 64.0248C28.9226 67.7852 33.378 69.4242 37.1383 67.6865Z" fill="white"/>
<path d="M29.4938 81.4226C31.5377 80.4781 32.4234 78.0614 31.4807 76.0216C30.5381 73.9818 28.1236 73.0902 26.0797 74.0347C24.0358 74.9792 23.1502 77.3959 24.0928 79.4357C25.0354 81.4755 27.454 82.3653 29.4938 81.4226Z" fill="black"/>
<path d="M35.6957 64.575C37.7396 63.6304 38.6294 61.2118 37.6868 59.172C36.7442 57.1322 34.3255 56.2425 32.2816 57.187C30.2377 58.1315 29.3562 60.5463 30.2988 62.5861C31.2414 64.6259 33.6559 65.5176 35.6957 64.575Z" fill="black"/>
<path d="M92.2955 20.3914C95.3507 21.5153 99.7845 24.1202 101.901 30.0501C102.223 30.953 101.099 31.6684 100.427 30.9877L91.3492 21.8601C90.6732 21.1813 91.3923 20.0591 92.2936 20.3872L92.2955 20.3914Z" fill="#D92218"/>
<path d="M96.1551 32.359C98.489 34.6766 101.608 39.0966 100.827 45.7015C100.722 46.5749 99.5023 46.7009 99.2091 45.8704L94.7718 33.2197C94.4789 32.379 95.5226 31.7306 96.1532 32.3549L96.1551 32.359Z" fill="#D92218"/>
<path d="M64.6707 112.666C61.584 113.564 56.7016 114.05 51.6441 110.857C50.7842 110.314 51.2771 108.974 52.2883 109.116L64.5378 110.811C65.5532 110.95 65.6543 112.378 64.6707 112.666Z" fill="#D92218"/>
<path d="M55.1946 105.473C51.9083 105.156 46.0864 103.63 42.5187 97.1179C42.1684 96.4798 42.9168 95.8019 43.5236 96.2007L55.6428 104.19C56.2516 104.593 55.9219 105.545 55.1946 105.473Z" fill="#D92218"/>
</svg>
