<svg width="148" height="143" viewBox="0 0 148 143" fill="none" xmlns="http://www.w3.org/2000/svg">
<path d="M45.0773 77.0385C45.0773 77.0385 54.6772 79.1077 58.2986 74.3802C61.92 69.6527 50.157 63.4362 50.157 63.4362" fill="#FFEDE5"/>
<path d="M53.5876 57.0105C53.5876 57.0105 60.8699 63.6021 66.3697 61.3171C71.8695 59.0322 64.7881 47.7694 64.7881 47.7694" fill="#FFEDE5"/>
<path d="M99.0454 101.933C109.402 97.1473 114.123 85.3056 109.586 75.4881C105.049 65.6707 92.9713 61.5922 82.6148 66.378C72.2584 71.1639 67.5374 83.0055 72.0742 92.823C76.6109 102.64 88.6848 106.721 99.0454 101.933Z" fill="#3A7FE7"/>
<path d="M72.5728 107.903C71.8938 106.989 69.8618 96.0592 74.39 92.412C78.9182 88.7648 86.308 95.4475 86.308 95.4475C86.308 95.4475 81.7721 88.0598 85.0599 84.211C88.3478 80.3621 96.4285 83.5207 96.4285 83.5207C96.4285 83.5207 88.1094 74.7618 94.0893 70.6199C100.069 66.4779 112.871 70.7401 112.871 70.7401L97.9906 99.6283" fill="#FFEDE5"/>
<path d="M122.047 61.8006C120.086 57.3284 118.036 52.7615 115.959 48.2674C110.775 37.0486 105.182 25.8173 101.564 19.2834C97.706 12.6542 90.7393 11.8737 85.6233 14.2379C81.1665 16.2975 78.1747 21.0811 80.8436 26.8563L85.7233 37.4159C85.7233 37.4159 85.7093 37.4073 85.6971 37.4028C70.1142 20.1219 53.8843 21.4739 50.1015 24.9376C46.3293 28.3914 53.6973 37.5093 53.7526 37.5743C46.5627 32.2934 36.5477 32.6248 33.1527 37.1672C30.6847 40.4711 35.0613 44.8031 41.7005 45.931C40.6678 46.9516 39.6929 48.021 38.7798 49.1372C35.6376 47.8574 31.9932 47.8208 28.6723 49.3554C22.3084 52.2963 19.5343 59.8371 22.4751 66.201C16.1112 69.1419 13.3371 76.6827 16.2779 83.0467C18.9084 88.739 25.2221 91.5468 31.0802 89.9718C31.7418 92.1766 32.5694 94.3702 33.5752 96.5468C44.3252 119.809 67.5291 126.701 89.4691 116.562C101.347 111.073 108.524 102.348 110.628 92.1685L113.525 98.437C116.421 104.706 122.637 106.039 127.426 103.826C132.214 101.614 135.892 95.7128 132.956 88.0637C136.907 89.6239 139.473 88.5238 140.177 86.4877C141.505 82.6644 136.366 76.194 129.428 73.9063C132.12 74.4633 136.117 74.8601 136.447 72.3936C136.872 69.2086 129.856 61.9755 122.056 61.7967L122.047 61.8006ZM85.9916 97.3547C73.782 102.997 60.3778 99.9791 53.975 86.1235C47.5721 72.268 52.6279 58.5158 65.6584 52.4942C78.6889 46.4726 91.894 50.78 98.5267 65.133C104.397 77.836 99.5155 91.1052 85.9875 97.3566L85.9916 97.3547Z" fill="#F9513E"/>
<path d="M30.9371 84.5337C34.6933 82.7979 36.3365 78.3406 34.5988 74.5803C32.8611 70.82 28.4016 69.1828 24.6454 70.9186C20.8893 72.6544 19.2461 77.1117 20.9838 80.872C22.7215 84.6323 27.1768 86.2714 30.9371 84.5337Z" fill="white"/>
<path d="M37.1383 67.686C40.8986 65.9483 42.5377 61.4929 40.8 57.7326C39.0623 53.9723 34.6069 52.3333 30.8466 54.071C27.0863 55.8087 25.4472 60.264 27.1849 64.0244C28.9226 67.7847 33.378 69.4237 37.1383 67.686Z" fill="white"/>
<path d="M29.4938 81.4222C31.5377 80.4776 32.4234 78.0609 31.4807 76.0211C30.5381 73.9814 28.1236 73.0897 26.0797 74.0342C24.0358 74.9787 23.1502 77.3954 24.0928 79.4352C25.0354 81.475 27.454 82.3648 29.4938 81.4222Z" fill="black"/>
<path d="M35.6952 64.5745C37.7391 63.6299 38.6289 61.2113 37.6863 59.1715C36.7437 57.1318 34.3251 56.242 32.2811 57.1865C30.2372 58.131 29.3557 60.5458 30.2984 62.5856C31.241 64.6254 33.6555 65.5171 35.6952 64.5745Z" fill="black"/>
<path d="M92.2955 20.3919C95.3507 21.5158 99.7845 24.1207 101.901 30.0506C102.223 30.9535 101.099 31.6689 100.427 30.9881L91.3492 21.8606C90.6732 21.1818 91.3923 20.0596 92.2936 20.3877L92.2955 20.3919Z" fill="#D92218"/>
<path d="M96.1556 32.3586C98.4894 34.6761 101.609 39.0961 100.827 45.701C100.723 46.5745 99.5028 46.7004 99.2096 45.8699L94.7723 33.2192C94.4794 32.3785 95.5231 31.7301 96.1537 32.3544L96.1556 32.3586Z" fill="#D92218"/>
<path d="M64.6712 112.666C61.5845 113.564 56.702 114.05 51.6446 110.857C50.7847 110.314 51.2775 108.974 52.2888 109.116L64.5383 110.811C65.5537 110.95 65.6548 112.378 64.6712 112.666Z" fill="#D92218"/>
<path d="M55.1941 105.474C51.9078 105.156 46.0859 103.63 42.5182 97.1184C42.1679 96.4803 42.9163 95.8024 43.5232 96.2012L55.6423 104.19C56.2511 104.593 55.9214 105.545 55.1941 105.474Z" fill="#D92218"/>
</svg>
