<svg width="136" height="191" viewBox="0 0 136 191" fill="none" xmlns="http://www.w3.org/2000/svg">
<path d="M88.7738 175.424C86.5884 182.358 77.8551 188.209 62.6433 183.415C38.9326 175.941 29.2331 159.118 35.53 131.335C36.706 126.046 41.6413 110.388 46.7869 94.0625L49.1842 86.4566C43.1436 84.5527 38.0672 82.7043 36.1249 81.8496C29.7786 79.3585 28.4911 73.2936 30.1119 68.1512C31.7327 63.0088 36.703 58.1772 42.8843 59.6347C45.4138 60.1837 50.6309 61.5855 56.7375 63.2619C61.4765 49.0143 65.5086 37.0095 66.9434 34.0144C71.4516 23.6321 80.7442 20.6595 87.6778 22.8449C93.7184 24.7488 97.9732 30.7615 95.1537 39.7069C93.6024 44.6286 89.6538 57.1563 84.9147 71.404L93.4136 74.0827C100.127 76.1986 105.048 77.7499 106.699 78.7609C112.606 81.8585 114.117 87.9823 112.495 93.13C110.731 98.7241 105.683 103.034 98.984 101.662C95.5563 100.83 87.0575 98.1513 77.365 95.3389C72.6312 109.588 68.4723 122.783 66.0734 130.394C60.292 148.737 63.2248 155.811 71.9495 158.561C75.306 159.619 78.3391 159.339 80.5768 160.044C87.9621 162.372 90.6742 169.377 88.7702 175.417L88.7755 175.419L88.7738 175.424Z" fill="#46CC8E"/>
<path d="M45.7694 73.7674C50.3783 72.2808 51.4894 76.7252 47.7777 79.1759L45.7694 73.7674Z" fill="white"/>
<path d="M62.3781 81.3303C65.8659 82.4296 69.5773 80.4927 70.675 77.0101C71.7726 73.5276 69.8426 69.8126 66.3548 68.7133C62.8671 67.614 59.1609 69.5525 58.0632 73.0351C56.9656 76.5176 58.8956 80.2326 62.3781 81.3303Z" fill="white"/>
<path d="M76.4664 85.7704C79.9489 86.8681 83.6603 84.9312 84.758 81.4486C85.8556 77.9661 83.9256 74.2511 80.4431 73.1534C76.9606 72.0557 73.2439 73.991 72.1462 77.4735C71.0486 80.9561 72.9786 84.6711 76.4664 85.7704Z" fill="white"/>
<path d="M64.4357 79.3107C66.5473 79.9762 68.8046 78.8052 69.4719 76.6884C70.1391 74.5716 68.9612 72.3178 66.8496 71.6522C64.738 70.9867 62.4806 72.1577 61.8134 74.2745C61.1462 76.3914 62.3189 78.6435 64.4357 79.3107Z" fill="black"/>
<path d="M75.967 83.6896C78.0838 84.3568 80.3359 83.1841 81.0031 81.0673C81.6703 78.9504 80.4976 76.6983 78.3808 76.0311C76.264 75.3639 74.0119 76.5366 73.3447 78.6534C72.6775 80.7703 73.8554 83.024 75.967 83.6896Z" fill="black"/>
<path d="M45.7957 69.8555C45.7957 69.8555 42.7479 80.1667 54.1515 83.761" stroke="black" stroke-width="1.65223" stroke-linecap="round" stroke-linejoin="round"/>
<path d="M92.6313 85.5991C93.4612 85.8607 94.3455 85.4003 94.6071 84.5704C94.8687 83.7405 94.4082 82.8562 93.5783 82.5946C92.7484 82.333 91.8641 82.7934 91.6025 83.6234C91.3409 84.4533 91.8014 85.3376 92.6313 85.5991Z" fill="#86EFC3"/>
<path d="M89.2953 90.1548C90.1253 90.4164 91.0096 89.956 91.2711 89.126C91.5327 88.2961 91.0723 87.4118 90.2423 87.1503C89.4124 86.8887 88.5282 87.3491 88.2666 88.179C88.005 89.0089 88.4654 89.8932 89.2953 90.1548Z" fill="#86EFC3"/>
<path d="M95.5659 91.0347C96.3958 91.2963 97.28 90.8358 97.5416 90.0059C97.8032 89.176 97.3428 88.2917 96.5129 88.0301C95.6829 87.7686 94.7987 88.229 94.5371 89.0589C94.2755 89.8888 94.7359 90.7731 95.5659 91.0347Z" fill="#86EFC3"/>
<path d="M51.8627 70.7974C52.6927 71.059 53.5769 70.5985 53.8385 69.7686C54.1001 68.9387 53.6397 68.0544 52.8097 67.7928C51.9798 67.5312 51.0956 67.9917 50.834 68.8216C50.5724 69.6515 51.0328 70.5358 51.8627 70.7974Z" fill="#86EFC3"/>
<path d="M48.3041 67.7759C49.1341 68.0375 50.0183 67.577 50.2799 66.7471C50.5415 65.9172 50.0811 65.0329 49.2511 64.7713C48.4212 64.5098 47.537 64.9702 47.2754 65.8001C47.0138 66.63 47.4742 67.5143 48.3041 67.7759Z" fill="#86EFC3"/>
<path d="M58.4924 66.5063C58.2665 66.4351 58.0486 66.3202 57.8492 66.165C56.9599 65.4689 56.784 64.195 57.4728 63.2919C59.0655 61.2069 63.739 58.0315 70.0026 60.895C71.0364 61.3709 71.4937 62.5949 71.0213 63.6356C70.5453 64.6693 69.3266 65.1283 68.2807 64.6543C63.593 62.5069 61.0184 65.472 60.7419 65.8179C60.1906 66.5045 59.2855 66.7563 58.4924 66.5063Z" fill="#FFB700"/>
<path d="M87.0625 75.5289C86.2851 75.2839 85.6954 74.5899 85.6255 73.7305C85.5739 73.235 84.9837 69.0068 79.3132 68.1087C78.185 67.9322 77.4169 66.8701 77.597 65.7489C77.7736 64.6207 78.8357 63.8526 79.9569 64.0327C87.2288 65.1814 89.5309 70.6652 89.7361 73.4035C89.8227 74.5395 88.9717 75.5359 87.8304 75.6208C87.559 75.6392 87.2972 75.6087 87.0556 75.5325L87.0625 75.5289Z" fill="#FFB700"/>
<path d="M78.4268 57.5448C88.1828 60.6139 84.8201 39.1296 95.1449 39.716C97.9661 30.7654 93.7096 24.758 87.669 22.8541C80.7355 20.6687 71.4359 23.6449 66.9347 34.0235C66.6837 34.545 66.3572 35.3429 65.963 36.3735C82.5694 37.2017 68.6676 54.4861 78.4252 57.55L78.4268 57.5448Z" fill="#269E62"/>
<path d="M67.0581 50.341C68.7967 50.889 70.8421 49.3278 71.6236 46.8485C72.405 44.3692 71.6245 41.9173 69.8858 41.3693C68.1472 40.8213 66.1018 42.3825 65.3203 44.8618C64.5389 47.3411 65.3194 49.793 67.0581 50.341Z" fill="#269E62"/>
<path d="M80.5788 160.057C78.3464 159.353 75.3028 159.629 71.9515 158.573C69.7612 157.883 67.9339 156.92 66.5218 155.574C63.7846 164.441 57.3934 167.809 51.3017 161.945C43.0031 153.959 67.6621 116.817 59.1654 113.527C50.6687 110.236 50.9863 135.098 44.5876 133.029C38.1837 130.959 45.6221 120.183 39.5539 117.231C37.5833 123.667 36.1045 128.761 35.5252 131.351C29.2315 159.123 38.9278 175.957 62.6385 183.431C77.8503 188.225 86.5853 182.369 88.769 175.44C90.6713 169.405 87.9608 162.395 80.5755 160.067L80.5788 160.057ZM41.2578 148.339C39.3668 147.743 38.6023 144.782 39.5626 141.735C40.5228 138.689 42.8416 136.7 44.7378 137.297C46.6341 137.895 47.3986 140.856 46.4383 143.903C45.4781 146.949 43.1593 148.938 41.2578 148.339Z" fill="#269E62"/>
<path d="M81.0171 166.783C84.0269 167.732 87.234 166.058 88.1826 163.048C89.1313 160.038 87.4639 156.827 84.4541 155.879C81.4443 154.93 78.2319 156.603 77.2833 159.612C76.3346 162.622 78.0073 165.835 81.0171 166.783Z" fill="#269E62"/>
<path d="M52.9875 180.377L47.6876 178.707C45.9752 178.167 45.5928 175.881 47.0705 174.857C48.5429 173.831 50.2974 173.541 52.057 174.096C53.8167 174.65 55.1135 175.977 55.7007 177.577C56.3188 179.262 54.6999 180.917 52.9875 180.377Z" fill="#46CC8E"/>
<path d="M88.0476 11.5045L84.5393 10.8549C83.5242 10.6678 82.5527 11.3317 82.3656 12.3468C82.1801 13.3566 82.844 14.3281 83.8591 14.5153L87.3674 15.1649C88.3772 15.3503 89.3487 14.6864 89.5411 13.673C89.7266 12.6631 89.0574 11.69 88.0476 11.5045Z" fill="#FFB700"/>
<path d="M65.1499 33.9173C65.1499 33.9173 63.4747 9.86393 85.5925 12.9374C107.722 16.009 99.3359 38.7331 99.3359 38.7331L65.1499 33.9173Z" fill="#FFB700"/>
<path d="M87.9561 13.3707C77.5824 18.2892 80.114 34.0375 80.114 34.0375L99.9325 36.7847C101.308 31.4669 103.537 16.8842 87.9614 13.3723L87.9561 13.3707Z" fill="#FFF6B1"/>
<path d="M65.1492 33.9166L108.541 41.9517C109.661 42.1545 110.729 41.4228 110.937 40.3046L111.137 39.2301C111.34 38.1103 110.608 37.0424 109.492 36.829L66.0997 28.794L65.1492 33.9166Z" fill="#FFB700"/>
<path d="M93.1519 29.3868C93.0687 29.8341 92.5672 30.2708 91.5853 30.0883C90.0478 29.8 89.3142 28.8297 89.4904 27.0431C89.5283 26.7029 89.7102 25.6861 89.9106 24.629L90.0035 24.1328C89.6104 24.0609 89.2764 23.9845 89.1504 23.9448C88.734 23.8367 88.6061 23.473 88.672 23.1357C88.736 22.7863 89.0058 22.4614 89.4072 22.507C89.5695 22.5235 89.9012 22.5703 90.2992 22.6265C90.4878 21.6985 90.6474 20.9173 90.7139 20.7246C90.917 20.0437 91.4735 19.7802 91.9192 19.8687C92.3123 19.9406 92.6209 20.2805 92.5173 20.8657C92.4616 21.1888 92.3112 21.996 92.1226 22.924L92.6747 23.023C93.1114 23.1029 93.4329 23.1638 93.5383 23.2143C93.9308 23.3612 94.0729 23.7351 94.0086 24.0671C93.9466 24.4286 93.6627 24.7434 93.2301 24.7052C93.012 24.6826 92.4563 24.5768 91.831 24.4721C91.6424 25.4001 91.4823 26.2562 91.3964 26.7488C91.1773 27.9386 91.4141 28.3598 91.9766 28.462C92.195 28.502 92.386 28.464 92.5344 28.4877C93.0096 28.5739 93.236 28.9917 93.1588 29.3832L93.1555 29.3937L93.1519 29.3868Z" fill="#925202"/>
</svg>
