<svg width="232" height="243" viewBox="0 0 232 243" fill="none" xmlns="http://www.w3.org/2000/svg">
<mask id="mask0_36_3198" style="mask-type:alpha" maskUnits="userSpaceOnUse" x="0" y="0" width="44" height="119">
<path d="M16.9021 0.135389C19.5 -0.604011 21.9433 1.81617 24.364 4.21156L24.366 4.21254C24.967 4.80737 25.4949 5.39719 25.9597 5.96058C27.4677 5.8458 29.1071 5.97789 30.7107 6.59437C33.3097 7.59313 31.9325 11.8596 30.6121 14.7926C33.8372 22.0442 37.063 29.2959 40.2888 36.5475C43.5049 49.0254 47.0152 71.6378 37.8201 98.2428C35.2035 105.815 31.9723 112.506 28.6697 118.254C26.8965 112.221 2.67942 29.7506 0.467522 18.2721C0.0718458 16.2231 -0.768642 11.5641 1.656 9.66957C2.8723 8.71837 4.50954 8.7742 5.44213 8.88344C5.61932 8.25595 5.9369 7.3646 6.52709 6.37074C6.9414 5.67401 7.46087 4.80782 8.24682 4.22035C10.1679 2.78307 12.9096 3.59424 13.2986 3.71547C14.7507 0.865966 16.3958 0.27929 16.9021 0.135389Z" fill="#FFD100"/>
</mask>
<g mask="url(#mask0_36_3198)">
<rect x="-85" y="-7.04688" width="213" height="133" fill="#FFD100"/>
<g opacity="0.5" filter="url(#filter0_g_36_3198)">
<path d="M-18.9061 1.54541C20.9263 2.20973 22.5351 20.8517 65.9201 -9.64783M-31.1406 44.7461C10.4222 30.6849 44.2909 7.77293 80.7964 -11.3143" stroke="#E98C01" stroke-width="30"/>
</g>
<path d="M38.03 20.751C29.3757 41.3929 21.9497 64.0905 16.7139 88.8291C16.1531 91.4802 15.6255 94.1154 15.1299 96.7347C18.9881 105.113 22.8476 113.49 26.7058 121.869L44.951 95.6822L38.03 20.751Z" fill="#CB611B"/>
</g>
<mask id="mask1_36_3198" style="mask-type:alpha" maskUnits="userSpaceOnUse" x="18" y="136" width="80" height="107">
<path d="M19.3816 136.742C18.5676 142.859 13.982 182.024 41.0973 209.483C50.4191 218.922 58.8096 224.266 66.5433 227.202C70.6733 237.993 74.2544 242.319 75.2029 242.523C77.0681 242.923 79.0198 238.581 79.0198 238.581L83.0592 230.222L94.0104 207.558L97.1984 200.962C98.0817 199.136 97.3943 196.936 95.629 195.937L52.6479 171.591C41.5596 159.975 30.4712 148.359 19.3829 136.742H19.3816Z" fill="#FFD100"/>
</mask>
<g mask="url(#mask1_36_3198)">
<rect x="-47.999" y="122.953" width="213" height="133" fill="#FFD100"/>
<g opacity="0.5" filter="url(#filter1_g_36_3198)">
<path d="M61.4369 199.953C98.9548 213.35 94.5035 231.524 145.375 216.539M36.001 236.953C79.8779 236.956 119.304 226.108 160.001 219.729" stroke="#E98C01" stroke-width="30"/>
</g>
</g>
<mask id="mask2_36_3198" style="mask-type:alpha" maskUnits="userSpaceOnUse" x="18" y="94" width="163" height="124">
<path d="M31.5115 94.1133C31.7653 94.1271 111.24 98.4443 128.831 102.46C133.003 103.413 138.602 105.381 144.277 109.759C157.835 120.217 160.764 136.943 162.339 145.938C163.981 155.323 165.74 165.373 162.925 175.146L174.592 196.042L179.118 204.147C179.131 204.174 181.801 209.47 180.67 210.091C177.308 212.718 168.685 209.647 163.545 206.206C161.09 208.755 152.435 217.102 139.427 217.744C128.772 218.271 118.274 213.475 110.57 205.021C86.439 204.963 45.2151 199.431 30.7117 183.773C15.6574 167.52 13.1265 124.888 31.5115 94.1133Z" fill="#FFD100"/>
</mask>
<g mask="url(#mask2_36_3198)">
<rect x="17" y="93.9531" width="167" height="128" fill="#FFD100"/>
<g opacity="0.5" filter="url(#filter2_g_36_3198)">
<path d="M145.498 210.954C156 202.453 180.997 207.953 176.498 178.454M108.997 222.955C143.342 218.169 200.998 241.452 180.498 187.952" stroke="#E98C01" stroke-width="30"/>
</g>
</g>
<mask id="mask3_36_3198" style="mask-type:alpha" maskUnits="userSpaceOnUse" x="28" y="4" width="204" height="155">
<path d="M138.079 4.85058C174.396 1.3694 220.146 10.7127 223.476 29.3642C224.081 32.7514 217.528 41.5812 203.234 53.6816C213.293 58.1244 222.165 62.8843 221.655 65.6807C220.638 71.254 214.869 77.3964 208.886 82.4385C209.442 83.0222 209.999 83.6181 210.552 84.2266C210.558 84.2318 210.563 84.2386 210.57 84.2451C212.352 86.2047 214.12 88.2936 215.836 90.5195C217.847 93.124 219.79 95.9164 221.611 98.9072C229.84 112.416 233.809 124.468 231.204 131.681C225.475 147.534 186.399 153.599 159.528 156.194C123.921 159.633 104.598 160.41 76.3561 145.131C51.5872 131.73 37.4532 111.339 30.0338 97.709C27.4945 79.0694 29.0927 64.0836 30.8326 54.4101C33.8821 37.464 37.3742 18.0536 51.3493 11.3789C56.7569 8.79566 62.4595 8.99085 73.8649 9.37987C85.5899 9.78091 95.0985 11.8153 101.389 13.5166C109.813 10.2899 122.425 6.35068 138.079 4.85058Z" fill="#FFD100"/>
</mask>
<g mask="url(#mask3_36_3198)">
<rect x="29.001" y="-6.04688" width="203" height="158" fill="#FFD100"/>
<g opacity="0.5" filter="url(#filter3_g_36_3198)">
<path d="M180.5 160.453C256.5 160.453 240.183 119.291 228 101.953C215 83.4534 272.667 72.9534 259 63.9534C266 49.9913 227.171 54.7585 220.5 25.9537C209.5 -21.5463 91.0003 8.45292 43.5003 5.45292C30.0042 17.4531 18.002 44.4531 15.502 90.9531" stroke="#E98C01" stroke-width="30"/>
</g>
<g filter="url(#filter4_g_36_3198)">
<path d="M194.439 57.3681C193.48 61.1227 192.522 64.8773 191.563 68.6319C191.784 68.7288 191.863 68.7828 191.908 68.8336C191.961 68.8851 192.013 68.9356 192.04 68.9813C192.109 69.0753 192.166 69.166 192.218 69.2551C192.325 69.4339 192.418 69.6074 192.506 69.7778C192.688 70.1196 192.865 70.4513 193.037 70.7738C193.386 71.4193 193.734 72.0305 194.086 72.6091C196.896 77.2349 200.009 79.7927 203.424 80.3027C203.721 80.347 204.011 80.3884 204.311 80.4295C208.523 81.0017 212.213 81.1449 215.962 81.1612C216.386 80.8613 217.587 80.7576 219.093 80.885C220.731 81.0564 222.07 81.1696 225.29 82.0823L225.469 82.1712C223.536 81.2956 221.192 78.6809 220.578 76.713C219.874 74.7368 220.003 73.7317 220.035 73.1967C220.097 72.6638 220.19 72.5422 220.248 72.5876C220.309 72.6403 220.346 72.876 220.378 73.2698C220.49 74.0681 220.311 75.4875 221.291 78.3158C222.146 81.2761 225.885 84.4522 228.081 84.9004L227.72 84.7535C225.275 83.5615 224.668 82.4203 224.255 81.8718C223.86 81.257 223.761 80.9361 223.694 80.7062C223.583 80.2607 223.673 80.1746 223.766 80.1506C223.97 80.13 224.269 80.4228 224.573 80.7605C225.194 81.4668 225.861 82.412 226.717 83.5749C227.109 84.1062 227.529 84.6839 228.141 85.4421C228.857 86.1681 229.267 87.3276 232.162 88.7259C233.859 85.242 235.555 81.758 237.251 78.2741C238.363 78.7208 238.793 79.1506 239.095 79.3462C239.387 79.5579 239.526 79.6161 239.646 79.6193C239.874 79.6138 239.992 79.3837 240.112 79.102C240.364 78.4472 240.575 77.5352 240.695 76.394C240.747 75.8066 240.792 75.1841 240.681 74.255C240.619 73.7868 240.534 73.2417 240.209 72.3721C240.035 71.9315 239.817 71.4012 239.278 70.5932C238.727 69.8612 237.942 68.5317 235.282 67.2465L234.921 67.0996C236.429 67.2995 239.591 69.9299 240.237 72.1866C240.996 74.3182 240.853 74.9935 241.025 75.0712C241.136 75.0944 241.396 74.7106 241.54 72.9723C241.568 72.0749 241.661 70.7032 240.819 68.3881C240.071 66.0818 237.463 63.1853 235.199 62.154L235.378 62.2429C233.516 59.6359 228.66 55.1018 221.378 52.917C217.116 51.3821 212.726 50.3936 208.869 49.7768C208.574 49.7295 208.288 49.6852 207.995 49.6415C204.628 49.1388 200.951 50.6759 196.985 54.2365C196.49 54.6815 195.991 55.1578 195.493 55.6658C195.247 55.9202 194.995 56.1816 194.755 56.4521C194.637 56.5879 194.517 56.725 194.409 56.8658C194.357 56.9365 194.306 57.0077 194.271 57.0823C194.256 57.12 194.24 57.1576 194.244 57.1994C194.25 57.2421 194.253 57.2803 194.439 57.3681Z" fill="#FBE88F"/>
</g>
<g filter="url(#filter5_g_36_3198)">
<path d="M111.439 31.3212C110.48 35.0758 109.522 38.8304 108.563 42.585C108.784 42.6819 108.863 42.736 108.908 42.7867C108.961 42.8382 109.013 42.8887 109.04 42.9344C109.109 43.0284 109.166 43.1191 109.218 43.2082C109.325 43.387 109.418 43.5605 109.506 43.731C109.688 44.0727 109.865 44.4044 110.037 44.7269C110.386 45.3724 110.734 45.9836 111.086 46.5623C113.896 51.1881 117.009 53.7458 120.424 54.2558C120.721 54.3001 121.011 54.3415 121.311 54.3826C125.523 54.9548 129.213 55.0981 132.962 55.1144C133.386 54.8145 134.587 54.7108 136.093 54.8381C137.731 55.0095 139.07 55.1227 142.29 56.0354L142.469 56.1243C140.536 55.2487 138.192 52.634 137.578 50.6661C136.874 48.6899 137.003 47.6848 137.035 47.1498C137.097 46.6169 137.19 46.4954 137.248 46.5407C137.309 46.5934 137.346 46.8291 137.378 47.2229C137.49 48.0212 137.311 49.4407 138.291 52.2689C139.146 55.2292 142.885 58.4053 145.081 58.8536L144.72 58.7066C142.275 57.5146 141.668 56.3734 141.255 55.8249C140.86 55.2101 140.761 54.8892 140.694 54.6593C140.583 54.2139 140.673 54.1278 140.766 54.1037C140.97 54.0832 141.269 54.376 141.573 54.7136C142.194 55.4199 142.861 56.3651 143.717 57.5281C144.109 58.0594 144.529 58.637 145.141 59.3952C145.857 60.1212 146.267 61.2807 149.162 62.6791C150.859 59.1951 152.555 55.7111 154.251 52.2272C155.363 52.6739 155.793 53.1037 156.095 53.2993C156.387 53.511 156.526 53.5693 156.646 53.5724C156.874 53.5669 156.992 53.3368 157.112 53.0551C157.364 52.4003 157.575 51.4883 157.695 50.3471C157.747 49.7597 157.792 49.1373 157.681 48.2081C157.619 47.74 157.534 47.1948 157.209 46.3252C157.035 45.8846 156.817 45.3543 156.278 44.5463C155.727 43.8143 154.942 42.4848 152.282 41.1997L151.921 41.0527C153.429 41.2526 156.591 43.883 157.237 46.1398C157.996 48.2713 157.853 48.9466 158.025 49.0243C158.136 49.0476 158.396 48.6637 158.54 46.9254C158.568 46.028 158.661 44.6563 157.819 42.3413C157.071 40.0349 154.463 37.1385 152.199 36.1071L152.378 36.1961C150.516 33.589 145.66 29.0549 138.378 26.8702C134.116 25.3352 129.726 24.3467 125.869 23.7299C125.574 23.6826 125.288 23.6383 124.995 23.5947C121.628 23.0919 117.951 24.629 113.985 28.1896C113.49 28.6346 112.991 29.1109 112.493 29.619C112.247 29.8733 111.995 30.1347 111.755 30.4053C111.637 30.541 111.517 30.6782 111.409 30.8189C111.357 30.8896 111.306 30.9608 111.271 31.0355C111.256 31.0731 111.24 31.1108 111.244 31.1525C111.25 31.1952 111.253 31.2334 111.439 31.3212Z" fill="#FBE88F"/>
</g>
</g>
<path d="M141.573 83.4187C142.463 84.5977 143.311 85.7674 143.926 86.716C145.189 88.6718 135.39 89.0501 130.845 86.4456L138.793 71.082C142.07 73.0791 148.525 77.281 150.69 79.1755C152.242 80.5344 146.695 83.1203 141.573 83.42V83.4187Z" fill="black"/>
<path d="M148.075 59.7417C148.075 68.0017 146.077 74.2633 143.679 77.4607L86.842 77.7271C83.3608 72.55 81.3291 66.3164 81.3291 59.6085C81.3291 41.6551 95.8826 27.1016 113.836 27.1016C131.789 27.1016 148.075 41.7883 148.075 59.7417Z" fill="black"/>
<path d="M109.18 94.9123C127.133 94.9123 141.687 80.3585 141.687 62.4054C141.687 44.4523 127.133 29.8984 109.18 29.8984C91.2267 29.8984 76.6729 44.4523 76.6729 62.4054C76.6729 80.3585 91.2267 94.9123 109.18 94.9123Z" fill="white"/>
<path d="M116.975 51.0547C124.342 48.5826 128.832 42.1628 127.004 36.7156C125.176 31.2683 117.722 28.8565 110.356 31.3286C102.989 33.8007 98.4984 40.2205 100.326 45.6677C102.154 51.115 109.608 53.5268 116.975 51.0547Z" fill="black"/>
<path d="M124.901 46.9512C127.917 46.9512 130.363 44.9238 130.363 42.4229C130.363 39.9219 127.917 37.8945 124.901 37.8945C121.884 37.8945 119.438 39.9219 119.438 42.4229C119.438 44.9238 121.884 46.9512 124.901 46.9512Z" fill="white"/>
<path d="M113.606 208.043C113.606 208.043 77.4324 217.506 46.4775 189.648C46.4775 189.648 73.874 207.088 110.244 204.023L113.606 208.043Z" fill="#CB611B"/>
<path d="M24.66 14.698C23.7341 14.2464 21.2295 13.3178 21.6252 12.0628C21.8716 11.1356 22.7456 10.175 23.4317 9.39832C24.2537 8.4844 25.1583 7.59445 26.0389 6.58594C24.772 6.85638 23.088 7.61977 21.7597 8.6909C21.4267 8.90272 20.999 9.20914 20.4581 9.63413C20.3715 9.70208 20.2903 9.70074 20.2423 9.69142C20.189 9.68476 20.0638 9.66211 19.9039 9.61148C18.8474 9.27309 17.675 8.79881 16.7078 8.22461L15.4489 7.49453C15.2197 8.83211 14.9772 10.3642 14.6055 11.6605C14.4257 12.26 14.2698 12.9355 13.9754 13.4364C13.8168 13.5057 13.629 13.4763 13.3812 13.4524C12.1236 13.2765 10.8433 12.9608 9.67887 12.4305L7.90564 11.6338C8.02155 12.9634 8.30665 14.6687 8.0855 15.981C7.99757 16.4739 7.80972 17.3039 7.35542 17.4411C7.06099 17.4838 6.63734 17.3239 6.32559 17.1893C5.0413 16.6564 3.85693 16.0196 2.74316 15.1297C3.59714 16.5938 4.92939 17.8022 6.41085 18.6495C7.41271 19.2024 8.53979 18.8959 9.19793 17.9767C9.8494 17.0881 10.0879 16.1155 10.2158 15.0964C10.8872 15.3522 11.5973 15.5453 12.2994 15.6866C13.0335 15.8358 13.8355 15.9903 14.6242 15.7505C15.654 15.4561 16.1669 14.6154 16.4574 13.6828C16.7758 12.693 16.965 11.7577 17.1128 10.7506C17.1182 10.7106 17.1235 10.6706 17.1288 10.6307C17.5138 10.7546 17.9029 10.8611 18.2945 10.9477C18.7488 11.0397 19.2844 11.1755 19.8066 11.2022C19.6188 11.7258 19.5522 12.276 19.6468 12.8422C20.1917 15.143 22.9428 15.6786 24.9438 15.6586C25.4461 15.6506 25.9417 15.6066 26.4386 15.5107C25.8351 15.2056 25.2369 14.9591 24.66 14.6967V14.698Z" fill="#CB611B"/>
<path d="M115.446 112.631C130.75 112.631 143.157 106.278 143.157 98.4424C143.157 90.6063 130.75 84.2539 115.446 84.2539C100.142 84.2539 87.7354 90.6063 87.7354 98.4424C87.7354 106.278 100.142 112.631 115.446 112.631Z" fill="#FFD100"/>
<path d="M129.166 100.04C132.177 107.226 127.085 115.237 125.835 117.202C119.735 126.8 106.792 132.891 94.2648 130.535C93.0898 130.314 81.8762 128.023 74.7207 117.675C71.0517 112.37 66.9257 102.746 70.1724 99.3165C73.4244 95.882 79.8512 103.127 92.0986 102.832C108.026 102.449 116.26 89.7363 124.502 94.4338C127.545 96.1684 128.85 99.2859 129.166 100.039V100.04Z" fill="black"/>
<mask id="mask4_36_3198" style="mask-type:luminance" maskUnits="userSpaceOnUse" x="68" y="93" width="63" height="39">
<path d="M129.159 100.037C132.17 107.223 127.078 115.234 125.828 117.199C119.728 126.797 106.785 132.888 94.258 130.532C93.083 130.311 81.8694 128.02 74.7139 117.672C71.0448 112.367 66.9189 102.743 70.1656 99.3136C73.4176 95.8791 79.8444 103.124 92.0918 102.829C108.019 102.446 116.253 89.7334 124.495 94.4309C127.538 96.1655 128.843 99.283 129.159 100.036V100.037Z" fill="white"/>
</mask>
<g mask="url(#mask4_36_3198)">
<path d="M74.6348 97.2586C74.7733 100.1 75.4381 104.816 78.4037 109.522C79.3469 111.019 80.3648 112.264 81.3373 113.284C80.6779 114.561 80.0197 116.097 79.5015 117.882C78.2931 122.042 78.3811 125.714 78.6675 128.176C92.88 138.272 110.735 137.002 121.823 127.381C127.528 122.43 131.334 113.83 130.973 99.5234C130.973 99.5234 127.995 79.4996 97.1179 99.6593L74.6361 97.2586H74.6348Z" fill="white"/>
</g>
<path d="M216.323 90.9956C212.807 92.0561 202.081 94.6926 190.791 89.3916C184.187 86.2914 180.099 81.7484 178.001 79C180.851 81.0623 188.033 86.4446 199.001 85.5C202.831 85.1696 205.219 84.7207 209.001 82.5C209.489 83.0236 210.551 84.1785 211.04 84.702C211.045 84.7074 211.05 84.714 211.057 84.7207C212.839 86.6804 214.607 88.7694 216.323 90.9956Z" fill="#CB611B"/>
<mask id="mask5_36_3198" style="mask-type:alpha" maskUnits="userSpaceOnUse" x="130" y="133" width="80" height="59">
<path d="M135.628 139.46C135.628 139.46 143.415 129.685 169.508 136.263C177.158 138.203 184.317 141.742 190.515 146.647C196.523 151.401 201.495 157.337 205.13 164.084C207.252 166.824 208.515 170.514 209.126 173.242C210.592 179.783 207.204 181.103 207.204 181.103C207.203 181.129 207.004 184.696 204.851 185.814C202.69 186.936 201.863 186.328 201.863 186.328C201.668 187.363 201.259 188.346 200.663 189.213C200.068 190.081 199.298 190.814 198.403 191.364L198.4 191.367C195.226 193.454 189.771 188.782 189.771 188.782C189.759 188.771 189.315 188.389 188.64 187.787C186.945 188.16 184.932 188.247 182.834 187.567C179.647 186.532 180.941 180.678 181.787 177.816C178.699 175.634 174.463 173.418 169.26 172.848C159.876 171.82 156.439 177.134 148.434 175.353C138.265 173.091 133.148 162.23 132.435 160.206C126.259 142.666 135.571 139.48 135.628 139.46Z" fill="#FFD100"/>
</mask>
<g mask="url(#mask5_36_3198)">
<rect x="150.001" y="133.953" width="61" height="58" fill="#FFD100"/>
<g opacity="0.5" filter="url(#filter6_g_36_3198)">
<path d="M175.964 165.863C215.356 171.813 214.474 190.503 261.526 166.037M158.1 207.056C201.162 198.64 237.774 180.43 276.492 166.361" stroke="#E98C01" stroke-width="30"/>
</g>
</g>
<path d="M152.868 173.78C152.868 173.78 167.256 164.721 179.094 176.105C179.094 176.105 175.916 172.848 152.868 173.78Z" fill="#CB611B"/>
<path d="M152.696 191.293C152.696 191.293 162.19 186.836 164.396 172.866L159.392 172.848C159.392 172.848 160.655 180.295 152.696 191.293Z" fill="#CB611B"/>
<path d="M201.509 158.251C201.509 158.251 190.17 131.013 155.665 139.54C155.665 139.54 180.845 136.742 201.509 158.251Z" fill="#CB611B"/>
<defs>
<filter id="filter0_g_36_3198" x="-66.2473" y="-54.9074" width="184.294" height="144.162" filterUnits="userSpaceOnUse" color-interpolation-filters="sRGB">
<feFlood flood-opacity="0" result="BackgroundImageFix"/>
<feBlend mode="normal" in="SourceGraphic" in2="BackgroundImageFix" result="shape"/>
<feTurbulence type="fractalNoise" baseFrequency="0.99900001287460327 0.99900001287460327" numOctaves="3" seed="4097" />
<feDisplacementMap in="shape" scale="60.599998474121094" xChannelSelector="R" yChannelSelector="G" result="displacedImage" width="100%" height="100%" />
<feMerge result="effect1_texture_36_3198">
<feMergeNode in="displacedImage"/>
</feMerge>
</filter>
<filter id="filter1_g_36_3198" x="5.7" y="155.527" width="186.924" height="126.726" filterUnits="userSpaceOnUse" color-interpolation-filters="sRGB">
<feFlood flood-opacity="0" result="BackgroundImageFix"/>
<feBlend mode="normal" in="SourceGraphic" in2="BackgroundImageFix" result="shape"/>
<feTurbulence type="fractalNoise" baseFrequency="0.99900001287460327 0.99900001287460327" numOctaves="3" seed="4097" />
<feDisplacementMap in="shape" scale="60.599998474121094" xChannelSelector="R" yChannelSelector="G" result="displacedImage" width="100%" height="100%" />
<feMerge result="effect1_texture_36_3198">
<feMergeNode in="displacedImage"/>
</feMerge>
</filter>
<filter id="filter2_g_36_3198" x="76.6268" y="145.892" width="153.471" height="123.417" filterUnits="userSpaceOnUse" color-interpolation-filters="sRGB">
<feFlood flood-opacity="0" result="BackgroundImageFix"/>
<feBlend mode="normal" in="SourceGraphic" in2="BackgroundImageFix" result="shape"/>
<feTurbulence type="fractalNoise" baseFrequency="0.99900001287460327 0.99900001287460327" numOctaves="3" seed="4097" />
<feDisplacementMap in="shape" scale="60.599998474121094" xChannelSelector="R" yChannelSelector="G" result="displacedImage" width="100%" height="100%" />
<feMerge result="effect1_texture_36_3198">
<feMergeNode in="displacedImage"/>
</feMerge>
</filter>
<filter id="filter3_g_36_3198" x="-29.7766" y="-46.4611" width="336.214" height="252.214" filterUnits="userSpaceOnUse" color-interpolation-filters="sRGB">
<feFlood flood-opacity="0" result="BackgroundImageFix"/>
<feBlend mode="normal" in="SourceGraphic" in2="BackgroundImageFix" result="shape"/>
<feTurbulence type="fractalNoise" baseFrequency="0.99900001287460327 0.99900001287460327" numOctaves="3" seed="4097" />
<feDisplacementMap in="shape" scale="60.599998474121094" xChannelSelector="R" yChannelSelector="G" result="displacedImage" width="100%" height="100%" />
<feMerge result="effect1_texture_36_3198">
<feMergeNode in="displacedImage"/>
</feMerge>
</filter>
<filter id="filter4_g_36_3198" x="161.263" y="19.2488" width="110.594" height="99.7768" filterUnits="userSpaceOnUse" color-interpolation-filters="sRGB">
<feFlood flood-opacity="0" result="BackgroundImageFix"/>
<feBlend mode="normal" in="SourceGraphic" in2="BackgroundImageFix" result="shape"/>
<feTurbulence type="fractalNoise" baseFrequency="0.99900001287460327 0.99900001287460327" numOctaves="3" seed="1380" />
<feDisplacementMap in="shape" scale="60.599998474121094" xChannelSelector="R" yChannelSelector="G" result="displacedImage" width="100%" height="100%" />
<feMerge result="effect1_texture_36_3198">
<feMergeNode in="displacedImage"/>
</feMerge>
</filter>
<filter id="filter5_g_36_3198" x="78.2635" y="-6.79805" width="110.594" height="99.7768" filterUnits="userSpaceOnUse" color-interpolation-filters="sRGB">
<feFlood flood-opacity="0" result="BackgroundImageFix"/>
<feBlend mode="normal" in="SourceGraphic" in2="BackgroundImageFix" result="shape"/>
<feTurbulence type="fractalNoise" baseFrequency="0.99900001287460327 0.99900001287460327" numOctaves="3" seed="1380" />
<feDisplacementMap in="shape" scale="60.599998474121094" xChannelSelector="R" yChannelSelector="G" result="displacedImage" width="100%" height="100%" />
<feMerge result="effect1_texture_36_3198">
<feMergeNode in="displacedImage"/>
</feMerge>
</filter>
<filter id="filter6_g_36_3198" x="124.923" y="120.731" width="186.992" height="131.346" filterUnits="userSpaceOnUse" color-interpolation-filters="sRGB">
<feFlood flood-opacity="0" result="BackgroundImageFix"/>
<feBlend mode="normal" in="SourceGraphic" in2="BackgroundImageFix" result="shape"/>
<feTurbulence type="fractalNoise" baseFrequency="0.99900001287460327 0.99900001287460327" numOctaves="3" seed="4097" />
<feDisplacementMap in="shape" scale="60.599998474121094" xChannelSelector="R" yChannelSelector="G" result="displacedImage" width="100%" height="100%" />
<feMerge result="effect1_texture_36_3198">
<feMergeNode in="displacedImage"/>
</feMerge>
</filter>
</defs>
</svg>
