<svg width="259" height="82" viewBox="0 0 259 82" fill="none" xmlns="http://www.w3.org/2000/svg">
<path d="M59.7319 77.5952C54.9346 74.6605 51.647 69.3664 49.8645 61.7043C48.1179 54.2005 48.6026 49.5018 48.7346 35.4012C48.7391 34.9179 49.132 34.5215 49.6154 34.5215H72.7413C73.2327 34.5215 73.6289 34.9196 73.6234 35.411C73.5585 41.2472 73.6405 52.5033 74.3173 54.7636C75.0302 57.145 76.2273 58.3313 77.913 58.3313C79.5986 58.3313 80.7957 57.1406 81.5087 54.7636C82.1864 52.5001 82.4347 41.2945 82.4576 35.3975C82.4595 34.9114 82.8535 34.5215 83.3396 34.5215H106.191C106.67 34.5215 107.061 34.9109 107.071 35.3898C107.37 49.4052 107.676 54.4734 105.865 61.9522C104.016 69.5789 100.711 74.8287 95.9489 77.697C91.1824 80.5653 85.1705 81.9995 77.913 81.9995C70.6555 81.9995 64.5291 80.5344 59.7319 77.5996V77.5952Z" fill="black"/>
<path d="M13.3222 75.1478C9.69131 70.5841 7.93965 63.1521 8.07169 52.8518H0.880229C0.394092 52.8518 0 52.4577 0 51.9716V35.4165C0 34.9603 0.349459 34.5817 0.801872 34.5231C7.92941 33.6001 13.1661 29.0034 14.2949 27.9663C15.4612 26.8907 16.5307 25.638 17.5033 24.1994C18.5376 22.8316 19.5763 21.0389 20.6149 18.8213H35.5849C36.0704 18.8213 36.4642 19.2143 36.4652 19.6998L36.4942 34.5175H44.5307C45.0169 34.5175 45.4109 34.9116 45.4109 35.3977V51.9716C45.4109 52.4577 45.0169 52.8518 44.5307 52.8518H30.5351C31.1205 55.5254 32.0403 57.4641 33.3078 58.6681C34.5709 59.8765 36.1774 60.4785 38.1227 60.4785C39.1569 60.4785 40.2748 60.3325 41.4763 60.0403C42.3234 59.8336 43.2299 59.5516 44.1928 59.1973C44.7802 58.9812 45.4154 59.4073 45.4154 60.0332V76.419C45.4154 76.7932 45.2585 77.1521 44.9713 77.3921C41.3014 80.4597 36.1329 81.9955 29.47 81.9955C22.5338 81.9955 16.9576 79.7159 13.331 75.1522L13.3222 75.1478Z" fill="black"/>
<path d="M166.411 75.0996C161.548 70.505 159.118 63.8698 159.118 55.1984C159.118 46.527 161.548 39.9935 166.411 35.3944C171.27 30.7998 178.241 28.498 187.316 28.498C196.391 28.498 203.262 30.7954 208.125 35.3944C212.988 39.9891 215.418 46.5889 215.418 55.1984C215.418 63.8078 212.988 70.4209 208.125 75.051C203.262 79.681 196.325 81.9916 187.316 81.9916C178.307 81.9916 171.274 79.6943 166.411 75.0996ZM191.009 61.6521C191.849 60.1515 192.272 58.0003 192.272 55.1984C192.272 52.8523 191.836 50.98 190.96 49.5768C190.085 48.1736 188.835 47.4742 187.219 47.4742C185.604 47.4742 184.447 48.1736 183.575 49.5768C182.699 50.98 182.264 52.8523 182.264 55.1984C182.264 58.0667 182.704 60.2356 183.575 61.7008C184.451 63.166 185.697 63.9007 187.316 63.9007C188.936 63.9007 190.168 63.1527 191.009 61.6521Z" fill="black"/>
<path d="M230.136 45.7735C234.855 31.5269 250.828 32.6561 257.655 32.7814C258.141 32.7903 258.528 33.1848 258.528 33.671V55.745C258.528 56.2682 258.077 56.6797 257.554 56.6978C253.168 56.8496 243.191 60.1763 242.099 69.4373V79.4109C242.099 79.8971 241.705 80.2912 241.219 80.2912H219.644C219.158 80.2912 218.764 79.8971 218.764 79.4109V35.26C218.764 34.7739 219.158 34.3798 219.644 34.3798H228.864C229.351 34.3798 229.745 34.7739 229.745 35.26V45.7735H230.136Z" fill="black"/>
<path d="M123.707 75.1478C120.076 70.5841 118.324 63.1521 118.456 52.8518H111.265C110.779 52.8518 110.385 52.4577 110.385 51.9716V35.4165C110.385 34.9603 110.734 34.5817 111.187 34.5231C118.314 33.6001 123.551 29.0034 124.68 27.9663C125.846 26.8907 126.915 25.638 127.888 24.1994C128.922 22.8316 129.961 21.0389 131 18.8213H145.97C146.455 18.8213 146.849 19.2143 146.85 19.6998L146.879 34.5175H154.915C155.402 34.5175 155.796 34.9116 155.796 35.3977V51.9716C155.796 52.4577 155.402 52.8518 154.915 52.8518H140.92C141.505 55.5254 142.425 57.4641 143.693 58.6681C144.956 59.8765 146.562 60.4785 148.507 60.4785C149.542 60.4785 150.66 60.3325 151.861 60.0403C152.708 59.8336 153.615 59.5516 154.578 59.1973C155.165 58.9812 155.8 59.4073 155.8 60.0332V76.419C155.8 76.7932 155.643 77.1521 155.356 77.3921C151.686 80.4597 146.518 81.9955 139.855 81.9955C132.919 81.9955 127.342 79.7159 123.716 75.1522L123.707 75.1478Z" fill="black"/>
<path d="M113.766 8.76953C109.254 8.76953 105.223 10.8368 102.6 14.5052C102.762 13.9075 102.922 13.3098 103.078 12.714L103.085 12.6902C103.343 11.7014 103.594 10.7198 103.832 9.7529C103.932 9.31605 103.681 8.96145 103.254 8.93404C101.602 8.82437 90.4674 8.82437 88.7518 8.93404C88.3102 8.96145 87.854 9.31605 87.6995 9.7529C87.0725 11.6374 86.4565 13.5767 85.8676 15.5178C85.6786 16.174 86.0439 16.5012 86.7018 16.2014C88.272 15.6549 88.879 15.3277 89.5078 15.3277C90.242 15.3277 90.5692 15.5014 90.5383 16.3659C90.5383 16.3659 90.213 21.4473 87.556 21.4473C86.7127 21.4473 85.7513 21.1329 84.839 20.2628C84.3937 19.8498 84.1393 19.4915 84.1575 19.4257C86.1039 12.7048 83.058 8.77136 76.8117 8.77136C71.3886 8.77136 66.6599 11.758 64.2373 16.9216C64.6735 11.7233 61.215 8.8792 55.3358 8.8792C53.055 8.8792 50.8342 8.85178 48.5407 8.98887C48.0445 9.01629 47.7011 9.26121 47.5193 9.69989C45.9836 13.6882 43.5684 20.6266 41.6619 27.2122C41.5275 27.6765 41.751 28.0311 42.189 28.1133C43.8064 28.2504 48.0464 28.3327 50.4653 28.3327C56.4462 28.3327 60.5589 26.6529 62.787 22.0651C62.4127 26.7882 65.8202 28.3327 71.1506 28.3327C76.4809 28.3327 80.3864 26.9271 82.8017 22.7048L82.749 22.8858L82.4201 23.8984C82.0693 25.0188 81.7767 26.0296 81.515 26.9307C81.3878 27.3676 81.4914 27.6692 81.8603 27.8044C83.7449 28.2778 85.4078 28.276 86.5764 28.276C93.1498 28.276 95.4942 26.5268 97.3061 20.272C97.5769 19.3179 97.8168 18.3857 98.0313 17.4827L98.3166 16.3605C98.4329 15.6366 98.9218 15.0718 99.8595 15.4392C100.005 15.4959 100.278 15.6622 100.55 15.8395L101.424 16.4445C100.954 17.3658 100.559 18.3619 100.252 19.4257C98.2821 26.2288 101.884 28.3308 108.105 28.3308C114.326 28.3308 119.144 26.227 121.114 19.4257C123.06 12.7048 120.014 8.77136 113.768 8.77136L113.766 8.76953ZM55.5575 19.1771C55.1232 20.6796 53.9274 21.3358 52.6243 21.3358H52.488C52.1627 21.3358 51.9428 21.0634 52.0682 20.6248C52.3862 19.3416 53.0023 17.2104 53.4294 15.9254C53.5475 15.516 53.8837 15.2967 54.2363 15.2967H54.3454C55.7847 15.2967 56.2863 16.662 55.5575 19.1753V19.1771ZM75.6413 19.0949C75.0961 20.9794 74.1674 21.7452 73.0534 21.7452C71.9393 21.7452 71.4541 20.9812 72.0011 19.0949C72.5627 17.1556 73.7639 15.3515 74.9053 15.3515C76.0466 15.3515 76.2029 17.1537 75.6413 19.0949ZM112.596 19.0949C112.05 20.9794 111.122 21.7452 110.008 21.7452C108.894 21.7452 108.408 20.9812 108.955 19.0949C109.517 17.1556 110.718 15.3515 111.86 15.3515C113.001 15.3515 113.157 17.1537 112.596 19.0949Z" fill="black"/>
</svg>
